<?xml version="1.0" encoding="UTF-8"?> <!-- Generator: Adobe Illustrator 19.2.1, SVG Export Plug-In . SVG Version: 6.00 Build 0) --> <svg xmlns="http://www.w3.org/2000/svg" xmlns:xlink="http://www.w3.org/1999/xlink" id="Layer_1" x="0px" y="0px" viewBox="0 0 337.2 195.7" style="enable-background:new 0 0 337.2 195.7;" xml:space="preserve"> <style type="text/css"> .st0{fill:#FFFFFF;} </style> <g> <g> <path class="st0" d="M313.5,37.8c-0.5-0.2,2.6,0.9-1.6,8.3c-7.9,10-17.7,6.8-26.6,11c-23.7,8.9-15.2,33-13.3,31.1 c0,0.8,2.6,1.8,0.5,3.8c-2.2,1.9-4.1,2.1-7.4-0.6c-0.9-1.4-5.3-5.6-4.5-16.5c1.1-10.9,12-20.1,22.9-22.7 c10.8-3.3,19.3,0.7,26.4-6.2C314.9,40.2,313,37.6,313.5,37.8"></path> <path class="st0" d="M307.8,58.5c0.5,0.3-8.5,2.8-26.2,22.3c-17.7,19.4-11,34.7-12.4,35c-0.1,0.8-3.3,0.4-6.1,0 c-2.9-0.3,1.9-24.4,18.8-39.4C296.5,62.6,308.1,59,307.8,58.5"></path> <path class="st0" d="M313.5,39.9c2.1,8.1,0.4,28.6-6.6,42.5c-9.6,19.1-30.1,14.3-32.3,8.8c0.9-1,11.8,1.2,20.2-3.3 c5.5-3,9.1-7.1,11.2-11.6C314.9,56.6,313.2,39.1,313.5,39.9"></path> <path class="st0" d="M236.2,24.4c-0.5,0.3,2.4-1.3,5,6.8c2,12.6-6.8,17.8-9.8,27.4c-9.2,23.8,14.1,33.5,14,30.8 c0.6,0.6,3.1-0.8,3.1,2.1c-0.1,2.9-1.2,4.5-5.4,5.1c-1.6-0.2-7.7,0.3-15.2-7.6c-7.3-8.2-6.8-22.5-1.3-32.4 c4.8-10.3,13.4-14.1,13.1-24C238.9,24.9,235.7,24.6,236.2,24.4"></path> <path class="st0" d="M247.6,42.4c0.6-0.1-3.6,8.3-1.1,34.6c2.5,26.3,18.1,31.5,17.5,32.7c0.5,0.6,1.3,3.8-0.8,5.8 c-2.2,1.9-19.9-18.9-19.7-41.6C243.1,53.7,248.2,42.5,247.6,42.4"></path> <path class="st0" d="M237.7,25.7c7.4,3.8,21.3,18.8,26.8,33.3c7.7,20-9.6,32.1-15.1,30.2c-0.2-1.4,8.8-8,11-17.4 c1.5-6.1,0.9-11.6-1.1-16.2C251,35.8,236.9,25.4,237.7,25.7"></path> </g> <g> <path class="st0" d="M30.9,170.5c-4.5,0-8.7-0.7-12.5-2c-3.8-1.3-7.1-3.3-9.8-6c-2.7-2.7-4.9-6-6.4-10c-1.5-4-2.3-8.6-2.3-13.8 c0-4.9,0.7-9.3,2.2-13.2c1.4-4,3.5-7.3,6.3-10.2c2.6-2.7,5.9-4.8,9.8-6.3c3.9-1.5,8.2-2.2,12.8-2.2c2.5,0,4.9,0.1,6.9,0.4 c2.1,0.3,3.9,0.7,5.7,1.1c1.8,0.5,3.5,1.1,4.9,1.7c1.5,0.6,2.8,1.2,3.9,1.8v14.9h-1.8c-0.8-0.7-1.7-1.4-2.9-2.3 c-1.2-0.9-2.5-1.8-3.9-2.7c-1.5-0.9-3.1-1.6-4.8-2.2c-1.7-0.6-3.6-0.9-5.6-0.9c-2.2,0-4.3,0.4-6.3,1c-2,0.7-3.8,1.9-5.5,3.5 c-1.6,1.6-2.9,3.6-3.9,6.2c-1,2.6-1.5,5.7-1.5,9.4c0,3.8,0.5,7,1.6,9.6c1.1,2.6,2.4,4.6,4.1,6.1c1.7,1.5,3.5,2.6,5.5,3.2 c2,0.6,4,1,6,1c1.9,0,3.8-0.3,5.6-0.9c1.9-0.6,3.6-1.3,5.1-2.3c1.3-0.8,2.6-1.6,3.7-2.5c1.1-0.9,2.1-1.7,2.8-2.3h1.6v14.7 c-1.5,0.7-3,1.3-4.4,1.9c-1.4,0.6-2.8,1.1-4.4,1.6c-2,0.6-3.8,1-5.6,1.3C36.4,170.4,34,170.5,30.9,170.5"></path> <polygon class="st0" points="111.6,169.3 95.9,169.3 95.9,142.3 72.8,142.3 72.8,169.3 57.2,169.3 57.2,108 72.8,108 72.8,130.5 95.9,130.5 95.9,108 111.6,108 "></polygon> <path class="st0" d="M172.6,138.7c0,9.8-2.8,17.5-8.3,23.3c-5.5,5.7-13.2,8.6-23,8.6c-9.7,0-17.4-2.9-22.9-8.6 c-5.5-5.8-8.3-13.5-8.3-23.3c0-9.9,2.8-17.6,8.3-23.4c5.5-5.7,13.2-8.6,22.9-8.6c9.7,0,17.4,2.9,22.9,8.6 C169.9,121.1,172.6,128.9,172.6,138.7 M151.9,154.2c1.5-1.9,2.6-4.1,3.4-6.6c0.7-2.5,1.1-5.5,1.1-9c0-3.7-0.4-6.8-1.3-9.4 c-0.8-2.6-1.9-4.7-3.3-6.3c-1.4-1.6-3-2.8-4.8-3.6c-1.8-0.7-3.7-1.1-5.6-1.1c-2,0-3.8,0.4-5.6,1.1c-1.8,0.7-3.4,1.9-4.8,3.5 c-1.4,1.5-2.5,3.7-3.3,6.4c-0.9,2.7-1.3,5.8-1.3,9.4c0,3.6,0.4,6.8,1.2,9.3c0.8,2.6,1.9,4.7,3.3,6.3c1.4,1.6,2.9,2.8,4.8,3.6 c1.8,0.8,3.7,1.2,5.7,1.2c2,0,3.9-0.4,5.7-1.2C149,157.1,150.6,155.9,151.9,154.2"></path> <polygon class="st0" points="234.8,169.3 219.2,169.3 219.2,128.3 208,154.9 197.2,154.9 186,128.3 186,169.3 171.2,169.3 171.2,108 189.4,108 203,138.8 216.6,108 234.8,108 "></polygon> <path class="st0" d="M288.6,127.4c0,2.7-0.5,5.4-1.4,8c-1,2.6-2.3,4.8-4.1,6.6c-2.4,2.4-5.1,4.2-8.1,5.5c-3,1.2-6.7,1.9-11.1,1.9 h-9.7v20h-15.6V108h25.7c3.9,0,7.1,0.3,9.8,1c2.6,0.7,5,1.7,7,3c2.4,1.6,4.3,3.7,5.6,6.2C287.9,120.8,288.6,123.8,288.6,127.4 M272.4,127.7c0-1.7-0.5-3.2-1.4-4.5c-0.9-1.2-2-2.1-3.2-2.6c-1.6-0.7-3.2-1-4.8-1.1c-1.5-0.1-3.6-0.1-6.2-0.1h-2.7v18.3h4.5 c2.7,0,4.8-0.2,6.6-0.5c1.7-0.3,3.2-1,4.3-2c1-0.9,1.7-1.9,2.2-3.1C272.2,131,272.4,129.5,272.4,127.7"></path> <path class="st0" d="M336.5,150.1c0,6-2.5,10.9-7.6,14.7c-5.1,3.8-11.9,5.7-20.6,5.7c-5,0-9.4-0.4-13.1-1.3 c-3.7-0.9-7.2-2-10.5-3.4V151h1.7c3.2,2.6,6.8,4.6,10.8,6c4,1.4,7.9,2.1,11.5,2.1c0.9,0,2.2-0.1,3.7-0.2c1.6-0.2,2.8-0.4,3.8-0.8 c1.2-0.5,2.2-1.1,3-1.9c0.8-0.7,1.2-1.8,1.2-3.3c0-1.3-0.6-2.5-1.7-3.5c-1.1-1-2.8-1.7-4.9-2.2c-2.3-0.5-4.7-1.1-7.2-1.5 c-2.5-0.5-4.9-1.1-7.1-1.8c-5.1-1.7-8.8-3.9-11-6.8c-2.2-2.9-3.4-6.4-3.4-10.7c0-5.7,2.5-10.4,7.6-14c5.1-3.6,11.6-5.4,19.5-5.4 c4,0,7.9,0.4,11.8,1.2c3.9,0.8,7.3,1.8,10.1,2.9v14.1h-1.7c-2.4-2-5.4-3.6-9-5c-3.5-1.3-7.2-2-10.8-2c-1.3,0-2.6,0.1-3.9,0.3 c-1.3,0.2-2.5,0.5-3.7,1c-1.1,0.4-2,1-2.7,1.9c-0.8,0.8-1.1,1.8-1.1,2.9c0,1.6,0.6,2.9,1.8,3.7c1.2,0.9,3.5,1.7,6.9,2.4 c2.2,0.5,4.4,0.9,6.4,1.4c2,0.4,4.3,1,6.6,1.8c4.6,1.5,8.1,3.6,10.3,6.3C335.4,142.4,336.5,145.8,336.5,150.1"></path> </g> <path class="st0" d="M53.6,60.6c0,2.7-0.5,5.4-1.4,8c-0.9,2.6-2.3,4.8-4.1,6.6c-2.4,2.4-5.1,4.2-8.1,5.5c-3,1.2-6.7,1.9-11.1,1.9 h-9.7v20H3.5V41.3h25.7c3.9,0,7.1,0.3,9.7,1c2.6,0.7,5,1.7,7,3c2.4,1.6,4.3,3.7,5.6,6.2C52.9,54.1,53.6,57.1,53.6,60.6 M37.4,61 c0-1.7-0.5-3.2-1.4-4.5c-0.9-1.2-2-2.1-3.2-2.6c-1.6-0.7-3.2-1-4.8-1.1c-1.5-0.1-3.6-0.1-6.2-0.1h-2.7V71h4.5 c2.7,0,4.9-0.2,6.6-0.5c1.7-0.3,3.2-1,4.3-2c1-0.9,1.7-1.9,2.2-3.1C37.2,64.2,37.4,62.7,37.4,61"></path> <path class="st0" d="M113.6,71.9c0,9.8-2.8,17.5-8.3,23.3c-5.5,5.7-13.2,8.6-23,8.6c-9.7,0-17.4-2.9-22.9-8.6 c-5.5-5.7-8.3-13.5-8.3-23.3c0-9.9,2.8-17.6,8.3-23.4c5.5-5.7,13.2-8.6,22.9-8.6c9.7,0,17.4,2.9,22.9,8.6 C110.8,54.3,113.6,62.1,113.6,71.9 M92.9,87.5c1.5-1.9,2.6-4.1,3.4-6.6c0.7-2.5,1.1-5.5,1.1-9c0-3.7-0.4-6.8-1.3-9.4 c-0.8-2.6-1.9-4.7-3.3-6.3c-1.4-1.6-3-2.8-4.8-3.6c-1.8-0.7-3.7-1.1-5.6-1.1c-2,0-3.8,0.4-5.6,1.1c-1.7,0.7-3.4,1.9-4.8,3.5 c-1.4,1.5-2.5,3.7-3.3,6.4c-0.9,2.7-1.3,5.8-1.3,9.4c0,3.6,0.4,6.8,1.2,9.3c0.8,2.6,1.9,4.7,3.3,6.3c1.4,1.6,2.9,2.8,4.8,3.6 c1.8,0.8,3.7,1.2,5.7,1.2c2,0,3.9-0.4,5.7-1.2C89.9,90.3,91.5,89.1,92.9,87.5"></path> <path class="st0" d="M172.2,102.6h-19.1l-16.5-22.5h-7.2v22.5h-15.6V41.3h26.2c3.6,0,6.7,0.2,9.2,0.6c2.6,0.4,5,1.3,7.2,2.7 c2.3,1.4,4.1,3.1,5.4,5.3c1.3,2.2,2,4.9,2,8.2c0,4.5-1,8.2-3.1,11.1c-2.1,2.9-5,5.2-8.9,7.1L172.2,102.6z M147.8,60.1 c0-1.5-0.3-2.9-0.9-4c-0.6-1.1-1.7-2-3.2-2.6c-1.1-0.4-2.3-0.7-3.7-0.8c-1.4-0.1-3.1-0.1-4.9-0.1h-5.7v16.5h4.8 c2.5,0,4.6-0.1,6.3-0.4c1.7-0.2,3.1-0.8,4.2-1.7c1.1-0.9,1.9-1.8,2.4-2.8C147.6,63.2,147.8,61.8,147.8,60.1"></path> <polygon class="st0" points="227.3,102.6 208.1,102.6 190,78 186.4,82.6 186.4,102.6 170.7,102.6 170.7,41.3 186.4,41.3 186.4,69.1 208,41.3 226.1,41.3 202.5,69.6 "></polygon> <g id="premium"> <path class="st0" d="M57.9,6.7c-0.1-0.2-0.2-0.4-0.4-0.8c-0.2-0.3-0.5-0.7-0.8-1.2c-0.4-0.4-0.6-0.8-0.8-1 c-0.2-0.3-0.3-0.4-0.3-0.5c0-0.4,0.5-1,1.5-1.9c1-0.9,1.7-1.3,2.2-1.3c0.3,0.1,0.6,0.2,0.7,0.4h0.7c0.4,0.2,0.8,0.4,1.3,0.5 c0.4,0.2,0.9,0.3,1.3,0.5c1.2,0.5,2,0.9,2.3,1.2c0.3,0.3,0.8,0.6,1.5,1c0.1,0.1,0.3,0.3,0.6,0.5c0.3,0.3,0.6,0.6,1.1,0.9 c0.1,0,0.1,0.1,0.2,0.2c0.1,0.1,0.2,0.2,0.3,0.3c0.7,0.7,1.2,1.3,1.7,1.9c0.4,0.6,0.8,1.1,1,1.6c0.3,0.6,0.5,1.2,0.7,1.9 c0.1,0.7,0.2,1.4,0.2,2.2c0,1.5-0.2,2.7-0.7,3.8c-0.5,1-1.2,1.8-2.1,2.3c-0.1,0.1-0.2,0.1-0.4,0.2c-0.2,0.1-0.3,0.2-0.5,0.3 l-0.3,0.3c-0.3,0.3-0.7,0.5-1.3,0.8c-0.6,0.3-1.4,0.6-2.4,0.9c-1.3,0.4-2.7,0.9-4.1,1.5c-0.4,0.2-0.7,0.3-1,0.4 c-0.3,0.1-0.5,0.2-0.7,0.2c-0.4,0-0.7,0-0.8,0.1c-0.1,0.1-0.2,0.6-0.3,1.6c0,0.7-0.1,1.3-0.1,1.9c0,0.2,0.1,0.5,0.2,0.8 c0.2,0.3,0.4,0.6,0.7,1c-0.1,0.3-0.3,0.5-0.5,0.8c-0.2,0.3-0.4,0.5-0.7,0.8c-0.3,0.4-0.6,0.6-0.8,0.8c-0.3,0.2-0.6,0.3-0.8,0.3 c-0.5,0-0.9-0.2-1.1-0.7c-0.2-0.5-0.4-1.2-0.4-2.1c0-0.3,0.1-0.7,0.2-1.1c0.1-0.5,0.3-1,0.5-1.7l-0.1-1.2 c-0.2-0.1-0.4-0.2-0.6-0.3c-0.2-0.1-0.4-0.2-0.6-0.3c-0.3-0.1-0.5-0.2-0.6-0.4c-0.1-0.1-0.2-0.3-0.2-0.4c0-0.2,0.4-0.4,1.1-0.7 c0.7-0.3,1.1-0.7,1.1-1.3c0-0.1,0-0.4-0.1-0.6c-0.1-0.3-0.1-0.5-0.1-0.6c0.1-0.8,0.3-1.6,0.5-2.4c0-0.1,0.1-0.3,0.1-0.7 c0-0.4,0.1-1,0.2-1.7c0-0.2,0.1-0.5,0.2-0.9c0.1-0.3,0.2-0.8,0.3-1.2l-0.2-0.7L57.9,6.7z M59.8,4.3c-0.1,0-0.2,0-0.2,0.1 c0,0-0.1,0.1-0.1,0.2c1.8,1.7,2.7,2.9,2.7,3.7c0,0.2-0.3,1.3-0.9,3.1c-0.6,1.8-1,3-1.2,3.4l0.2,0.8c-0.4,1.4-0.7,2.5-0.9,3.5 c-0.2,1-0.3,1.8-0.3,2.3c0,0.1,0,0.3,0.1,0.3c0.1,0.1,0.2,0.1,0.3,0.1c0.2,0,0.4-0.1,0.8-0.2c0.4-0.1,0.9-0.3,1.5-0.6 c0.4-0.2,0.8-0.4,1.2-0.5c0.4-0.2,0.8-0.3,1.2-0.5c0.2-0.1,0.4-0.2,0.6-0.3c0.2-0.1,0.5-0.3,0.7-0.5c0.4-0.2,0.7-0.4,0.9-0.6 c0.2-0.2,0.4-0.3,0.4-0.3c0.7-0.4,1.2-0.9,1.5-1.5c0.3-0.6,0.5-1.3,0.5-2.2c0-0.5-0.1-1-0.2-1.5c-0.1-0.5-0.3-1-0.6-1.6l0-0.5 c0-0.1-0.1-0.1-0.2-0.2c-0.1-0.1-0.2-0.2-0.3-0.3c-0.1-0.1-0.2-0.2-0.3-0.3c-0.1-0.1-0.2-0.3-0.3-0.5c-0.2-0.4-0.7-0.9-1.3-1.6 c-0.6-0.6-1.5-1.3-2.6-2.1c-0.1-0.1-0.3-0.2-0.4-0.3c-0.2-0.1-0.3-0.3-0.5-0.4c-0.3-0.1-0.6-0.3-1-0.4C60.8,4.7,60.3,4.5,59.8,4.3 "></path> <path class="st0" d="M73.2,23.8c0.2-0.3,0.5-0.6,0.7-0.9c1.1-0.8,2-1.6,2.7-2.3c0.7-0.7,1.2-1.4,1.6-2.1l-0.2-1 c0.2-0.3,0.7-0.7,1.5-1.2c0.8-0.5,1.4-0.7,1.9-0.7c0.5,0,1,0.1,1.3,0.4c0.4,0.3,0.7,0.6,1,0.9c0.2,0.1,0.3,0.2,0.4,0.2 c0.6,0.4,1.1,1,1.4,1.7c0.3,0.7,0.5,1.6,0.5,2.6c0,0.5-0.2,1.3-0.7,2.3c-0.5,1-0.7,1.8-0.7,2.3c0,0.1,0,0.1,0.1,0.2 c0.1,0,0.1,0.1,0.2,0.1c0.2,0,0.4-0.1,0.7-0.2c0.3-0.2,0.6-0.4,0.9-0.6c0.8-0.7,1.3-1.1,1.5-1.2c0.2-0.1,0.4-0.2,0.6-0.4 c0.1,0.3,0.3,0.6,0.4,0.9c0.2,0.3,0.3,0.6,0.5,1c-0.1,0.1-0.3,0.2-0.5,0.4c-0.2,0.1-0.4,0.3-0.6,0.5c-0.5,0.3-1.2,0.7-2,1.2 c-0.8,0.5-1.8,1-3,1.6c-0.3,0.2-0.7,0.3-1.1,0.4c-0.6,0-1.1-0.1-1.4-0.3c-0.3-0.2-0.5-0.4-0.5-0.8c0-0.1,0-0.3,0.1-0.5 c0.1-0.2,0.2-0.4,0.3-0.6c0.1-0.2,0.2-0.4,0.3-0.5c0.1-0.2,0.2-0.4,0.3-0.6c0.3-0.8,0.6-1.6,0.8-2.4c0.2-0.7,0.3-1.4,0.3-2 c0-0.7-0.1-1.3-0.4-1.6c-0.3-0.4-0.6-0.6-1.1-0.6c-0.3,0.2-0.7,0.4-1.1,0.7c-0.4,0.3-0.8,0.7-1.2,1.1c-0.4,0.5-0.8,0.9-1.2,1.2 c-0.4,0.3-0.6,0.5-0.9,0.6c-0.1,0.2-0.4,0.4-0.7,0.7c-0.3,0.3-0.7,0.5-1.2,0.8c0,0.1-0.1,0.1-0.1,0.2c-0.1,0.1-0.2,0.2-0.3,0.4 c-0.1-0.3-0.3-0.6-0.4-0.9C73.6,24.5,73.4,24.1,73.2,23.8"></path> <path class="st0" d="M88.5,23.8c0.2-0.3,0.4-0.6,0.7-0.9c0.3-0.3,0.7-0.6,1.1-0.9c0-0.3,0.1-0.5,0.1-0.8c0-0.3,0.1-0.5,0.1-0.8 c0-0.2,0.1-0.4,0.2-0.7c0.1-0.3,0.2-0.5,0.3-0.8c0.1-0.3,0.3-0.7,0.6-1.1c0.2-0.4,0.5-0.9,0.9-1.5c0.3-0.3,0.7-0.6,1-1 c0.4-0.4,0.7-0.7,1.1-1.1c0.2-0.1,0.4-0.2,0.6-0.3c0.2-0.1,0.4-0.2,0.6-0.4c0.2-0.1,0.4-0.1,0.6-0.1c0.2,0,0.5-0.1,0.8-0.1 c0.4,0,0.7,0,0.9,0.1c0.2,0.1,0.4,0.2,0.6,0.3c0.1,0.1,0.2,0.3,0.3,0.5c0.1,0.2,0.2,0.5,0.3,0.8c0,0.3,0.1,0.6,0.2,0.9 c0-0.1,0,0-0.1,0.1c-0.1,0.1-0.1,0.4-0.2,0.7L99,17.4c-0.2,0.6-0.7,1.4-1.4,2.2c-0.8,0.8-1.8,1.8-3,2.9c-0.1,0.1-0.2,0.2-0.3,0.4 c-0.1,0.1-0.1,0.3-0.1,0.5c0,0.3,0.1,0.5,0.2,0.7c0.1,0.2,0.3,0.4,0.5,0.5c0.1,0.1,0.3,0.2,0.6,0.2c0.3,0.1,0.6,0.2,1,0.2 c0.6,0,1.1-0.1,1.6-0.3c0.5-0.1,0.9-0.3,1.3-0.5c0.1,0,0.2-0.1,0.4-0.2c0.2-0.1,0.3-0.2,0.5-0.3c0.2,0.4,0.4,0.7,0.5,1 c0.2,0.3,0.3,0.6,0.4,0.8c-0.9,0.8-1.7,1.3-2.4,1.7c-0.7,0.4-1.4,0.6-2,0.6c-0.2,0.1-0.5,0.2-0.8,0.3c-0.3,0.1-0.7,0.1-1.1,0.1 c-0.6,0-1.1-0.1-1.5-0.2c-0.4-0.1-0.8-0.4-1.1-0.6c-0.2-0.1-0.3-0.3-0.5-0.6c-0.2-0.3-0.3-0.6-0.5-0.9c-0.1-0.3-0.3-0.5-0.4-0.7 c-0.1-0.1-0.3-0.2-0.4-0.2c-0.1,0-0.3,0.1-0.4,0.2c-0.2,0.1-0.3,0.3-0.5,0.5c-0.1-0.2-0.2-0.4-0.3-0.7 C89,24.6,88.8,24.3,88.5,23.8 M95.9,17.3c-0.3,0-0.8,0.4-1.4,1.2c-0.6,0.8-0.9,1.3-0.9,1.7c0,0.1,0,0.1,0.1,0.2 c0,0,0.1,0.1,0.2,0.1c0.2,0,0.3-0.1,0.4-0.2c0.1-0.2,0.2-0.3,0.3-0.4c0.2-0.1,0.3-0.3,0.5-0.4c0.2-0.2,0.3-0.3,0.5-0.5 c0.2-0.2,0.3-0.4,0.4-0.6c0.1-0.2,0.1-0.4,0.1-0.6c0-0.1,0-0.2-0.1-0.3C96.1,17.3,96,17.3,95.9,17.3"></path> <path class="st0" d="M100.1,23.8c0.1-0.1,0.2-0.2,0.3-0.4c0.1-0.2,0.3-0.3,0.4-0.5c0.7-0.7,1.3-1.4,2-2c0.6-0.6,1.2-1.1,1.8-1.6 c0.3-0.2,0.6-0.6,1.1-0.9c0.4-0.4,0.9-0.8,1.4-1.3c0.6-0.2,1.2-0.4,1.8-0.6c0.4,0,0.7,0.1,0.9,0.4c0.2,0.2,0.3,0.6,0.3,1 c0,0.4,0,0.8-0.1,1.2c-0.1,0.4-0.2,0.9-0.3,1.3c-0.1,0.4-0.3,0.7-0.3,1.1c0,0.1,0,0.2,0.1,0.2c0,0,0.1,0.1,0.2,0.1 c0.2-0.1,0.7-0.4,1.3-1c0.7-0.6,1.5-1.4,2.6-2.4c0.9-0.9,1.7-1.6,2.4-2c0.7-0.4,1.2-0.7,1.7-0.7c0.4,0,0.8,0.1,1,0.4 c0.2,0.3,0.3,0.7,0.3,1.3c0,0.8-0.1,1.6-0.2,2.4c-0.1,0.8-0.4,1.5-0.7,2.2c-0.1,0.1-0.1,0.3-0.1,0.3c0,0.1,0,0.2,0,0.3 c0,0.1,0.1,0.2,0.3,0.3c0.1-0.1,0.3-0.2,0.4-0.4c0.2-0.2,0.3-0.4,0.6-0.7c0.3-0.3,0.7-0.5,1.1-0.8c0.4-0.3,0.7-0.5,1.1-0.8 c0.4-0.3,0.9-0.5,1.3-0.7c0.4-0.2,0.9-0.2,1.3-0.2c0.1,0,0.2,0,0.2,0.1c0.1,0,0.2,0.1,0.2,0.1c0.3,0.3,0.6,0.5,0.9,0.7 c0.2,0.2,0.4,0.4,0.5,0.6c0.6,1.1,1.1,1.9,1.6,2.4c0.5,0.5,0.9,0.8,1.2,0.8c0.1,0,0.2,0,0.2-0.1c0.1,0,0.2-0.1,0.2-0.1 c0.4,0.7,0.7,1.3,0.9,1.9c-0.6,0.4-1,0.7-1.5,0.9c-0.4,0.2-0.8,0.3-1.1,0.3c-1.1,0-2.1-0.6-3.3-1.8c-1.1-1.2-2-1.8-2.6-1.8 c-0.8,0-2.1,1-4,3.1c-1.9,2.1-3,3.1-3.5,3.1c-0.2,0-0.5,0-0.9-0.1c-0.1,0-0.2-0.1-0.3-0.3c-0.1-0.1-0.1-0.3-0.1-0.5 c0-0.2,0-0.5,0.1-0.8c0.1-0.3,0.2-0.7,0.4-1.2c0.2-0.6,0.4-1,0.5-1.4c0.1-0.3,0.2-0.6,0.2-0.7c0-0.2,0.1-0.5,0.2-1 c0.1-0.5,0.2-1.2,0.3-2c0-0.1,0-0.3-0.1-0.3c-0.1-0.1-0.2-0.1-0.3-0.1c-0.1,0-0.2,0-0.4,0.1c-0.1,0.1-0.3,0.2-0.4,0.3 c-0.2,0.2-0.4,0.3-0.6,0.5c-0.2,0.2-0.6,0.4-1.1,0.7c-0.5,0.5-1.1,1.1-1.6,1.6c-0.6,0.6-1.1,1.1-1.7,1.7c-0.9,0.9-1.6,1.6-2.2,2.1 c-0.5,0.5-0.9,0.7-1,0.7c-0.5,0-0.8,0-1-0.1c-0.2-0.1-0.4-0.2-0.4-0.4c0-0.4,0.3-1.4,0.8-2.8c0.5-1.4,0.8-2.4,0.8-3 c0-0.1,0-0.2-0.1-0.2c-0.1-0.1-0.2-0.1-0.3-0.1c-0.2,0-0.4,0.1-0.7,0.3c-0.3,0.2-0.5,0.5-0.9,0.9c-0.2,0.2-0.5,0.5-0.8,0.7 c-0.3,0.3-0.7,0.6-1.1,1c0,0.1-0.1,0.2-0.2,0.3c-0.1,0.1-0.2,0.2-0.3,0.3c-0.1-0.2-0.2-0.4-0.3-0.7 C100.5,24.6,100.3,24.3,100.1,23.8"></path> <path class="st0" d="M129,23.8l0.1-0.1l0.1-0.2c0.4-0.5,1.1-1.1,2.2-2c1-0.8,1.8-1.5,2.2-1.9c0.2-0.2,0.3-0.4,0.5-0.5 c0.2-0.1,0.4-0.1,0.6-0.1c0.5,0,1,0.1,1.4,0.4c0.4,0.2,0.6,0.6,0.7,1.1c0.1,0.4,0.2,0.8,0.3,1.3c0.1,0.4,0.2,0.9,0.2,1.3 c0.1,0.3,0.2,0.7,0.4,1.2c0.2,0.5,0.3,0.9,0.3,0.9c0.1,0.1,0.2,0.2,0.3,0.3c0.2,0.1,0.3,0.1,0.6,0.1c0.3,0,0.6,0,0.8-0.1 c0.3-0.1,0.6-0.2,0.9-0.5c0.2-0.2,0.5-0.4,0.7-0.5c0.3-0.2,0.5-0.4,0.7-0.5l0.9,1.9c-0.2,0.2-0.6,0.5-1,0.7 c-0.4,0.3-0.9,0.6-1.5,1c-0.6,0.4-1.2,0.7-1.6,0.9c-0.4,0.2-0.8,0.3-1,0.3c-1.4,0-2.3-0.1-2.7-0.4c-0.4-0.3-0.9-1.1-1.4-2.4 c-0.1-0.1-0.2-0.2-0.3-0.4c-0.1-0.1-0.3-0.3-0.4-0.5c-0.2-0.3-0.3-0.5-0.5-0.7c-0.1-0.2-0.3-0.2-0.3-0.2c-0.2,0-0.6,0.1-1,0.4 c-0.4,0.3-0.9,0.7-1.5,1.3c-0.1-0.2-0.2-0.4-0.3-0.6c-0.1-0.2-0.2-0.5-0.4-0.9c0-0.1-0.1-0.2-0.1-0.2 C129.2,23.9,129.1,23.9,129,23.8 M138.6,7.9c0.4,0,0.7,0.1,0.8,0.2c0.2,0.1,0.3,0.3,0.3,0.6c-0.1,0.4-0.2,0.7-0.2,0.9 c-0.2,0.5-0.3,0.9-0.4,1.2c-0.1,0.3-0.2,0.5-0.3,0.7c-0.1,0.3-0.3,0.6-0.6,0.8c-0.2,0.2-0.5,0.4-0.9,0.6c-0.4,0.2-0.6,0.4-0.9,0.5 c-0.2,0.1-0.4,0.1-0.5,0.1c-0.3,0-0.5-0.1-0.7-0.1c-0.2,0-0.5,0-0.7,0c-0.2-0.1-0.4-0.3-0.5-0.5c-0.1-0.3-0.2-0.6-0.2-1.1 c0-0.4,0.3-0.9,0.8-1.5c0.6-0.6,1.1-0.9,1.5-1c0.3-0.3,0.6-0.6,0.9-1c0.2-0.1,0.4-0.2,0.6-0.2C138,7.9,138.3,7.9,138.6,7.9"></path> <path class="st0" d="M142.2,23.8c0.1,0,0.1-0.1,0.1-0.1c0-0.1,0.1-0.1,0.1-0.2c0.3-0.2,0.6-0.4,0.9-0.8c0.3-0.3,0.7-0.7,1.1-1.2 c0.3-0.4,0.7-0.8,1-1.2c0.4-0.4,0.7-0.8,1.2-1.2c0.3-0.4,0.7-0.8,1-1.3c0.3-0.4,0.7-0.9,1-1.3c0.6-0.3,1.1-0.4,1.4-0.5 c0.3-0.1,0.6-0.2,0.7-0.2c0.2,0,0.4,0.1,0.5,0.2c0.1,0.1,0.2,0.3,0.2,0.6c0,0.1,0,0.2-0.1,0.3c0,0.1-0.1,0.3-0.2,0.5 c-0.1,0.3-0.2,0.5-0.4,0.8c-0.1,0.5-0.3,0.9-0.4,1.4c-0.2,0.5-0.3,0.9-0.5,1.4c-0.2,0.6-0.3,1.1-0.4,1.6c-0.1,0.5-0.1,0.9-0.1,1.3 c0,0.8,0,1.3,0.1,1.7c0.1,0.4,0.2,0.5,0.4,0.5c0.2-0.1,0.3-0.2,0.6-0.3c0.2-0.1,0.5-0.2,0.8-0.4c0.3-0.3,0.6-0.6,0.9-0.9 c0.3-0.4,0.8-0.8,1.2-1.3c0.3-0.4,0.6-0.7,0.9-1.1c0.1-0.1,0.2-0.2,0.4-0.4c0.1-0.1,0.3-0.3,0.4-0.4c0.3-0.6,0.6-1.1,1-1.4 c0.4-0.3,0.8-0.5,1.2-0.5c0.4,0,0.7,0,1,0.1c0.2,0.1,0.4,0.2,0.5,0.4c0,0.1,0.1,0.3,0.1,0.5c0,0.2,0,0.5,0,0.9 c0,0.1,0,0.4,0.1,0.6c0.1,0.3,0.1,0.5,0.1,0.6c0,0.5,0.1,0.9,0.3,1.1c0.2,0.2,0.5,0.4,0.9,0.4c0.1,0,0.3,0,0.4-0.1 c0.2,0,0.3-0.1,0.5-0.1l0.9,1.9c-0.9,0.5-1.7,0.9-2.3,1.1c-0.6,0.2-1,0.4-1.3,0.4c-0.8,0-1.4-0.2-1.9-0.5 c-0.5-0.4-0.9-0.9-1.1-1.6c0-0.2-0.1-0.3-0.2-0.5c-0.1-0.2-0.2-0.3-0.4-0.5c-0.1,0.1-0.3,0.3-0.5,0.5c-0.2,0.2-0.4,0.4-0.6,0.6 c-0.4,0.4-0.8,0.9-1.2,1.3c-0.4,0.4-0.8,0.8-1.3,1.3c-0.5,0.6-1.1,1-1.6,1.2c-0.5,0.2-1.1,0.4-1.5,0.4c-0.7,0-1.3-0.2-1.7-0.6 c-0.4-0.4-0.7-0.9-0.8-1.6c-0.1-0.7-0.2-1.2-0.3-1.6c0-0.4-0.1-0.6,0-0.7c0-0.4-0.1-0.7-0.1-0.9c-0.1-0.2-0.1-0.3-0.2-0.3 l-0.1,0.1l-1.3,1.2c0,0.1-0.1,0.2-0.2,0.4c-0.1,0.1-0.3,0.3-0.4,0.5c-0.1-0.2-0.2-0.4-0.3-0.7C142.6,24.6,142.4,24.3,142.2,23.8"></path> <path class="st0" d="M161.3,23.8c0.1-0.1,0.2-0.2,0.3-0.4c0.1-0.2,0.3-0.3,0.4-0.5c0.7-0.7,1.3-1.4,2-2c0.6-0.6,1.2-1.1,1.8-1.6 c0.3-0.2,0.6-0.6,1.1-0.9c0.4-0.4,0.9-0.8,1.4-1.3c0.6-0.2,1.2-0.4,1.8-0.6c0.4,0,0.7,0.1,0.9,0.4c0.2,0.2,0.3,0.6,0.3,1 c0,0.4,0,0.8-0.1,1.2c-0.1,0.4-0.2,0.9-0.3,1.3c-0.1,0.4-0.3,0.7-0.3,1.1c0,0.1,0,0.2,0.1,0.2c0,0,0.1,0.1,0.2,0.1 c0.2-0.1,0.7-0.4,1.3-1c0.7-0.6,1.5-1.4,2.6-2.4c0.9-0.9,1.7-1.6,2.4-2c0.7-0.4,1.2-0.7,1.7-0.7c0.4,0,0.8,0.1,1,0.4 c0.2,0.3,0.3,0.7,0.3,1.3c0,0.8-0.1,1.6-0.2,2.4c-0.1,0.8-0.4,1.5-0.7,2.2c-0.1,0.1-0.1,0.3-0.1,0.3c0,0.1,0,0.2,0,0.3 c0,0.1,0.1,0.2,0.3,0.3c0.1-0.1,0.3-0.2,0.4-0.4c0.2-0.2,0.3-0.4,0.6-0.7c0.4-0.3,0.7-0.5,1.1-0.8c0.4-0.3,0.7-0.5,1.1-0.8 c0.4-0.3,0.9-0.5,1.3-0.7c0.4-0.2,0.9-0.2,1.3-0.2c0.1,0,0.2,0,0.2,0.1c0.1,0,0.2,0.1,0.2,0.1c0.4,0.3,0.6,0.5,0.9,0.7 c0.2,0.2,0.4,0.4,0.5,0.6c0.6,1.1,1.1,1.9,1.6,2.4c0.5,0.5,0.9,0.8,1.2,0.8c0.1,0,0.2,0,0.2-0.1c0.1,0,0.2-0.1,0.2-0.1 c0.4,0.7,0.7,1.3,0.9,1.9c-0.5,0.4-1,0.7-1.5,0.9c-0.4,0.2-0.8,0.3-1.1,0.3c-1.1,0-2.1-0.6-3.3-1.8c-1.1-1.2-2-1.8-2.6-1.8 c-0.8,0-2.1,1-4,3.1c-1.9,2.1-3,3.1-3.5,3.1c-0.2,0-0.5,0-0.9-0.1c-0.1,0-0.2-0.1-0.3-0.3c-0.1-0.1-0.1-0.3-0.1-0.5 c0-0.2,0-0.5,0.1-0.8c0.1-0.3,0.2-0.7,0.4-1.2c0.2-0.6,0.4-1,0.5-1.4c0.1-0.3,0.2-0.6,0.2-0.7c0-0.2,0.1-0.5,0.2-1 c0.1-0.5,0.2-1.2,0.3-2c0-0.1,0-0.3-0.1-0.3c-0.1-0.1-0.2-0.1-0.3-0.1c-0.1,0-0.2,0-0.4,0.1c-0.1,0.1-0.3,0.2-0.4,0.3 c-0.2,0.2-0.4,0.3-0.6,0.5c-0.2,0.2-0.6,0.4-1.1,0.7c-0.5,0.5-1.1,1.1-1.6,1.6c-0.6,0.6-1.1,1.1-1.7,1.7c-0.9,0.9-1.6,1.6-2.2,2.1 c-0.5,0.5-0.9,0.7-1,0.7c-0.5,0-0.8,0-1-0.1c-0.2-0.1-0.4-0.2-0.4-0.4c0-0.4,0.3-1.4,0.8-2.8c0.5-1.4,0.8-2.4,0.8-3 c0-0.1,0-0.2-0.1-0.2c-0.1-0.1-0.2-0.1-0.3-0.1c-0.2,0-0.4,0.1-0.7,0.3c-0.3,0.2-0.5,0.5-0.9,0.9c-0.2,0.2-0.5,0.5-0.8,0.7 c-0.3,0.3-0.7,0.6-1.1,1c0,0.1-0.1,0.2-0.2,0.3c-0.1,0.1-0.2,0.2-0.3,0.3c-0.1-0.2-0.2-0.4-0.3-0.7 C161.7,24.6,161.5,24.3,161.3,23.8"></path> </g> <g> <path class="st0" d="M19.6,191.1l2.3-10.4h3.8l-4.1,15h-3.8l-3-11.2l-3,11.2H8l-4.1-15h3.8l2.3,10.4l2.8-10.4h4.1L19.6,191.1z"></path> <path class="st0" d="M41.9,188.2c0,1.1-0.2,2.1-0.5,3s-0.8,1.8-1.5,2.5c-0.7,0.7-1.5,1.3-2.4,1.7c-0.9,0.4-2,0.6-3.2,0.6 s-2.3-0.2-3.3-0.6s-1.8-1-2.4-1.7c-0.7-0.7-1.1-1.5-1.5-2.5c-0.3-0.9-0.5-1.9-0.5-3c0-1.1,0.2-2.1,0.5-3c0.3-0.9,0.8-1.8,1.5-2.5 c0.7-0.7,1.5-1.3,2.4-1.7c1-0.4,2-0.6,3.3-0.6s2.3,0.2,3.2,0.6c0.9,0.4,1.7,1,2.4,1.7s1.2,1.5,1.5,2.5S41.9,187.1,41.9,188.2z M34.3,193c0.6,0,1.2-0.1,1.7-0.4s0.9-0.6,1.2-1c0.3-0.4,0.6-0.9,0.8-1.5s0.2-1.2,0.2-1.9s-0.1-1.4-0.2-1.9s-0.4-1.1-0.8-1.5 c-0.3-0.4-0.8-0.8-1.2-1s-1.1-0.4-1.7-0.4c-0.7,0-1.2,0.1-1.7,0.4c-0.5,0.2-0.9,0.6-1.2,1c-0.3,0.4-0.6,0.9-0.8,1.5 c-0.2,0.6-0.2,1.2-0.2,1.9s0.1,1.4,0.2,1.9c0.2,0.6,0.4,1.1,0.8,1.5c0.3,0.4,0.8,0.8,1.2,1C33,192.9,33.6,193,34.3,193z"></path> <path class="st0" d="M55.4,185.4c0,1-0.3,1.9-0.8,2.6c-0.6,0.8-1.3,1.3-2.4,1.7l4.9,5.9h-4.5l-4.1-5.2h-0.7v5.2h-3.7v-15h4.8 c0.9,0,1.8,0.1,2.6,0.3s1.5,0.5,2.1,0.9c0.6,0.4,1,0.9,1.4,1.5C55.3,183.9,55.4,184.6,55.4,185.4z M51.9,185.5 c0-0.7-0.3-1.2-0.8-1.5c-0.5-0.3-1.3-0.5-2.2-0.5h-1.1v4.2h0.9c1,0,1.8-0.2,2.3-0.6C51.6,186.7,51.9,186.2,51.9,185.5z"></path> <path class="st0" d="M62.2,180.7v12.1h5.5v2.9h-9.2v-15H62.2z"></path> <path class="st0" d="M69.6,180.7h4.6c1.3,0,2.5,0.2,3.6,0.6c1.1,0.4,2,0.9,2.8,1.6s1.4,1.5,1.8,2.4c0.4,0.9,0.7,1.9,0.7,3 s-0.2,2.1-0.7,3c-0.4,0.9-1,1.7-1.8,2.4c-0.8,0.7-1.7,1.2-2.8,1.6s-2.3,0.6-3.6,0.6h-4.6V180.7z M74.4,192.7c0.8,0,1.4-0.1,2-0.3 c0.6-0.2,1.1-0.5,1.6-0.9c0.4-0.4,0.8-0.9,1-1.4c0.2-0.6,0.4-1.2,0.4-1.9c0-0.7-0.1-1.4-0.4-1.9c-0.2-0.6-0.6-1-1-1.4 c-0.4-0.4-1-0.7-1.6-0.9c-0.6-0.2-1.3-0.3-2-0.3h-1.1v9.1H74.4z"></path> <path class="st0" d="M84.6,185.4c0.5-0.9,0.8-1.9,1-2.8c0.2-0.9,0.4-1.9,0.4-2.9l3.4,0.3c0,1.3-0.3,2.5-0.7,3.6s-1.1,2.1-1.8,3 L84.6,185.4z"></path> <path class="st0" d="M101.5,191.2c0,0.7-0.1,1.3-0.4,1.9c-0.3,0.6-0.6,1.1-1.1,1.5c-0.5,0.4-1.1,0.8-1.8,1 c-0.7,0.2-1.5,0.4-2.4,0.4c-0.8,0-1.7-0.1-2.5-0.3c-0.8-0.2-1.6-0.4-2.3-0.8l0.7-2.8c0.5,0.3,1.1,0.5,1.8,0.7 c0.7,0.2,1.4,0.3,2.1,0.3c0.6,0,1.1-0.1,1.6-0.3c0.4-0.2,0.6-0.6,0.6-1.1c0-0.4-0.2-0.7-0.5-1c-0.4-0.3-1-0.6-1.9-1 c-1.5-0.6-2.5-1.2-3.2-1.9c-0.7-0.7-1-1.6-1-2.7c0-1.5,0.5-2.6,1.4-3.3s2.3-1.1,3.9-1.1c0.9,0,1.7,0.1,2.5,0.3 c0.8,0.2,1.4,0.4,2,0.7l-0.6,2.8c-0.5-0.3-1.1-0.5-1.7-0.6c-0.6-0.2-1.3-0.2-1.9-0.2c-0.6,0-1,0.1-1.3,0.3s-0.5,0.5-0.5,1 c0,0.2,0,0.4,0.1,0.5c0.1,0.2,0.2,0.3,0.3,0.4c0.2,0.1,0.4,0.3,0.7,0.4c0.3,0.1,0.6,0.3,1.1,0.5c0.6,0.3,1.2,0.5,1.8,0.8 c0.6,0.3,1,0.6,1.4,1c0.4,0.4,0.7,0.8,1,1.3C101.4,190,101.5,190.5,101.5,191.2z"></path> <path class="st0" d="M118.4,193.3h-3.6l-2.9-6l-0.5,8.4h-3.6l1.1-15h3.3l4.3,9.2l4.3-9.2h3.3l1.1,15h-3.6l-0.5-8.4L118.4,193.3z"></path> <path class="st0" d="M142.5,188.2c0,1.1-0.2,2.1-0.5,3s-0.8,1.8-1.5,2.5c-0.7,0.7-1.5,1.3-2.4,1.7c-0.9,0.4-2,0.6-3.2,0.6 s-2.3-0.2-3.3-0.6s-1.8-1-2.4-1.7c-0.7-0.7-1.1-1.5-1.5-2.5c-0.3-0.9-0.5-1.9-0.5-3c0-1.1,0.2-2.1,0.5-3c0.3-0.9,0.8-1.8,1.5-2.5 c0.7-0.7,1.5-1.3,2.4-1.7c1-0.4,2-0.6,3.3-0.6s2.3,0.2,3.2,0.6c0.9,0.4,1.7,1,2.4,1.7s1.2,1.5,1.5,2.5S142.5,187.1,142.5,188.2z M134.8,193c0.6,0,1.2-0.1,1.7-0.4s0.9-0.6,1.2-1c0.3-0.4,0.6-0.9,0.8-1.5s0.2-1.2,0.2-1.9s-0.1-1.4-0.2-1.9s-0.4-1.1-0.8-1.5 c-0.3-0.4-0.8-0.8-1.2-1s-1.1-0.4-1.7-0.4c-0.7,0-1.2,0.1-1.7,0.4c-0.5,0.2-0.9,0.6-1.2,1c-0.3,0.4-0.6,0.9-0.8,1.5 c-0.2,0.6-0.2,1.2-0.2,1.9s0.1,1.4,0.2,1.9c0.2,0.6,0.4,1.1,0.8,1.5c0.3,0.4,0.8,0.8,1.2,1C133.6,192.9,134.1,193,134.8,193z"></path> <path class="st0" d="M154.5,191.2c0,0.7-0.1,1.3-0.4,1.9c-0.3,0.6-0.6,1.1-1.1,1.5c-0.5,0.4-1.1,0.8-1.8,1 c-0.7,0.2-1.5,0.4-2.4,0.4c-0.8,0-1.7-0.1-2.5-0.3c-0.8-0.2-1.6-0.4-2.3-0.8l0.7-2.8c0.5,0.3,1.1,0.5,1.8,0.7 c0.7,0.2,1.4,0.3,2.1,0.3c0.6,0,1.1-0.1,1.6-0.3c0.4-0.2,0.6-0.6,0.6-1.1c0-0.4-0.2-0.7-0.5-1c-0.4-0.3-1-0.6-1.9-1 c-1.5-0.6-2.5-1.2-3.2-1.9c-0.7-0.7-1-1.6-1-2.7c0-1.5,0.5-2.6,1.4-3.3s2.3-1.1,3.9-1.1c0.9,0,1.7,0.1,2.5,0.3 c0.8,0.2,1.4,0.4,2,0.7l-0.6,2.8c-0.5-0.3-1.1-0.5-1.7-0.6c-0.6-0.2-1.3-0.2-1.9-0.2c-0.6,0-1,0.1-1.3,0.3s-0.5,0.5-0.5,1 c0,0.2,0,0.4,0.1,0.5c0.1,0.2,0.2,0.3,0.3,0.4c0.2,0.1,0.4,0.3,0.7,0.4c0.3,0.1,0.6,0.3,1.1,0.5c0.6,0.3,1.2,0.5,1.8,0.8 c0.6,0.3,1,0.6,1.4,1c0.4,0.4,0.7,0.8,1,1.3C154.4,190,154.5,190.5,154.5,191.2z"></path> <path class="st0" d="M167.2,180.7v2.9h-4v12.1h-3.7v-12.1h-4v-2.9H167.2z"></path> <path class="st0" d="M184.7,185.6c0,0.8-0.2,1.5-0.5,2.1s-0.8,1.2-1.4,1.6s-1.3,0.8-2.1,1c-0.8,0.2-1.7,0.3-2.7,0.3h-0.4v5.1h-3.7 v-15h4.3c0.9,0,1.8,0.1,2.6,0.3c0.8,0.2,1.5,0.5,2.1,0.9s1,0.9,1.4,1.5C184.5,184,184.7,184.7,184.7,185.6z M181.1,185.6 c0-1.4-1-2.1-2.9-2.1h-0.7v4.3h0.6c1,0,1.7-0.2,2.2-0.6C180.9,186.8,181.1,186.3,181.1,185.6z"></path> <path class="st0" d="M186.4,180.7h9.3v2.9h-5.6v3h5.4v2.9h-5.4v3.2h5.7v2.9h-9.4V180.7z"></path> <path class="st0" d="M209.6,185.4c0,1-0.3,1.9-0.8,2.6c-0.6,0.8-1.3,1.3-2.4,1.7l4.9,5.9h-4.5l-4.1-5.2H202v5.2h-3.7v-15h4.8 c0.9,0,1.8,0.1,2.6,0.3s1.5,0.5,2.1,0.9c0.6,0.4,1,0.9,1.4,1.5S209.6,184.6,209.6,185.4z M206.1,185.5c0-0.7-0.3-1.2-0.8-1.5 s-1.3-0.5-2.2-0.5H202v4.2h0.9c1,0,1.8-0.2,2.3-0.6S206.1,186.2,206.1,185.5z"></path> <path class="st0" d="M212.7,195.7v-15h9.4v2.9h-5.7v3.4h5.5v2.9h-5.5v5.7H212.7z"></path> <path class="st0" d="M224.3,180.7h9.3v2.9H228v3h5.4v2.9H228v3.2h5.7v2.9h-9.4V180.7z"></path> <path class="st0" d="M243.6,180.4c0.8,0,1.6,0.1,2.3,0.2c0.8,0.1,1.5,0.4,2,0.6l-0.5,2.7c-0.5-0.2-1-0.3-1.5-0.5 c-0.6-0.1-1.2-0.2-1.7-0.2c-1.5,0-2.7,0.4-3.6,1.2s-1.3,2-1.3,3.6c0,1.6,0.4,2.8,1.3,3.6s2.1,1.2,3.6,1.2c0.6,0,1.1-0.1,1.7-0.2 c0.6-0.1,1.1-0.3,1.5-0.5l0.5,2.7c-0.6,0.3-1.2,0.5-2,0.6c-0.8,0.1-1.6,0.2-2.3,0.2c-1.3,0-2.5-0.2-3.5-0.6 c-1-0.4-1.8-0.9-2.5-1.6c-0.7-0.7-1.2-1.5-1.5-2.5c-0.3-0.9-0.5-2-0.5-3.1s0.2-2.2,0.5-3.1c0.3-0.9,0.9-1.8,1.5-2.5 c0.7-0.7,1.5-1.2,2.5-1.6C241.1,180.6,242.3,180.4,243.6,180.4z"></path> <path class="st0" d="M260.9,180.7v2.9h-4v12.1h-3.7v-12.1h-4v-2.9H260.9z"></path> <path class="st0" d="M274.9,180.4c0.8,0,1.6,0.1,2.4,0.2c0.8,0.1,1.5,0.4,2,0.6l-0.5,2.7c-0.4-0.2-1-0.3-1.5-0.5 c-0.6-0.1-1.2-0.2-1.7-0.2c-1.5,0-2.7,0.4-3.6,1.2s-1.3,2-1.3,3.6c0,1.6,0.4,2.8,1.3,3.6s2.1,1.2,3.6,1.2c0.6,0,1.1-0.1,1.7-0.2 c0.6-0.1,1.1-0.3,1.5-0.5l0.5,2.7c-0.6,0.3-1.2,0.5-2,0.6s-1.6,0.2-2.4,0.2c-1.3,0-2.5-0.2-3.5-0.6c-1-0.4-1.8-0.9-2.5-1.6 c-0.7-0.7-1.2-1.5-1.5-2.5c-0.3-0.9-0.5-2-0.5-3.1s0.2-2.2,0.5-3.1c0.3-0.9,0.9-1.8,1.5-2.5c0.7-0.7,1.5-1.2,2.5-1.6 C272.4,180.6,273.6,180.4,274.9,180.4z"></path> <path class="st0" d="M290.8,195.7v-6.1h-5.5v6.1h-3.7v-15h3.7v5.9h5.5v-5.9h3.7v15H290.8z"></path> <path class="st0" d="M297.5,180.7h9.3v2.9h-5.6v3h5.4v2.9h-5.4v3.2h5.7v2.9h-9.4V180.7z"></path> <path class="st0" d="M324,191.1l2.3-10.4h3.8l-4.1,15h-3.8l-3-11.2l-3,11.2h-3.8l-4.1-15h3.8l2.3,10.4l2.8-10.4h4.1L324,191.1z"></path> </g> </g> </svg> 