<?xml version="1.0" encoding="UTF-8"?> <!-- Generator: Adobe Illustrator 19.2.1, SVG Export Plug-In . SVG Version: 6.00 Build 0) --> <svg xmlns="http://www.w3.org/2000/svg" xmlns:xlink="http://www.w3.org/1999/xlink" id="Layer_1" x="0px" y="0px" viewBox="0 0 281 52.2" style="enable-background:new 0 0 281 52.2;" xml:space="preserve"> <style type="text/css"> .st0{fill-rule:evenodd;clip-rule:evenodd;fill:#3B3B3C;} .st1{fill-rule:evenodd;clip-rule:evenodd;fill:#FFFFFF;} .st2{fill:#3B3B3C;} </style> <g> <path class="st0" d="M275.9,16.4h-45.6c-1.6-3.4-4.8-5.7-8.4-5.7c-0.5,0-0.9,0-1.4,0.1c0.1-0.4,0.1-0.8,0.1-1.2 c0-5.3-4.9-9.6-10.9-9.6c-6,0-10.9,4.3-10.9,9.6c0,0.5,0,0.9,0.1,1.4c-0.7-0.2-1.4-0.3-2.1-0.3c-5.3,0-9.6,4.9-9.6,10.9 c0,6,4.3,10.9,9.6,10.9c0.7,0,1.4-0.1,2.1-0.3c-0.1,0.5-0.1,0.9-0.1,1.4c0,5.3,4.9,9.6,10.9,9.6c6,0,10.9-4.3,10.9-9.6 c0-0.4,0-0.8-0.1-1.2c0.4,0.1,0.9,0.1,1.4,0.1c4,0,7.4-2.7,8.8-6.6h23.1c1.4,0,2.5,1.1,2.5,2.5c0,1.4-1.1,2.5-2.5,2.5h-2.6v12.8 h9.5V33.6c0-1.4,1.1-2.5,2.5-2.5c1.4,0,2.5,1.1,2.5,2.5v10.2h9.4V30.9h-2c-1.4,0-2.5-1.1-2.5-2.5c0-1.4,1.1-2.5,2.5-2.5h2.8 c2.6,0,4.7-2.1,4.7-4.7C280.6,18.5,278.5,16.4,275.9,16.4L275.9,16.4z"></path> <path class="st1" d="M217.2,17.8c-1.1,0-2.1,0.4-2.8,1.1l-2.2-2.2c0.7-0.7,1.2-1.8,1.2-2.9c0-2.3-1.9-4.1-4.1-4.1 c-2.3,0-4.1,1.9-4.1,4.1c0,1.1,0.5,2.1,1.2,2.9l-2.2,2.2c-0.7-0.6-1.7-1-2.7-1c-2.3,0-4.1,1.9-4.1,4.1c0,2.3,1.9,4.1,4.1,4.1 c1.1,0,2.1-0.5,2.9-1.2l1.9,1.9c-0.7,0.7-1.1,1.7-1.1,2.8c0,2.3,1.9,4.1,4.1,4.1c2.3,0,4.1-1.9,4.1-4.1c0-1.1-0.4-2.1-1.1-2.8l2-2 c0.8,0.8,1.8,1.3,3,1.3c2.3,0,4.1-1.9,4.1-4.1C221.4,19.6,219.5,17.8,217.2,17.8L217.2,17.8z"></path> <path class="st0" d="M277.9,42c0-0.4-0.4-0.5-0.7-0.5c-0.2,0-0.6,0.1-0.6,0.5c0,0.2,0.2,0.3,0.3,0.3l0.8,0.2 c0.3,0.1,0.6,0.3,0.6,0.7c0,0.6-0.6,0.8-1,0.8c-0.5,0-0.7-0.1-0.8-0.3c-0.2-0.2-0.3-0.4-0.3-0.7h0.3c0,0.5,0.4,0.6,0.7,0.6 c0.3,0,0.7-0.1,0.7-0.4c0-0.3-0.1-0.4-0.6-0.5l-0.5-0.1c-0.2,0-0.6-0.2-0.6-0.6c0-0.4,0.3-0.8,0.9-0.8c0.9,0,1,0.6,1,0.8H277.9 L277.9,42z"></path> <path class="st0" d="M280.7,43.8v-1.6c0-0.1,0-0.4,0-0.7h0l-0.7,2.2h-0.4l-0.7-2.2h0c0,0.2,0,0.6,0,0.7v1.6h-0.3v-2.7h0.5l0.8,2.2 h0l0.8-2.2h0.5v2.7H280.7L280.7,43.8z"></path> </g> <g> <path class="st2" d="M6.9,42.4H0v-33h6.9v13.4L19.5,9.3h8.9L15,22.8l14.3,19.5h-8.9L10.1,27.9l-3.2,3.3V42.4z"></path> <path class="st2" d="M48.9,35.2c-1.7,5.9-6.6,7.8-10.8,7.8c-6.9,0-12.2-3.3-12.2-13.4c0-2.9,1-12.4,11.7-12.4 c4.8,0,11.5,2.3,11.5,13.5v1.2H32.3c0.2,1.8,0.6,6,5.8,6c1.8,0,3.6-0.9,4.1-2.7H48.9z M42.5,27.7c-0.4-4-2.9-5.2-5-5.2 c-3,0-4.6,1.9-5,5.2H42.5z"></path> <path class="st2" d="M64.3,41.9c-3,9.1-3.9,10.3-9.5,10.3c-0.9,0-2,0-2.9-0.1V47c0.3,0,0.7,0.1,1.2,0.1c2.3,0,3.6-0.3,4.2-3.7 l-9-25.5h7.2l5.2,18h0.1l5-18h6.8L64.3,41.9z"></path> <path class="st2" d="M77,9.3H93c8.1,0,10.2,5.1,10.2,8.5c0,4.7-2.7,6.1-4,6.8c4,1.5,5.1,4.7,5.1,8c0,2.6-1.1,5.1-2.9,6.8 c-1.9,1.8-3.7,3-10.4,3H77V9.3z M83.6,22.2h8.1c2.7,0,4.9-1.1,4.9-3.7c0-2.7-1.9-3.5-5.1-3.5h-7.9V22.2z M83.6,36.6H92 c3.4,0,5.3-1.5,5.3-4.8c0-2.9-2.5-4-5-4h-8.8V36.6z"></path> <path class="st2" d="M126.7,37.6c0,2.9,0.6,3.5,1.4,3.8v1h-6.9c-0.4-1.2-0.5-1.5-0.6-2.9c-1.5,1.5-3.5,3.5-7.9,3.5 c-3.7,0-7.5-2.1-7.5-7.1c0-4.8,3-7.2,7.1-7.8l5.8-0.9c1-0.1,2.3-0.6,2.3-1.9c0-2.7-2.6-2.9-4.2-2.9c-3.2,0-3.8,2-4,3.4H106 c0.7-7.5,5.9-8.6,10.9-8.6c3.5,0,9.8,1.1,9.8,7.1V37.6z M120.4,30.4c-0.6,0.5-1.7,0.9-4.4,1.3c-2.4,0.4-4.4,1-4.4,3.7 c0,2.3,1.7,2.9,3,2.9c2.9,0,5.8-1.8,5.8-4.8V30.4z"></path> <path class="st2" d="M152.8,42.4h-6.4V27.5c0-1.8-0.1-4.8-4.2-4.8c-2.9,0-5.1,1.9-5.1,5.7v14h-6.4V17.9h6.2v3.6h0.1 c0.9-1.5,2.7-4.2,7.4-4.2c4.8,0,8.5,2.8,8.5,8.2V42.4z"></path> <path class="st2" d="M163.5,42.4h-6.4v-33h6.4v17.9l8.1-9.3h7.9l-8.6,9.5l8.9,15H172l-5.8-10.5l-2.7,2.8V42.4z"></path> </g> </svg> 