<?xml version="1.0" encoding="UTF-8"?> <!-- Generator: Adobe Illustrator 22.0.1, SVG Export Plug-In . SVG Version: 6.00 Build 0) --> <svg xmlns="http://www.w3.org/2000/svg" xmlns:xlink="http://www.w3.org/1999/xlink" id="Layer_1" x="0px" y="0px" viewBox="0 0 565.8 116.6" style="enable-background:new 0 0 565.8 116.6;" xml:space="preserve"> <style type="text/css"> .st0{fill:#383838;} </style> <g> <g> <path class="st0" d="M32.3,86.1c-0.7-6-3.4-8.7-9.8-12.4c-10.7-6.1-9.1-13.6-9.1-13.6c0-4.5,3.8-7.6,10.5-13.4 c2.3-2,3.8-4.2,4.9-6.4l1.4-3.9c0.7-2.5,0.8-4.5,0.8-5V0c0.1-0.2-0.4,0.5-0.4,0.5c0,1.6-0.3,4.3-1.6,9c-2.5,9.1-13.3,16.2-16,19.4 c-5.8,7-9,13.7-7.4,25.3C6.4,59.7,9.3,67,15.1,71c3.6,2.4,11.6,6.2,13.1,7.8c1.5,1.6,2.5,5.8,1.8,4.2c-0.7-1.6-3.1-5.8-12.7-8.9 C7.6,71,4.7,63,2.5,55.2c-2.2-7.8-1.5-17.8-1.5-17.8l-0.5,0.4c0,0-0.6,28.6-0.6,31.5c0,2.9,0.5,8.7,3.1,13.5 c6.3,11.7,11.3,10,20,13.1c7.7,2.7,7.8,7.1,8.4,9.8c0.5,2.7,0.5,10.9,0.5,10.9l0.9-0.8V96.4C32.9,94.3,33.1,92.1,32.3,86.1"></path> <polygon class="st0" points="61.8,37.3 38.1,37.3 38.1,7.8 36,9.9 36,37.3 14.3,37.3 12.3,39.4 36,39.4 36,110.3 38.1,108.3 38.1,39.4 59.9,39.4 "></polygon> <path class="st0" d="M49.4,107.8c-1.6,0-2.8-1.2-2.8-2.8c0-1.6,1.2-2.8,2.8-2.8c1.5,0,2.7,1.2,2.7,2.8 C52.1,106.6,50.9,107.8,49.4,107.8 M49.4,108.4c1.8,0,3.4-1.5,3.4-3.4c0-1.9-1.5-3.4-3.4-3.4c-1.9,0-3.4,1.5-3.4,3.4 C46,106.9,47.5,108.4,49.4,108.4 M48.7,103.6h0.8c0.6,0,0.9,0.2,0.9,0.6c0,0.5-0.3,0.6-1,0.6h-0.7V103.6z M48.7,105.3h0.6l1,1.7 h0.7l-1.1-1.7c0.5-0.1,1-0.4,1-1.1c0-0.7-0.5-1.1-1.4-1.1h-1.5v3.9h0.6V105.3z"></path> </g> <g> <path class="st0" d="M97,20.1v25.2c0,3.5,1,6.5,5,6.5c4,0,5-3,5-6.5V20.1h3.7v25.3c0,5.5-2.6,9.5-8.8,9.5c-6.2,0-8.8-4-8.8-9.5 V20.1H97z"></path> <path class="st0" d="M118.5,29.7h3.2v2.7c1.6-1.7,4-3.2,5.6-3.2c3.4,0,5.4,1.9,5.4,6.5v18.7h-3.4V36.2c0-2.9-0.9-4.1-2.7-4.1 c-1.7,0-3.2,1.1-4.7,3v19.3h-3.4V29.7z"></path> <path class="st0" d="M141,20.1h3.4v4H141V20.1z M141,29.7h3.4v24.7H141V29.7z"></path> <path class="st0" d="M149.5,29.7h3.3v-8.3h3.4v8.3h4.6v2.9h-4.6v17.3c0,1.4,0.8,2.5,2.5,2.5c0.7,0,1.5-0.3,2.1-0.5v2.6 c-1,0.3-1.8,0.5-3.2,0.5c-3.2,0-4.8-1.5-4.8-5.3v-17h-3.3V29.7z"></path> <path class="st0" d="M168.7,42.6V44c0,6,1.4,8,4.6,8c2.6,0,3.7-2.4,4.1-4.7l3.2,0.4c-0.5,3.7-3.3,7.1-7.8,7.1 c-5.2,0-7.6-3.9-7.6-12.8s2.4-12.8,7.6-12.8c5.2,0,7.6,4.7,7.6,11.8v1.6H168.7z M176.9,39.8c-0.1-5.3-1-7.7-4.1-7.7 c-2.5,0-4.1,1.8-4.1,7.7H176.9z"></path> <path class="st0" d="M197.9,52.1L197.9,52.1c-1.3,1.8-3,2.9-5.2,2.9c-3.9,0-7.1-3.3-7.1-12.8c0-9.5,3.2-12.8,7.1-12.8 c1.9,0,3.4,1.1,4.6,2.3V20.1h3.4v27.7c0,3.2,0.2,5.2,0.6,6.7H198L197.9,52.1z M197.3,34.3c-1-1-2.2-2.2-3.7-2.2 c-2.9,0-4.6,2.4-4.6,10c0,7.6,1.8,10,4.7,10c1,0,2.6-1,3.6-2.4V34.3z"></path> <path class="st0" d="M225.9,20.1l6,26h0.1l5.9-26h5.9v34.3h-3.4V22.9h-0.1l-7.1,31.5h-2.4l-7.1-31.5h-0.1v31.5H220V20.1H225.9z"></path> <path class="st0" d="M252.7,42.6V44c0,6,1.4,8,4.6,8c2.6,0,3.7-2.4,4.1-4.7l3.2,0.4c-0.5,3.7-3.3,7.1-7.8,7.1 c-5.2,0-7.6-3.9-7.6-12.8s2.4-12.8,7.6-12.8c5.2,0,7.6,4.7,7.6,11.8v1.6H252.7z M260.9,39.8c-0.1-5.3-1-7.7-4.1-7.7 c-2.5,0-4.1,1.8-4.1,7.7H260.9z"></path> <path class="st0" d="M267.7,29.7h3.3v-8.3h3.4v8.3h4.6v2.9h-4.6v17.3c0,1.4,0.8,2.5,2.5,2.5c0.7,0,1.5-0.3,2.1-0.5v2.6 c-1,0.3-1.8,0.5-3.2,0.5c-3.2,0-4.8-1.5-4.8-5.3v-17h-3.3V29.7z"></path> <path class="st0" d="M285.1,20.1h3.4v12.3c1.4-1.7,3.8-3.2,5.4-3.2c3.4,0,5.4,1.9,5.4,6.5v18.7H296V36.2c0-2.9-0.9-4.1-2.7-4.1 c-1.7,0-3.2,1.1-4.7,3v19.3h-3.4V20.1z"></path> <path class="st0" d="M313.2,29.2c5.2,0,7.6,3.9,7.6,12.8s-2.4,12.8-7.6,12.8c-5.2,0-7.6-3.9-7.6-12.8S308,29.2,313.2,29.2z M313.2,52.1c2.9,0,4.1-1.8,4.1-10s-1.2-10-4.1-10c-2.9,0-4.1,1.8-4.1,10S310.3,52.1,313.2,52.1z"></path> <path class="st0" d="M338.3,52.1L338.3,52.1c-1.3,1.8-3,2.9-5.2,2.9c-3.9,0-7.1-3.3-7.1-12.8c0-9.5,3.2-12.8,7.1-12.8 c1.9,0,3.4,1.1,4.6,2.3V20.1h3.4v27.7c0,3.2,0.2,5.2,0.6,6.7h-3.2L338.3,52.1z M337.7,34.3c-1-1-2.2-2.2-3.7-2.2 c-2.9,0-4.6,2.4-4.6,10c0,7.6,1.8,10,4.7,10c1,0,2.6-1,3.6-2.4V34.3z"></path> <path class="st0" d="M349.6,20.1h3.4v4h-3.4V20.1z M349.6,29.7h3.4v24.7h-3.4V29.7z"></path> <path class="st0" d="M370.8,36c-0.6-2.1-1.5-3.9-4.3-3.9c-1.6,0-2.8,1.3-2.8,3c0,5,10.5,5.3,10.5,13c0,3.9-2.9,6.9-6.8,6.9 c-4.5,0-6.7-2.4-7.9-6.6l3.1-0.7c0.7,2.2,2,4.4,4.5,4.4c1.9,0,3.6-1.7,3.6-3.8c0-5.7-10.5-5.8-10.5-13.1c0-3.2,2.7-6,6.4-6 c3.8,0,6.1,2.2,6.9,5.9L370.8,36z"></path> <path class="st0" d="M377.8,29.7h3.3v-8.3h3.4v8.3h4.6v2.9h-4.6v17.3c0,1.4,0.8,2.5,2.5,2.5c0.7,0,1.5-0.3,2.1-0.5v2.6 c-1,0.3-1.8,0.5-3.2,0.5c-3.2,0-4.8-1.5-4.8-5.3v-17h-3.3V29.7z"></path> <path class="st0" d="M420.8,30.5c-0.5-5.4-2.2-7.7-5.1-7.7c-4.3,0-6.2,3.8-6.2,14.5s1.9,14.5,6.2,14.5c3.5,0,5.5-2.4,5.6-8.8h3.7 c-0.1,7.6-3.4,11.9-9.3,11.9c-6.1,0-9.9-4.7-9.9-17.6s3.8-17.6,9.9-17.6c5.1,0,8.2,3.5,8.8,10.8H420.8z"></path> <path class="st0" d="M432,20.1h3.4v12.3c1.4-1.7,3.8-3.2,5.4-3.2c3.4,0,5.4,1.9,5.4,6.5v18.7h-3.4V36.2c0-2.9-0.9-4.1-2.7-4.1 c-1.7,0-3.2,1.1-4.7,3v19.3H432V20.1z"></path> <path class="st0" d="M468.6,54.4h-3.2v-2.7c-1.6,1.7-4,3.2-5.6,3.2c-3.4,0-5.4-1.9-5.4-6.5V29.7h3.4V48c0,2.9,0.9,4.1,2.7,4.1 c1.7,0,3.2-1.1,4.7-3V29.7h3.4V54.4z"></path> <path class="st0" d="M476.3,29.7h3.4v3h0.1c2-3,3.6-3.5,6.3-3.5v3.2c-2.6,0-4.5,0.9-6.4,4.4v17.6h-3.4V29.7z"></path> <path class="st0" d="M500.7,37c-0.3-3.7-1.8-4.9-3.9-4.9c-2.9,0-4.1,1.8-4.1,10s1.2,10,4.1,10c2.2,0,3.4-1.1,4-5.4h3.3 c-0.6,4.9-2.9,8.3-7.3,8.3c-5.2,0-7.6-3.9-7.6-12.8s2.4-12.8,7.6-12.8c4.5,0,6.6,2.9,7.2,7.8H500.7z"></path> <path class="st0" d="M510.7,20.1h3.4v12.3c1.4-1.7,3.8-3.2,5.4-3.2c3.4,0,5.4,1.9,5.4,6.5v18.7h-3.4V36.2c0-2.9-0.9-4.1-2.7-4.1 c-1.7,0-3.2,1.1-4.7,3v19.3h-3.4V20.1z"></path> <path class="st0" d="M534.7,42.6V44c0,6,1.4,8,4.6,8c2.6,0,3.7-2.4,4.1-4.7l3.2,0.4c-0.5,3.7-3.3,7.1-7.8,7.1 c-5.2,0-7.6-3.9-7.6-12.8s2.4-12.8,7.6-12.8c5.2,0,7.6,4.7,7.6,11.8v1.6H534.7z M543,39.8c-0.1-5.3-1-7.7-4.1-7.7 c-2.5,0-4.1,1.8-4.1,7.7H543z"></path> <path class="st0" d="M562.3,36c-0.6-2.1-1.5-3.9-4.3-3.9c-1.6,0-2.8,1.3-2.8,3c0,5,10.5,5.3,10.5,13c0,3.9-2.9,6.9-6.8,6.9 c-4.5,0-6.7-2.4-7.9-6.6l3.1-0.7c0.7,2.2,2,4.4,4.5,4.4c1.9,0,3.6-1.7,3.6-3.8c0-5.7-10.5-5.8-10.5-13.1c0-3.2,2.7-6,6.4-6 c3.8,0,6.1,2.2,6.9,5.9L562.3,36z"></path> <path class="st0" d="M92.4,89.9c0-5.6,2.2-9.5,8.3-9.5c6.1,0,8.3,3.9,8.3,9.5v7.5c0,5.6-2.2,9.5-8.3,9.5c-6.1,0-8.3-3.9-8.3-9.5 V89.9z M103.6,88.9c0-3-1-4.2-2.9-4.2s-2.9,1.2-2.9,4.2v9.4c0,2.9,1,4.2,2.9,4.2s2.9-1.2,2.9-4.2V88.9z"></path> <path class="st0" d="M116,85.2h-3.1v-4.4h3.1v-3.2c0-4.1,2.2-6,5.9-6h2.7V76h-1.5c-1.3,0-1.8,0.5-1.8,1.7v3.1h3v4.4h-3v21.2H116 V85.2z"></path> <path class="st0" d="M142.1,106.4V72.1h5.9v34.3H142.1z"></path> <path class="st0" d="M155.4,106.4V80.8h5v2.6c2.2-1.9,3.4-3,6.5-3c2.8,0,4.5,2,4.5,5.4v20.7h-5.3V86.6c0-1.3-0.8-1.9-1.9-1.9 c-1.1,0-2.2,0.7-3.4,1.6v20.1H155.4z"></path> <path class="st0" d="M188.6,106.4v-2.7h-0.1c-1.8,2.2-3,3.1-5.7,3.1c-3.3,0-5.4-2.5-5.4-7.1V87.5c0-4.7,2.1-7.1,5.4-7.1 c2.3,0,3.4,1,5.5,2.7V72.1h5.3v34.3H188.6z M188.3,86.1c-1-0.8-2-1.3-3-1.3c-1.4,0-2.6,0.8-2.6,4.1v9.5c0,3.4,1.1,4.1,2.6,4.1 c1,0,2-0.6,3-1.3V86.1z"></path> <path class="st0" d="M200,76.9v-4.9h5.3v4.9H200z M200,106.4V80.8h5.3v25.6H200z"></path> <path class="st0" d="M211,88.4c0.3-5.2,3.6-8,8.6-8c4.9,0,7.8,2.3,7.8,6.9v16.4c0,0.8,0.2,1.9,0.3,2.7h-5.1c0-0.7-0.2-1.4-0.3-2 c-2,1.6-3.7,2.5-6.2,2.5c-3.6,0-5.4-2.5-5.4-5.8c0-5.6,3.7-8.7,11.4-11.6V88c0-2.1-0.9-3.3-2.6-3.3c-2.4,0-2.9,1.4-3,3.6H211z M222,93.4c-4.9,2.8-6,4.5-6,6.8c0,1.7,0.9,2.3,2.5,2.3c1.5,0,2.7-1.1,3.6-2.4V93.4z"></path> <path class="st0" d="M233.9,106.4V80.8h5v2.6c2.2-1.9,3.4-3,6.5-3c2.8,0,4.5,2,4.5,5.4v20.7h-5.3V86.6c0-1.3-0.8-1.9-1.9-1.9 c-1.1,0-2.2,0.7-3.4,1.6v20.1H233.9z"></path> <path class="st0" d="M255.6,88.4c0.3-5.2,3.6-8,8.6-8c4.9,0,7.8,2.3,7.8,6.9v16.4c0,0.8,0.2,1.9,0.3,2.7h-5.1c0-0.7-0.2-1.4-0.3-2 c-2,1.6-3.7,2.5-6.2,2.5c-3.6,0-5.4-2.5-5.4-5.8c0-5.6,3.7-8.7,11.4-11.6V88c0-2.1-0.9-3.3-2.6-3.3c-2.4,0-2.9,1.4-3,3.6H255.6z M266.6,93.4c-4.9,2.8-6,4.5-6,6.8c0,1.7,0.9,2.3,2.5,2.3c1.5,0,2.7-1.1,3.6-2.4V93.4z"></path> </g> </g> </svg> 