<?xml version="1.0" encoding="UTF-8"?> <!-- Generator: Adobe Illustrator 22.0.1, SVG Export Plug-In . SVG Version: 6.00 Build 0) --> <svg xmlns="http://www.w3.org/2000/svg" xmlns:xlink="http://www.w3.org/1999/xlink" id="Layer_1" x="0px" y="0px" viewBox="0 0 485.8 68.1" style="enable-background:new 0 0 485.8 68.1;" xml:space="preserve"> <style type="text/css"> .st0{fill:#383838;} </style> <g> <polygon class="st0" points="56,0 37.3,18.6 37.3,30.6 49.3,30.6 67.9,11.9 67.9,0 "></polygon> <polygon class="st0" points="11.9,68.1 30.6,49.5 30.6,37.6 18.6,37.6 0,56.2 0,68.1 "></polygon> <polygon class="st0" points="11.9,0 30.6,18.6 30.6,30.6 18.6,30.6 0,11.9 0,0 "></polygon> <polygon class="st0" points="56,68.1 37.3,49.5 37.3,37.6 49.3,37.6 67.9,56.2 67.9,68.1 "></polygon> </g> <g> <path class="st0" d="M103.4,55.7H85.6v-41h17.7c7.3,0,11.8,4.4,11.8,11c0,3.1-1.6,6.5-5.1,8.3c4.4,1.5,6.3,5.4,6.3,9.6 C116.1,50.4,111.2,55.7,103.4,55.7z M90.6,31.9h12.8c3.1,0,6.6-1.7,6.6-6.2c0-4.4-2.7-6.2-6.7-6.2H90.6V31.9z M103.4,36.6H90.6 v14.2c3.5,0,13,0,13,0c4.4,0,7.5-2.7,7.5-7.1C111.1,38.7,108,36.6,103.4,36.6z"></path> <path class="st0" d="M128,20.6h-5v-6h5V20.6z M128,55.7h-5V25.2h5V55.7z"></path> <path class="st0" d="M165,40.5c0,8.7-6.6,15.8-15.3,15.8c-8.6,0-15.3-7.1-15.3-15.8c0-8.9,6.7-16.1,15.3-16.1 C158.4,24.5,165,31.7,165,40.5z M160,40.5c0-6.3-4.6-11.5-10.3-11.5c-5.6,0-10.2,5.1-10.2,11.5c0,6.2,4.6,11.2,10.2,11.2 C155.4,51.8,160,46.7,160,40.5z"></path> <path class="st0" d="M190.9,56.4c-11.2,0-20.3-9.6-20.3-21.4c0-11.8,9.1-21.3,20.3-21.3c9.3,0,16.2,5.6,18.8,13.6h-5.3 c-2.2-5.1-6.9-8.9-13.5-8.9c-8.4,0-15.4,7.5-15.4,16.5s6.9,16.5,15.4,16.5c6,0,11-3.4,13.5-8.9h5.3C206.9,51,199.7,56.4,190.9,56.4 z"></path> <path class="st0" d="M230.2,29.5c-5.3-0.3-9.7,2.5-9.7,8.6v17.6h-5V25.2h4.8v3.4c2.3-3.2,6.4-4.5,9.9-4.1V29.5z"></path> <path class="st0" d="M264.2,40.5c0,8.7-6.6,15.8-15.3,15.8c-8.6,0-15.3-7.1-15.3-15.8c0-8.9,6.7-16.1,15.3-16.1 C257.6,24.5,264.2,31.7,264.2,40.5z M259.2,40.5c0-6.3-4.6-11.5-10.3-11.5c-5.6,0-10.2,5.1-10.2,11.5c0,6.2,4.6,11.2,10.2,11.2 C254.6,51.8,259.2,46.7,259.2,40.5z"></path> <path class="st0" d="M281.8,56.4c-7.4,0-12.8-4-13.6-10.4h5.1c0.6,3.5,4.1,5.7,8.5,5.7c4.7,0,7.6-2.3,7.6-5c0-2.1-0.8-3.7-8.3-4.7 c-7.4-1.1-11.9-2.8-11.9-8.6c0-4.4,3.8-9,11.9-9c7,0,11.8,3.5,12.4,9.5h-5.1c-0.7-3.2-3.6-4.9-7.3-4.9c-4,0-6.9,1.9-6.9,4.3 c0,2.2,1.7,3,7.7,3.9c6.7,1.1,12.3,2.4,12.3,9.3C294.2,52.6,289,56.4,281.8,56.4z"></path> <path class="st0" d="M311.5,56.4c-7.4,0-12.8-4-13.6-10.4h5.1c0.7,3.5,4.1,5.7,8.5,5.7c4.7,0,7.6-2.3,7.6-5c0-2.1-0.8-3.7-8.3-4.7 c-7.4-1.1-11.9-2.8-11.9-8.6c0-4.4,3.8-9,11.9-9c7,0,11.8,3.5,12.4,9.5h-5.1c-0.7-3.2-3.6-4.9-7.3-4.9c-4,0-6.9,1.9-6.9,4.3 c0,2.2,1.7,3,7.7,3.9c6.7,1.1,12.3,2.4,12.3,9.3C323.9,52.6,318.7,56.4,311.5,56.4z"></path> <path class="st0" d="M344.9,29.5c-5.3-0.3-9.7,2.5-9.7,8.6v17.6h-5V25.2h4.8v3.4c2.3-3.2,6.4-4.5,9.9-4.1V29.5z"></path> <path class="st0" d="M377.8,40.5c0,8.7-6.6,15.8-15.3,15.8c-8.6,0-15.3-7.1-15.3-15.8c0-8.9,6.7-16.1,15.3-16.1 C371.2,24.5,377.8,31.7,377.8,40.5z M372.8,40.5c0-6.3-4.6-11.5-10.3-11.5c-5.6,0-10.2,5.1-10.2,11.5c0,6.2,4.6,11.2,10.2,11.2 C368.2,51.8,372.8,46.7,372.8,40.5z"></path> <path class="st0" d="M404.4,52.2c-2.2,2.7-5.7,4.2-10.5,4.2c-6.3,0-11.9-2.8-11.9-9.4c0-6.3,4.5-9.1,12.4-9.5 c7.4-0.4,9.9-1.7,9.9-4.1c0-2.4-2.3-4.3-7.4-4.3c-3.2,0-7.4,1-7.9,5.4h-5.2c0.4-6.1,5.4-10,13.2-10c8.2,0,12.3,3.8,12.3,9.5v16.8 c0,1.5,0.4,3.8,0.9,5h-5C404.8,54.8,404.5,53.6,404.4,52.2z M404.4,39.3c-2,1.8-5.6,2.2-9.2,2.4c-6.6,0.4-8.1,2.7-8.1,5.3 c0,3.3,3.2,4.7,7.1,4.7c5.2,0,10.1-2.2,10.2-7.7V39.3z"></path> <path class="st0" d="M445.1,55.7h-4.8v-4.9c-2.1,3.1-6,5.7-10.5,5.7c-8.7,0-15.2-7.1-15.2-16c0-8.8,6.5-16,15.2-16 c4.4,0,8.2,2.4,10.3,5.4V11.7h5V55.7z M429.8,29.1c-5.7,0-10.2,5.1-10.2,11.4c0,6.2,4.5,11.3,10.2,11.3c5.6,0,10.3-5.1,10.3-11.3 C440.1,34.2,435.4,29.1,429.8,29.1z"></path> <path class="st0" d="M464.9,56.4c-7.4,0-12.8-4-13.6-10.4h5.1c0.7,3.5,4.1,5.7,8.5,5.7c4.7,0,7.6-2.3,7.6-5c0-2.1-0.8-3.7-8.3-4.7 c-7.4-1.1-11.9-2.8-11.9-8.6c0-4.4,3.8-9,11.9-9c7,0,11.8,3.5,12.4,9.5h-5.1c-0.7-3.2-3.6-4.9-7.3-4.9c-4,0-6.9,1.9-6.9,4.3 c0,2.2,1.7,3,7.7,3.9c6.7,1.1,12.3,2.4,12.3,9.3C477.3,52.6,472.1,56.4,464.9,56.4z"></path> </g> <g> <path class="st0" d="M479.9,23.2c-3.3,0-5.9-2.7-5.9-5.9c0-3.2,2.6-5.9,5.9-5.9c3.3,0,5.9,2.7,5.9,5.9 C485.8,20.5,483.2,23.2,479.9,23.2z M479.9,12c-3,0-5.3,2.4-5.3,5.3c0,2.9,2.3,5.3,5.3,5.3c3,0,5.3-2.4,5.3-5.3 C485.2,14.4,482.9,12,479.9,12z M481.2,17.9l1.7,2.3h-1.4l-1.5-2.1h-1.3v2.1h-1.2v-6.2h2.8c1.4,0,2.4,0.7,2.4,2 C482.6,17,482,17.7,481.2,17.9z M480.2,15.1h-1.5v2h1.5c0.8,0,1.2-0.4,1.2-1C481.4,15.5,481,15.1,480.2,15.1z"></path> </g> </svg> 