<?xml version="1.0" encoding="UTF-8"?> <!-- Generator: Adobe Illustrator 22.0.1, SVG Export Plug-In . SVG Version: 6.00 Build 0) --> <svg xmlns="http://www.w3.org/2000/svg" xmlns:xlink="http://www.w3.org/1999/xlink" id="Layer_1" x="0px" y="0px" viewBox="0 0 454.8 191.4" style="enable-background:new 0 0 454.8 191.4;" xml:space="preserve"> <style type="text/css"> .st0{fill:#383839;} </style> <g> <g> <g> <path class="st0" d="M174,72.8l22.3,47.8h-5.2l-7.5-15.7H163l-7.5,15.7h-5.3l22.6-47.8H174z M173.4,83l-8.2,17.3h16.4L173.4,83z"></path> <path class="st0" d="M228.7,85.3h4.6v28.2c0,5-0.4,8.6-1.3,10.9c-1.2,3.3-3.3,5.8-6.2,7.5c-2.9,1.8-6.5,2.6-10.6,2.6 c-3,0-5.8-0.4-8.2-1.3c-2.4-0.9-4.4-2-5.9-3.5c-1.5-1.4-2.9-3.6-4.2-6.3h4.9c1.3,2.3,3.1,4.1,5.2,5.2c2.1,1.1,4.8,1.7,7.9,1.7 c3.1,0,5.7-0.6,7.9-1.7c2.1-1.2,3.7-2.6,4.6-4.4c0.9-1.8,1.4-4.6,1.4-8.5V114c-1.7,2.2-3.8,3.8-6.3,5c-2.5,1.2-5.1,1.7-7.9,1.7 c-3.3,0-6.3-0.8-9.2-2.4c-2.9-1.6-5.1-3.8-6.6-6.5c-1.6-2.7-2.3-5.7-2.3-9c0-3.3,0.8-6.3,2.4-9.2c1.6-2.8,3.9-5.1,6.8-6.7 c2.9-1.6,5.9-2.5,9.1-2.5c2.6,0,5.1,0.5,7.4,1.6c2.3,1.1,4.5,2.9,6.6,5.4V85.3z M215.3,88.8c-2.6,0-5,0.6-7.2,1.9 c-2.2,1.2-3.9,3-5.2,5.2c-1.3,2.2-1.9,4.6-1.9,7.1c0,3.9,1.3,7.1,3.9,9.6c2.6,2.5,6,3.8,10.1,3.8c4.2,0,7.6-1.3,10.1-3.8 c2.5-2.5,3.8-5.8,3.8-9.9c0-2.7-0.6-5-1.8-7.1c-1.2-2.1-2.8-3.7-5-5C220.1,89.4,217.8,88.8,215.3,88.8z"></path> <path class="st0" d="M242,85.3h4.7v5.2c1.4-2,2.9-3.6,4.4-4.6c1.5-1,3.1-1.5,4.8-1.5c1.3,0,2.6,0.4,4,1.2l-2.4,3.8 c-1-0.4-1.8-0.6-2.4-0.6c-1.5,0-3,0.6-4.4,1.9c-1.4,1.2-2.5,3.2-3.2,5.8c-0.6,2-0.8,6.1-0.8,12.2v12H242V85.3z"></path> <path class="st0" d="M267,70.7c1,0,1.9,0.4,2.7,1.1c0.7,0.7,1.1,1.6,1.1,2.7c0,1-0.4,1.9-1.1,2.6c-0.7,0.7-1.6,1.1-2.7,1.1 c-1,0-1.9-0.4-2.6-1.1c-0.7-0.7-1.1-1.6-1.1-2.6c0-1,0.4-1.9,1.1-2.7C265.1,71.1,266,70.7,267,70.7z M264.7,85.3h4.6v35.4h-4.6 V85.3z"></path> <path class="st0" d="M279.5,120.7V72.8h1l31.8,36.7V72.8h4.7v47.8H316l-31.6-36.2v36.2H279.5z"></path> <path class="st0" d="M341.4,84.4c5.5,0,10,2,13.6,5.9c3.3,3.6,4.9,7.9,4.9,12.8c0,4.9-1.7,9.3-5.2,13c-3.4,3.7-7.9,5.5-13.3,5.5 c-5.4,0-9.9-1.8-13.3-5.5c-3.4-3.7-5.2-8-5.2-13c0-4.9,1.6-9.1,4.9-12.7C331.4,86.4,336,84.4,341.4,84.4z M341.4,88.8 c-3.8,0-7,1.4-9.8,4.2s-4.1,6.2-4.1,10.1c0,2.6,0.6,4.9,1.9,7.2c1.2,2.2,2.9,3.9,5,5.1c2.1,1.2,4.4,1.8,7,1.8 c2.5,0,4.8-0.6,7-1.8c2.1-1.2,3.8-2.9,5-5.1c1.2-2.2,1.9-4.6,1.9-7.2c0-4-1.4-7.4-4.1-10.1C348.4,90.2,345.2,88.8,341.4,88.8z"></path> <path class="st0" d="M359.9,85.3h4.8l11.9,25.8l11.7-25.8h4.9l-16.2,35.4h-0.8L359.9,85.3z"></path> <path class="st0" d="M398.4,85.3h4.6v16.5c0,4,0.2,6.8,0.7,8.3c0.7,2.2,1.9,3.9,3.7,5.1c1.8,1.3,4,1.9,6.6,1.9s4.7-0.6,6.5-1.8 c1.8-1.2,3-2.8,3.7-4.8c0.5-1.4,0.7-4.3,0.7-8.7V85.3h4.7v17.4c0,4.9-0.6,8.6-1.7,11s-2.9,4.4-5.1,5.8c-2.3,1.4-5.2,2.1-8.6,2.1 s-6.3-0.7-8.6-2.1c-2.3-1.4-4-3.4-5.2-5.9c-1.1-2.5-1.7-6.3-1.7-11.3V85.3z"></path> <path class="st0" d="M454.4,89.2l-2.9,3c-2.4-2.4-4.8-3.5-7.1-3.5c-1.5,0-2.7,0.5-3.8,1.5c-1.1,1-1.6,2.1-1.6,3.4 c0,1.1,0.4,2.2,1.3,3.3c0.9,1.1,2.7,2.3,5.5,3.7c3.4,1.8,5.7,3.4,6.9,5.1c1.2,1.6,1.8,3.5,1.8,5.6c0,2.9-1,5.4-3.1,7.4 c-2,2-4.6,3-7.7,3c-2,0-4-0.4-5.8-1.3c-1.9-0.9-3.4-2.1-4.6-3.7l2.9-3.3c2.3,2.6,4.8,3.9,7.4,3.9c1.8,0,3.4-0.6,4.7-1.8 s1.9-2.5,1.9-4.1c0-1.3-0.4-2.5-1.3-3.5c-0.8-1-2.8-2.3-5.7-3.8c-3.2-1.6-5.4-3.3-6.5-4.9c-1.2-1.6-1.7-3.4-1.7-5.5 c0-2.7,0.9-4.9,2.8-6.7c1.8-1.8,4.2-2.7,7-2.7C447.8,84.4,451.1,86,454.4,89.2z"></path> </g> </g> <g> <path class="st0" d="M280.1,135.1h1.9v18.7h-1.9V135.1z"></path> <path class="st0" d="M297.8,153.8v-18.7h0.4l12.4,14.3v-14.3h1.8v18.7H312l-12.3-14.1v14.1H297.8z"></path> <path class="st0" d="M328.6,153.8v-18.7h3.9c2.8,0,4.8,0.2,6.1,0.7c1.8,0.6,3.2,1.7,4.2,3.3s1.5,3.4,1.5,5.6 c0,1.9-0.4,3.5-1.2,4.9c-0.8,1.4-1.9,2.5-3.1,3.1c-1.3,0.7-3.1,1-5.4,1H328.6z M330.3,152h2.2c2.6,0,4.4-0.2,5.4-0.5 c1.4-0.5,2.5-1.3,3.3-2.5s1.2-2.6,1.2-4.4c0-1.8-0.4-3.3-1.3-4.6s-2.1-2.2-3.6-2.6c-1.2-0.4-3.1-0.5-5.8-0.5h-1.3V152z"></path> <path class="st0" d="M359.2,135.1h1.9v18.7h-1.9V135.1z"></path> <path class="st0" d="M384.5,135.1l8.7,18.7h-2l-2.9-6.1h-8l-2.9,6.1h-2.1l8.8-18.7H384.5z M384.3,139.1l-3.2,6.8h6.4L384.3,139.1z "></path> <path class="st0" d="M407.7,153.8v-18.7h0.4l12.4,14.3v-14.3h1.8v18.7h-0.4l-12.3-14.1v14.1H407.7z"></path> <path class="st0" d="M446.1,135.1l8.7,18.7h-2l-2.9-6.1h-8l-2.9,6.1h-2.1l8.8-18.7H446.1z M445.9,139.1l-3.2,6.8h6.4L445.9,139.1z "></path> </g> <path class="st0" d="M24.5,94c18,13.5,39.2,10.7,46,1.7s3.7-30.3-14.3-43.8S0,42.4,0,42.4S6.6,80.4,24.5,94z M32.1,87.4 c-11.3-8.5-18.4-34.6-18.4-34.6s27.1-0.4,38.4,8.1c11.3,8.5,13.3,21.8,9,27.5C56.8,94.2,43.4,95.9,32.1,87.4z"></path> <path class="st0" d="M119.1,42.4c0,0-38.4-4.1-56.3,9.4S41.7,86.5,48.5,95.6s28.1,11.9,46-1.7S119.1,42.4,119.1,42.4z M58,88.5 c-4.3-5.7-2.3-19,9-27.5c11.3-8.5,38.4-8.1,38.4-8.1S98.3,78.9,87,87.4C75.7,95.9,62.3,94.2,58,88.5z"></path> <path class="st0" d="M100,143.6v-26H66.3v-15.2c11.8-4.7,24.1-20.9,24.1-42.9c0-26.4-31-59.5-31-59.5s-31,33.1-31,59.5 c0,22.3,12.6,38.6,24.6,43.1v28.3h33.7v12.4C76.1,146,68.3,155.6,68.3,167c0,13.5,11,24.5,24.5,24.5s24.5-11,24.5-24.5 C117.2,156,110,146.7,100,143.6z M39.9,61.9c0-16.6,19.5-41.7,19.5-41.7s19.5,25.1,19.5,41.7S67.8,89.8,59.4,89.8 S39.9,78.6,39.9,61.9z M92.8,179.3c-6.8,0-12.4-5.5-12.4-12.4s5.5-12.4,12.4-12.4c6.8,0,12.4,5.5,12.4,12.4S99.6,179.3,92.8,179.3z "></path> </g> </svg> 