<?xml version="1.0" encoding="UTF-8"?> <!-- Generator: Adobe Illustrator 19.2.1, SVG Export Plug-In . SVG Version: 6.00 Build 0) --> <svg xmlns="http://www.w3.org/2000/svg" xmlns:xlink="http://www.w3.org/1999/xlink" id="Layer_1" x="0px" y="0px" viewBox="0 0 357.5 202.1" style="enable-background:new 0 0 357.5 202.1;" xml:space="preserve"> <style type="text/css"> .st0{fill:#FFFFFF;} </style> <g> <path class="st0" d="M123.4,66.1c2.8,2.6,1.9,14.2,1.5,22.8h31.9c3.7-7.4,15.8-29.9,20.6-29.9c4.8,0,17,22.5,20.6,29.9h31.7 c-0.4-8.7-1.3-20.2,1.5-22.8c1.8-1.6,14.2,6.9,24.9,14.8c0-0.7,0-1.4,0-2.1c0-5.5-0.6-10.8-1.6-16c-4.7-0.8-20.7-3.4-24.8-0.9 c-5.9,3.5-10.3,18.5-10.3,18.5l-0.1-0.1l0,0.1c0,0-32.3-25.9-42.1-25.9c-8.5,0-33.2,19-40.1,24.4l-1.8,1.4c0,0-4.4-15-10.3-18.5 c-4.2-2.5-20.1,0.1-24.8,0.9c-1.1,5.2-1.6,10.5-1.6,16c0,0.7,0,1.3,0,2C109.3,72.9,121.7,64.5,123.4,66.1z"></path> <path class="st0" d="M132,49.7c4,2.7,6.5,11.8,7.9,18.5c5.4-5.8,29.4-31.2,37.4-31.2c8,0,32.6,26.1,37.6,31.4 c1.4-6.8,3.9-16,7.9-18.7c5.2-3.5,24.6,6.1,30.8,9.2C244.8,25,214,0,177.4,0c-36.7,0-67.5,25.1-76.3,59 C106.1,56.4,126.5,46,132,49.7z M215.9,26.3c6.1,0,11,4.9,11,11s-4.9,11-11,11c-6.1,0-11-4.9-11-11S209.8,26.3,215.9,26.3z M177.4,7.7c7.2,0,13,5.8,13,13c0,7.2-5.8,13-13,13c-7.2,0-13-5.8-13-13C164.4,13.4,170.2,7.7,177.4,7.7z M138.6,26.3 c6.1,0,11,4.9,11,11s-4.9,11-11,11c-6.1,0-11-4.9-11-11S132.5,26.3,138.6,26.3z"></path> <path class="st0" d="M116.8,76.9c-1.9-0.7-8.2,3.4-16.9,12h16.5C117.1,85.2,118.4,77.4,116.8,76.9z"></path> <path class="st0" d="M237.8,76.9c-1.6,0.6-0.3,8.4,0.4,12h16.5C246,80.3,239.7,76.2,237.8,76.9z"></path> <path class="st0" d="M177.4,71.7c-3.2,0-7.2,12.3-8.7,17.3h17.5C184.6,84.1,180.3,71.7,177.4,71.7z"></path> </g> <g> <path class="st0" d="M79.8,131.2c0-10.4-4.1-19.4-12.5-26.9c-10.5-9.4-25.2-10.5-33.4-10.5c-5.7,0-9.7,0.2-17.1,0.3 C10.3,94.2,4.2,94.5,0,94.5l0.1,1.5c0.1,2.1,0.1,2.6,0.5,2.7c5.4,0.9,6.3,2.2,6.4,3.9c0.1,1.4,0.2,4,0.2,15.5 c0,13.8,0.1,33.2-0.5,41.7c-0.1,2.1-1.5,2.7-6,4.6c-0.2,0.6,0,2.7,0,3.8c3.1-0.1,7.1-0.1,11.2-0.1c2.1,0,13.2,0.5,19.3,0.5 c8,0,12.1-0.2,18.2-2.1c6-1.8,11.6-3.8,19.5-11.3c8.2-7.6,10.9-17.7,10.9-23.8V131.2z M48.9,158.9c-6.5,4-12,5.4-16.3,5.4 c-2.6,0-5-0.6-7.5-1.5c-1-0.3-1.4-0.8-1.6-1.8c-1.7-6.6-1.7-17.8-1.7-34.3c0-9.4,0.3-20.2,0.7-24.2c0.1-1,0.5-1.9,1-2.3 c1.3-1.1,6.4-1.9,8.1-1.9h0.1c4.7,0,12.8,1.1,19.8,6.6c5.7,4.4,11.2,12.9,11.2,25.1C62.7,141.9,58,153.2,48.9,158.9z"></path> <path class="st0" d="M356.3,166.1c-6.7-2.9-13.9-10.4-18.5-17.9c-4.1-6.6-6.7-13.1-7.5-16.2c-0.2-0.8,0.1-1.9,0.6-2.3 c4-2.5,11.6-6.7,11.6-16.8c0-4.9-3.4-10.8-8.1-13.9c-7.1-4.7-13.8-5.5-21.6-5.5c-4.3,0-7.1,0.1-14.1,0.6c-5,0.1-10.6,0.2-15.6,0.3 c-0.7,0-1.4,0.2-1.3,0.9l0.7,3.5c7.3,2.1,7.6,2.1,7.8,6.4c0.1,3.6,0.3,11.9,0.3,18.6v14.3c0,14.6-0.3,22-1.7,23.7 c-1,1-3.5,1.7-5.8,2.3c-3.3-1.5-4.6-4-6.6-8.2c-1.6-3.5-8.3-19.7-11.7-28.6c-3.5-9.2-5.6-14.7-8.5-23.5c-0.5-1.5-0.6-1.7-1.6-1.7 h-0.1c-1.5,0-3.4,0.5-4.5,1c-0.4,0.2-0.7,0.7-0.9,1.4c-0.6,1.2-1.4,3.6-2.3,5.9c-5.2,12.5-17,39.3-19.3,44.2 c-1.9,4.2-3.1,7.9-7,9.7c-5.2-1.1-5.2-1.7-5.7-8.2c-0.2-2.5,0-13.2-0.2-22.3c-0.3-12.8-0.3-18.4-0.1-22.6c0.1-2.9,1.2-3.4,6.5-4 c0.1-0.8,0.1-3.2,0-3.7c-2.4,0-11,0.3-18.8,0.3c-0.2,2-0.7,4.2-1.1,5.2c-4.6,10.4-12.7,26.1-19,38.4c-0.5,1-1,0.8-1.4,0.1 c-6.8-11.9-16.8-29-21.2-38.4c-0.6-1.2-1.4-3.2-1.7-5.4c-1.3,0-3.9,0.1-6.4,0.1c-3,0-9.2-0.2-10.4-0.2c-0.6,0-0.7,0.4-0.9,0.7 c-0.5,0.8-0.9,2-1,2.5c6,0.8,8.1,1.5,8,5.2l-0.9,22.8c-0.4,9.3-0.5,17.4-1.4,24.2c-0.6,3.9-2.3,5-5.6,5.5c-4-1.4-5.4-4-7.6-8.6 c-1.6-3.5-8.3-19.7-11.7-28.6c-3.5-9.2-5.6-14.7-8.5-23.5c-0.5-1.5-0.6-1.7-1.6-1.7h-0.1c-1.5,0-3.4,0.5-4.5,1 c-0.4,0.2-0.7,0.7-0.9,1.4c-0.6,1.2-1.4,3.6-2.3,5.9c-5.2,12.5-17,39.3-19.3,44.2c-2.2,4.7-3.4,8.8-8.5,10.2 c-0.5,0.2,0.3,2.3,0.6,2.8c0.1,0.3,0.2,0.4,0.7,0.4c0.4,0.1,1.9,0,3.7,0c2,0,7.7,0,13.9,0.1c0.5-0.1,1.6-3.1,0.8-3.3 c-4.7-1-6.2-2-6.2-4.5c0-3,2.4-8.4,3.4-11c0.7-1.8,1.2-2.6,2.9-2.7c4.6-0.4,15.3-0.3,18.9-0.3c0.6,0,1.4,0.6,2.2,2.5 c0.5,1.1,4.2,10.4,4.2,12.8c0,2-0.6,2.6-4.7,3.7c-0.2,0.2,0.7,2.3,0.9,2.8c0.1,0.3,0.3,0.4,0.7,0.4c1.1,0,5.4-0.3,8.5-0.3 c3.4,0,5.3,0.1,15.4,0.2c0.1,0,0.1-0.1,0.2-0.1c6-0.1,11.8-0.1,18.5,0.3l-0.2-2.9c-0.1-0.4-0.7-0.6-1.7-0.8 c-3.6-0.6-4.7-1.4-5.3-3.2c-0.3-1.8-0.4-5.9-0.5-11.8c-0.2-10.5-0.1-23.9,0-33.4c3.7,7.9,9.9,20.1,18.9,39 c2.7,5.8,5.1,10.6,5.7,11.4c0.4,0.8,0.9,1.1,1.3,1.1c1.3,0,1.7-0.8,2.8-3.3c0.5-0.9,2.2-5.1,7-15.3c4.4-9.4,14-30.4,15.1-32 c0.3-0.7,1.1-1.2,1.1-0.1c-0.8,34.5-0.7,40-1,42.6c-0.4,3.6-0.6,3.8-4.6,4.8c-0.5,0.1-0.7,0.6-0.7,1.4v2.4 c4.2-0.5,11.6-0.7,14.2-0.7c2.9,0,5.9,0,8.7,0c0.1,0.1,0.2,0.2,0.6,0.2c0.4,0.1,1.9,0,3.7,0c2,0,7.7,0,13.9,0.1 c0.5-0.1,1.6-3.1,0.8-3.3c-4.7-1-6.2-2-6.2-4.5c0-3,2.4-8.4,3.4-11c0.7-1.8,1.2-2.6,2.9-2.7c4.6-0.4,15.3-0.3,18.9-0.3 c0.6,0,1.4,0.6,2.2,2.5c0.5,1.1,4.2,10.4,4.2,12.8c0,2-0.6,2.6-4.7,3.7c-0.2,0.2,0.7,2.3,0.9,2.8c0.1,0.3,0.3,0.4,0.7,0.4 c1.1,0,5.4-0.3,8.5-0.3c3.4,0,5.3,0.1,15.4,0.2c0.1,0,0.2-0.1,0.3-0.2c2.7,0,5-0.3,8.7-0.3c5.8,0,17.8,0.1,18.9,0.1s1.7,0,1.8-0.2 c0.5-0.5,0.9-3.3,0.6-3.9c-2.7-0.8-8-1.4-9.1-2.3c-0.6-0.5-0.9-0.9-1-3c-0.1-4.3-0.3-10.3-0.3-20.2c0-0.8,0.3-1.9,0.9-2.1 c1.3-0.2,2.4-0.3,4.2-0.3c5.6,0,7.3,2.4,9.1,6.4c2.9,6.6,5.9,12.8,10.6,17.6c7.3,7.4,15.6,10,26.2,10.6c0.5,0,1.4-0.1,1.5-1.4 C357.6,167.6,357.6,166.6,356.3,166.1z M110.4,141.3c-2.5,0.1-4.3,0.1-7.5,0.1c-2.9,0-4.7-0.1-5.8-0.1h-0.1c-1.4,0-2.4-0.7-2.2-1.2 c4-10.2,5.3-13.6,8.6-21.1c0.2-0.4,0.8-0.3,1.1,0.3c1.7,4.3,3.8,9.8,7.4,20.8C112.1,140.4,111.4,141.3,110.4,141.3z M255,141.3 c-2.5,0.1-4.3,0.1-7.5,0.1c-2.9,0-4.7-0.1-5.8-0.1h-0.1c-1.4,0-2.4-0.7-2.2-1.2c4-10.2,5.3-13.6,8.6-21.1c0.2-0.4,0.8-0.3,1.1,0.3 c1.7,4.3,3.8,9.8,7.4,20.8C256.7,140.4,256,141.3,255,141.3z M326.1,114.4c0,5-1.4,9.4-3.5,12.2c-2.7,3.4-7.2,4.9-12.2,4.9 c-2.2,0-4,0-4.9-0.2c-0.9-0.2-0.9-0.3-0.8-11.9c0.1-9.8,0.2-14.6,0.7-18c0.2-1.1,0.9-1.9,2.1-2.4c1.9-0.7,3-1,5.2-1 c6.8,0,13.5,6.5,13.5,16.3V114.4z"></path> </g> <g> <path class="st0" d="M20.5,180.5H23c1.6,0,3,0.5,3.9,1.4c0.9,0.9,1.5,2.3,1.5,4.1v0.1c0,2.5-1.1,4.2-2.9,5l3.2,7.6h-1.9l-3-7.1 c-0.2,0.1-0.5,0.1-0.8,0.1h-0.9v7.1h-1.7V180.5z M23.1,190.1c2.2,0,3.6-1.4,3.6-4V186c0-2.8-1.5-4-3.7-4h-0.8v8.1H23.1z"></path> <path class="st0" d="M30,192.2v-0.4c0-4.7,1.8-7,3.9-7c2.1,0,3.7,2.4,3.7,6.8v1h-5.9c0.1,3.3,1.4,4.8,3.1,4.8 c0.9,0,1.5-0.3,2.4-0.9l0.2,1.6c-1,0.6-1.7,0.8-2.8,0.8C32.1,198.9,30,196.7,30,192.2z M36,191.2c0-2.9-0.9-5-2.1-5s-2.2,1.6-2.3,5 H36z"></path> <path class="st0" d="M39.8,185h1.6v1.9c0.5-1.1,1.3-2.1,2.7-2.1c1.4,0,2.2,1,2.6,2.1c0.5-1,1.4-2.1,2.9-2.1c1.7,0,3,1.4,3,4.1v9.8 H51v-9.6c0-1.9-0.7-2.9-1.8-2.9c-1.2,0-2.1,1.2-2.1,3.1v9.4h-1.6v-9.6c0-1.9-0.7-2.9-1.8-2.9c-1.2,0-2.1,1.2-2.1,3.1v9.4h-1.6V185z "></path> <path class="st0" d="M54.7,194.8v-0.3c0-2.7,1.3-4.4,3.5-4.4c0.9,0,1.6,0.2,2.2,0.5v-1.5c0-1.8-0.8-2.8-2.4-2.8 c-0.9,0-1.7,0.2-2.5,0.6v-1.6c0.8-0.4,1.7-0.6,2.7-0.6c1.2,0,2.1,0.3,2.8,1c0.6,0.7,1.1,1.7,1.1,3.1v9.7h-1.6v-1.8 c-0.5,1.3-1.4,2.1-2.6,2.1C55.9,199,54.7,197.2,54.7,194.8z M60.3,194.6V192c-0.6-0.3-1.2-0.5-1.9-0.5c-1.4,0-2.2,1.2-2.2,2.9v0.3 c0,1.7,0.7,2.9,1.9,2.9C59.4,197.6,60.3,196.2,60.3,194.6z"></path> <path class="st0" d="M64.6,185h1.6v1.9c0.5-1.2,1.5-2.2,2.9-2.1v1.8H69c-1.6,0-2.9,1.1-2.9,3.4v8.7h-1.6V185z"></path> <path class="st0" d="M71,180.4h1.6V192l3.4-7h1.8l-2.9,5.5l3,8.2h-1.8l-2.4-6.6l-1.2,2.3v4.2H71V180.4z"></path> <path class="st0" d="M79.2,194.8v-0.3c0-2.7,1.3-4.4,3.5-4.4c0.9,0,1.6,0.2,2.2,0.5v-1.5c0-1.8-0.8-2.8-2.4-2.8 c-0.9,0-1.7,0.2-2.5,0.6v-1.6c0.8-0.4,1.7-0.6,2.7-0.6c1.2,0,2.1,0.3,2.8,1c0.6,0.7,1.1,1.7,1.1,3.1v9.7h-1.6v-1.8 c-0.5,1.3-1.4,2.1-2.6,2.1C80.5,199,79.2,197.2,79.2,194.8z M84.9,194.6V192c-0.6-0.3-1.2-0.5-1.9-0.5c-1.4,0-2.2,1.2-2.2,2.9v0.3 c0,1.7,0.7,2.9,1.9,2.9C84,197.6,84.9,196.2,84.9,194.6z"></path> <path class="st0" d="M90.7,196.4v2.4h-1.6v-18.4h1.6v7c0.5-1.4,1.4-2.6,2.8-2.6c1.8,0,3.4,2.2,3.4,6.8v0.7c0,4.5-1.6,6.8-3.4,6.8 C92.1,199,91.3,197.7,90.7,196.4z M95.3,192.2v-0.6c0-3.4-1-5.3-2.2-5.3c-1.2,0-2.4,1.9-2.4,5.2v0.7c0,3.4,1.1,5.2,2.4,5.2 C94.3,197.5,95.3,195.6,95.3,192.2z"></path> <path class="st0" d="M99.3,180.4h1.6v18.4h-1.6V180.4z"></path> <path class="st0" d="M103.3,192.2v-0.4c0-4.7,1.8-7,3.9-7c2.1,0,3.7,2.4,3.7,6.8v1h-5.9c0.1,3.3,1.4,4.8,3.1,4.8 c0.9,0,1.5-0.3,2.4-0.9l0.2,1.6c-1,0.6-1.7,0.8-2.8,0.8C105.4,198.9,103.3,196.7,103.3,192.2z M109.3,191.2c0-2.9-0.9-5-2.1-5 s-2.2,1.6-2.3,5H109.3z"></path> <path class="st0" d="M117.6,185h1.6v2.4c0.5-1.4,1.4-2.6,2.8-2.6c1.8,0,3.4,2.2,3.4,6.8v0.7c0,4.5-1.6,6.8-3.4,6.8 c-1.4,0-2.2-1.2-2.8-2.6v5.7h-1.6V185z M123.8,192.2v-0.6c0-3.4-1-5.3-2.2-5.3c-1.2,0-2.4,1.9-2.4,5.2v0.7c0,3.4,1.1,5.2,2.4,5.2 C122.8,197.5,123.8,195.6,123.8,192.2z"></path> <path class="st0" d="M127.2,192.2v-0.4c0-4.7,1.8-7,3.9-7c2.1,0,3.7,2.4,3.7,6.8v1h-5.9c0.1,3.3,1.4,4.8,3.1,4.8 c0.9,0,1.5-0.3,2.4-0.9l0.2,1.6c-1,0.6-1.7,0.8-2.8,0.8C129.3,198.9,127.2,196.7,127.2,192.2z M133.2,191.2c0-2.9-0.9-5-2.1-5 s-2.2,1.6-2.3,5H133.2z"></path> <path class="st0" d="M136.6,192.1v-0.4c0-4.3,1.8-6.9,4-6.9c2.2,0,4,2.5,4,6.9v0.4c0,4.3-1.8,6.9-4,6.9 C138.4,199,136.6,196.4,136.6,192.1z M142.9,192.1v-0.4c0-3.4-1-5.4-2.4-5.4c-1.3,0-2.4,2-2.4,5.4v0.4c0,3.4,1,5.4,2.4,5.4 C141.9,197.5,142.9,195.4,142.9,192.1z"></path> <path class="st0" d="M146.8,185h1.6v2.4c0.5-1.4,1.4-2.6,2.8-2.6c1.8,0,3.4,2.2,3.4,6.8v0.7c0,4.5-1.6,6.8-3.4,6.8 c-1.4,0-2.2-1.2-2.8-2.6v5.7h-1.6V185z M153,192.2v-0.6c0-3.4-1-5.3-2.2-5.3c-1.2,0-2.4,1.9-2.4,5.2v0.7c0,3.4,1.1,5.2,2.4,5.2 C152,197.5,153,195.6,153,192.2z"></path> <path class="st0" d="M157,180.4h1.6v18.4H157V180.4z"></path> <path class="st0" d="M161,192.2v-0.4c0-4.7,1.8-7,3.9-7c2.1,0,3.7,2.4,3.7,6.8v1h-5.9c0.1,3.3,1.4,4.8,3.1,4.8 c0.9,0,1.5-0.3,2.4-0.9l0.2,1.6c-1,0.6-1.7,0.8-2.8,0.8C163.1,198.9,161,196.7,161,192.2z M167,191.2c0-2.9-0.9-5-2.1-5 s-2.2,1.6-2.3,5H167z"></path> <path class="st0" d="M170.5,196.2h2.1v2.5h-2.1V196.2z"></path> <path class="st0" d="M179.8,180.5h2.5c1.6,0,3,0.5,3.9,1.4c0.9,0.9,1.5,2.3,1.5,4.1v0.1c0,2.5-1.1,4.2-2.9,5l3.2,7.6h-1.9l-3-7.1 c-0.2,0.1-0.5,0.1-0.8,0.1h-0.9v7.1h-1.7V180.5z M182.4,190.1c2.2,0,3.6-1.4,3.6-4V186c0-2.8-1.5-4-3.7-4h-0.8v8.1H182.4z"></path> <path class="st0" d="M189.3,192.2v-0.4c0-4.7,1.8-7,3.9-7c2.1,0,3.7,2.4,3.7,6.8v1h-5.9c0.1,3.3,1.4,4.8,3.1,4.8 c0.9,0,1.5-0.3,2.4-0.9l0.2,1.6c-1,0.6-1.7,0.8-2.8,0.8C191.4,198.9,189.3,196.7,189.3,192.2z M195.3,191.2c0-2.9-0.9-5-2.1-5 s-2.2,1.6-2.3,5H195.3z"></path> <path class="st0" d="M199.1,185h1.6v1.9c0.5-1.1,1.3-2.1,2.7-2.1c1.4,0,2.2,1,2.6,2.1c0.5-1,1.4-2.1,2.9-2.1c1.7,0,3,1.4,3,4.1v9.8 h-1.6v-9.6c0-1.9-0.7-2.9-1.8-2.9c-1.2,0-2.1,1.2-2.1,3.1v9.4h-1.6v-9.6c0-1.9-0.7-2.9-1.8-2.9c-1.2,0-2.1,1.2-2.1,3.1v9.4h-1.6 V185z"></path> <path class="st0" d="M214,194.8v-0.3c0-2.7,1.3-4.4,3.5-4.4c0.9,0,1.6,0.2,2.2,0.5v-1.5c0-1.8-0.8-2.8-2.4-2.8 c-0.9,0-1.7,0.2-2.5,0.6v-1.6c0.8-0.4,1.7-0.6,2.7-0.6c1.2,0,2.1,0.3,2.8,1c0.7,0.7,1.1,1.7,1.1,3.1v9.7h-1.6v-1.8 c-0.5,1.3-1.4,2.1-2.6,2.1C215.2,199,214,197.2,214,194.8z M219.6,194.6V192c-0.6-0.3-1.2-0.5-1.9-0.5c-1.4,0-2.2,1.2-2.2,2.9v0.3 c0,1.7,0.7,2.9,1.9,2.9C218.7,197.6,219.6,196.2,219.6,194.6z"></path> <path class="st0" d="M223.9,185h1.6v1.9c0.5-1.2,1.5-2.2,2.9-2.1v1.8h-0.1c-1.6,0-2.9,1.1-2.9,3.4v8.7h-1.6V185z"></path> <path class="st0" d="M230.3,180.4h1.6V192l3.4-7h1.8l-2.9,5.5l3,8.2h-1.8l-2.4-6.6l-1.2,2.3v4.2h-1.6V180.4z"></path> <path class="st0" d="M238.5,194.8v-0.3c0-2.7,1.3-4.4,3.5-4.4c0.9,0,1.6,0.2,2.2,0.5v-1.5c0-1.8-0.8-2.8-2.4-2.8 c-0.9,0-1.7,0.2-2.5,0.6v-1.6c0.8-0.4,1.7-0.6,2.7-0.6c1.2,0,2.1,0.3,2.8,1c0.7,0.7,1.1,1.7,1.1,3.1v9.7h-1.6v-1.8 c-0.5,1.3-1.4,2.1-2.6,2.1C239.8,199,238.5,197.2,238.5,194.8z M244.2,194.6V192c-0.6-0.3-1.2-0.5-1.9-0.5c-1.4,0-2.2,1.2-2.2,2.9 v0.3c0,1.7,0.7,2.9,1.9,2.9C243.3,197.6,244.2,196.2,244.2,194.6z"></path> <path class="st0" d="M250,196.4v2.4h-1.6v-18.4h1.6v7c0.5-1.4,1.4-2.6,2.8-2.6c1.8,0,3.4,2.2,3.4,6.8v0.7c0,4.5-1.6,6.8-3.4,6.8 C251.4,199,250.6,197.7,250,196.4z M254.6,192.2v-0.6c0-3.4-1-5.3-2.2-5.3c-1.2,0-2.4,1.9-2.4,5.2v0.7c0,3.4,1.1,5.2,2.4,5.2 C253.6,197.5,254.6,195.6,254.6,192.2z"></path> <path class="st0" d="M258.6,180.4h1.6v18.4h-1.6V180.4z"></path> <path class="st0" d="M262.6,192.2v-0.4c0-4.7,1.8-7,3.9-7c2.1,0,3.7,2.4,3.7,6.8v1h-5.9c0.1,3.3,1.4,4.8,3.1,4.8 c0.9,0,1.5-0.3,2.4-0.9l0.2,1.6c-1,0.6-1.7,0.8-2.8,0.8C264.7,198.9,262.6,196.7,262.6,192.2z M268.6,191.2c0-2.9-0.9-5-2.1-5 s-2.2,1.6-2.3,5H268.6z"></path> <path class="st0" d="M276.9,185h1.6v1.9c0.5-1.2,1.5-2.2,2.9-2.1v1.8h-0.1c-1.6,0-2.9,1.1-2.9,3.4v8.7h-1.6V185z"></path> <path class="st0" d="M282.4,192.2v-0.4c0-4.7,1.8-7,3.9-7c2.1,0,3.7,2.4,3.7,6.8v1H284c0.1,3.3,1.4,4.8,3.1,4.8 c0.9,0,1.5-0.3,2.4-0.9l0.2,1.6c-1,0.6-1.7,0.8-2.8,0.8C284.5,198.9,282.4,196.7,282.4,192.2z M288.4,191.2c0-2.9-0.9-5-2.1-5 s-2.2,1.6-2.3,5H288.4z"></path> <path class="st0" d="M291.6,198.3v-1.6c1,0.5,1.9,0.8,2.7,0.8c1,0,1.8-0.7,1.8-1.8v0c0-0.9-0.5-1.7-2-3.1c-1.9-1.8-2.6-2.9-2.6-4.4 V188c0-2,1.5-3.2,3.3-3.2c0.9,0,1.5,0.1,2.3,0.4v1.6c-0.8-0.4-1.5-0.6-2.3-0.6c-1,0-1.7,0.6-1.7,1.7v0c0,0.9,0.4,1.5,2,3.1 c1.9,1.8,2.6,3,2.6,4.4v0.1c0,2.1-1.6,3.3-3.4,3.3C293.3,198.9,292.5,198.7,291.6,198.3z"></path> <path class="st0" d="M299.7,194.8V185h1.6v9.5c0,1.9,0.7,3,1.9,3s2.2-1.2,2.2-3.1V185h1.6v13.7h-1.6v-1.9c-0.5,1.1-1.3,2.1-2.7,2.1 C300.8,199,299.7,197.4,299.7,194.8z"></path> <path class="st0" d="M309.9,180.4h1.6v18.4h-1.6V180.4z"></path> <path class="st0" d="M314.8,196.4v-10h-1.2V185h1.2v-3.8h1.6v3.8h2.1v1.4h-2.1v9.6c0,1,0.5,1.3,1.3,1.3c0.2,0,0.6-0.1,0.8-0.1v1.4 c-0.3,0.1-0.8,0.2-1.2,0.2C315.8,198.9,314.8,198.3,314.8,196.4z"></path> <path class="st0" d="M319.9,198.3v-1.6c1,0.5,1.9,0.8,2.7,0.8c1,0,1.8-0.7,1.8-1.8v0c0-0.9-0.5-1.7-2-3.1c-1.9-1.8-2.6-2.9-2.6-4.4 V188c0-2,1.5-3.2,3.3-3.2c0.9,0,1.5,0.1,2.3,0.4v1.6c-0.8-0.4-1.5-0.6-2.3-0.6c-1,0-1.7,0.6-1.7,1.7v0c0,0.9,0.4,1.5,2,3.1 c1.9,1.8,2.6,3,2.6,4.4v0.1c0,2.1-1.6,3.3-3.4,3.3C321.7,198.9,320.8,198.7,319.9,198.3z"></path> <path class="st0" d="M328,196.2h2.1v2.5H328V196.2z"></path> </g> </svg> 