<?xml version="1.0" encoding="UTF-8"?> <!-- Generator: Adobe Illustrator 19.2.1, SVG Export Plug-In . SVG Version: 6.00 Build 0) --> <svg xmlns="http://www.w3.org/2000/svg" xmlns:xlink="http://www.w3.org/1999/xlink" id="Layer_1" x="0px" y="0px" viewBox="0 0 430.8 430.8" style="enable-background:new 0 0 430.8 430.8;" xml:space="preserve"> <style type="text/css"> .st0{fill:#FFFFFF;} </style> <g> <path class="st0" d="M253.5,189.7c-4-2.8-8.7-3.7-14-2.6c-5.3,1.1-9.2,3.8-11.7,8c-2.5,4.2-3.2,9.1-2,14.6c1.3,6,3.8,10.3,7.8,13.1 c4,2.8,8.7,3.7,14,2.6c5.4-1.1,9.3-3.8,11.8-7.9c2.5-4.1,3.1-9.1,1.9-14.9C260,196.8,257.4,192.5,253.5,189.7z"></path> <path class="st0" d="M386.2,161.8c-4-2.8-8.7-3.7-14-2.6c-5.3,1.1-9.2,3.8-11.7,8c-2.5,4.2-3.2,9.1-2,14.6c1.3,6,3.8,10.3,7.8,13.1 c4,2.8,8.7,3.7,14,2.6c5.4-1.1,9.3-3.8,11.8-7.9c2.5-4.1,3.1-9.1,1.9-14.9C392.7,168.9,390.1,164.6,386.2,161.8z"></path> <path class="st0" d="M215.4,0C96.4,0,0,96.4,0,215.4c0,3.6,0.1,7.2,0.3,10.7l10.8-2.3l1.2,5.5c2.1-3.3,3.9-5.7,5.6-7.1 c1.8-1.4,4.2-2.5,7.2-3.1c6.7-1.4,12.7,0.4,17.8,5.5c3.1-6.8,8.3-11,15.7-12.5c13.4-2.8,21.9,3.9,25.3,20.2l19.5,92.8l-13.8,2.9 L70.9,239c-1.2-5.7-2.7-9.6-4.6-11.7c-1.9-2.1-4.5-2.8-7.8-2.1c-3.8,0.8-6.3,2.8-7.4,6c-1.1,3.2-1,8,0.3,14.3l6.5,30.8L44,279.3 l-6.9-33c-2.2-10.6-6.4-15.3-12.5-14c-3.9,0.8-6.4,2.9-7.6,6.1c-1.2,3.3-1.1,8,0.2,14.3l6.5,30.8L11.9,286 c29.2,84.3,109.3,144.8,203.5,144.8c119,0,215.4-96.4,215.4-215.4S334.4,0,215.4,0z M156.6,248c-4.9,7.3-11.9,11.9-21,13.8 c-8.9,1.9-17.1,0.4-24.4-4.5c-7.3-4.8-11.9-11.7-13.9-20.9c-1.8-8.6-0.3-16.6,4.6-23.9c4.9-7.3,11.8-11.9,20.6-13.8 c8.9-1.9,17.1-0.4,24.6,4.4c7.4,4.8,12,11.6,13.9,20.5C163,232.5,161.5,240.6,156.6,248z M193.7,304.1l-21.2-100.7l-4.9,1 l-2.7-12.9l4.9-1l-4.8-23c-1.6-7.5-1.4-13.1,0.6-16.8c2.7-5.1,7.5-8.3,14.3-9.8c2.5-0.5,5.7-0.4,9.7,0.2l3,14.1l-1.6-0.4 c-3.3-0.9-5.9-1.1-7.8-0.7c-2.5,0.5-3.9,1.7-4.4,3.7c-0.5,1.9-0.2,5.3,0.8,10.2l4.1,19.7l15-3.2l2.7,12.9l-15,3.2l21.2,100.7 L193.7,304.1z M270.8,224c-4.9,7.3-11.9,11.9-21,13.8c-8.9,1.9-17.1,0.4-24.4-4.5c-7.3-4.8-11.9-11.7-13.9-20.9 c-1.8-8.6-0.3-16.6,4.6-23.9c4.9-7.3,11.8-11.9,20.6-13.8c8.9-1.9,17.1-0.4,24.6,4.4c7.4,4.8,12,11.6,13.9,20.5 C277.2,208.5,275.7,216.6,270.8,224z M323.7,222.3c-9.2,1.9-17.6,0.6-25-4.1c-7.5-4.7-12.1-11.5-14-20.4 c-1.9-8.9-0.3-17.1,4.7-24.5c5-7.4,12.1-12.1,21.2-14.1c5.9-1.2,11.7-1,17.6,0.7l3.9,18.3c-4-3.2-7.3-5.2-10.1-6.1 c-2.8-1-5.8-1.1-9.1-0.4c-5.2,1.1-9.1,3.8-11.8,8.2c-2.7,4.4-3.4,9.3-2.3,14.7c1.2,5.6,3.8,9.8,7.9,12.7c4.1,2.9,8.7,3.8,13.9,2.7 c3.3-0.7,6.1-2,8.3-4c2.2-1.9,4.5-5.2,6.9-9.9l3.8,18.2C334.5,218.5,329.2,221.1,323.7,222.3z M382.5,209.9 c-8.9,1.9-17.1,0.4-24.4-4.5c-7.3-4.8-11.9-11.7-13.9-20.9c-1.8-8.6-0.3-16.6,4.6-23.9c4.9-7.3,11.8-11.9,20.6-13.8 c8.9-1.9,17.1-0.4,24.6,4.4c7.4,4.8,12,11.6,13.9,20.5c1.9,8.9,0.4,17.1-4.5,24.4C398.5,203.4,391.5,208,382.5,209.9z"></path> <path class="st0" d="M139.3,213.7c-4-2.8-8.7-3.7-14-2.6c-5.3,1.1-9.2,3.8-11.7,8c-2.5,4.2-3.2,9.1-2,14.6c1.3,6,3.8,10.3,7.8,13.1 c4,2.8,8.7,3.7,14,2.6c5.4-1.1,9.3-3.8,11.8-7.9c2.5-4.1,3.1-9.1,1.9-14.9C145.8,220.8,143.2,216.5,139.3,213.7z"></path> </g> <g> <path class="st0" d="M342.6,247.2c-0.4-0.5-0.8-1-1.4-1.3c-0.5-0.3-1.1-0.6-1.7-0.7c-0.6-0.1-1.3-0.1-1.9,0 c-0.7,0.1-1.3,0.4-1.8,0.8c-0.5,0.4-1,0.8-1.3,1.3c-0.3,0.5-0.6,1.1-0.7,1.7c-0.1,0.6-0.1,1.3,0,1.9c0.1,0.7,0.4,1.3,0.8,1.8 c0.4,0.5,0.8,1,1.3,1.3s1.1,0.6,1.7,0.7c0.6,0.1,1.3,0.1,1.9,0c0.7-0.1,1.3-0.4,1.8-0.8c0.5-0.4,1-0.8,1.3-1.3 c0.3-0.5,0.6-1.1,0.7-1.7c0.1-0.6,0.1-1.3,0-1.9C343.3,248.3,343,247.7,342.6,247.2z"></path> <path class="st0" d="M359.1,243.7c-0.4-0.5-0.8-1-1.4-1.3s-1.1-0.6-1.7-0.7c-0.6-0.1-1.3-0.1-1.9,0s-1.3,0.4-1.8,0.8 c-0.5,0.4-1,0.8-1.3,1.3c-0.3,0.5-0.6,1.1-0.7,1.7c-0.1,0.6-0.1,1.3,0,1.9c0.1,0.7,0.4,1.3,0.8,1.8c0.4,0.5,0.8,1,1.3,1.3 s1.1,0.6,1.7,0.7c0.6,0.1,1.3,0.1,1.9,0c0.7-0.1,1.3-0.4,1.8-0.8c0.5-0.4,1-0.8,1.3-1.3c0.3-0.5,0.6-1.1,0.7-1.7 c0.1-0.6,0.1-1.3,0-1.9C359.7,244.8,359.4,244.2,359.1,243.7z"></path> <path class="st0" d="M373.9,240.7c-0.4-0.5-0.8-1-1.3-1.3c-0.5-0.4-1.1-0.6-1.7-0.8s-1.3-0.2-1.9,0l-2.6,0.5 c-0.1,0-0.2,0.1-0.2,0.1c0,0.1-0.1,0.2,0,0.3l1.9,8.9c0,0.1,0.1,0.2,0.1,0.2c0.1,0,0.2,0.1,0.3,0l2.6-0.5c0.6-0.1,1.2-0.4,1.7-0.8 c0.5-0.4,0.9-0.8,1.3-1.4c0.3-0.5,0.6-1.1,0.7-1.7c0.1-0.6,0.1-1.2,0-1.9C374.5,241.8,374.3,241.2,373.9,240.7z"></path> <path class="st0" d="M287.4,258.9c-0.4-0.5-0.8-1-1.4-1.3c-0.5-0.3-1.1-0.6-1.7-0.7c-0.6-0.1-1.3-0.1-1.9,0 c-0.7,0.1-1.3,0.4-1.8,0.8c-0.5,0.4-1,0.8-1.3,1.3c-0.3,0.5-0.6,1.1-0.7,1.7c-0.1,0.6-0.1,1.3,0,1.9c0.1,0.7,0.4,1.3,0.8,1.8 c0.4,0.5,0.8,1,1.3,1.3s1.1,0.6,1.7,0.7c0.6,0.1,1.3,0.1,1.9,0c0.7-0.1,1.3-0.4,1.8-0.8c0.5-0.4,1-0.8,1.3-1.3 c0.3-0.5,0.6-1.1,0.7-1.7c0.1-0.6,0.1-1.3,0-1.9C288,260,287.8,259.4,287.4,258.9z"></path> <path class="st0" d="M254.8,265.7c-0.4-0.5-0.8-1-1.4-1.3s-1.1-0.6-1.7-0.7c-0.6-0.1-1.3-0.1-1.9,0c-0.7,0.1-1.3,0.4-1.8,0.8 c-0.5,0.4-1,0.8-1.3,1.3s-0.6,1.1-0.7,1.7c-0.1,0.6-0.1,1.3,0,1.9c0.1,0.7,0.4,1.3,0.8,1.8c0.4,0.5,0.8,1,1.3,1.3s1.1,0.6,1.7,0.7 c0.6,0.1,1.3,0.1,1.9,0c0.7-0.1,1.3-0.4,1.8-0.8c0.5-0.4,1-0.8,1.3-1.3s0.6-1.1,0.7-1.7c0.1-0.6,0.1-1.3,0-1.9 S255.2,266.3,254.8,265.7z"></path> <path class="st0" d="M414.4,232c-0.4-0.5-0.8-1-1.4-1.3c-0.5-0.3-1.1-0.6-1.7-0.7c-0.6-0.1-1.3-0.1-1.9,0s-1.3,0.4-1.8,0.8 c-0.5,0.4-1,0.8-1.3,1.3s-0.6,1.1-0.7,1.7c-0.1,0.6-0.1,1.3,0,1.9c0.1,0.7,0.4,1.3,0.8,1.8c0.4,0.5,0.8,1,1.3,1.3s1.1,0.6,1.7,0.7 c0.6,0.1,1.3,0.1,1.9,0c0.7-0.1,1.3-0.4,1.8-0.8c0.5-0.4,1-0.8,1.3-1.3c0.3-0.5,0.6-1.1,0.7-1.7c0.1-0.6,0.1-1.3,0-1.9 S414.8,232.6,414.4,232z"></path> <path d="M237.5,265.4l-3.6,5.5c-0.1,0.1-0.1,0.1-0.2,0.2c-0.1,0-0.2,0-0.3,0l-5.5-3.6l-0.9,0.2l2.4,11.3l0.9-0.2l-2.1-10.1l5.8,3.8 l3.8-5.8l2.1,10.1l0.8-0.2l-2.4-11.3L237.5,265.4z"></path> <path d="M255.6,265.3c-0.4-0.6-1-1.1-1.6-1.5c-0.6-0.4-1.3-0.7-2-0.8c-0.7-0.2-1.5-0.1-2.3,0c-0.8,0.2-1.5,0.5-2.1,0.9 c-0.6,0.4-1.1,1-1.5,1.6c-0.4,0.6-0.7,1.3-0.8,2c-0.2,0.8-0.1,1.5,0,2.3c0.2,0.8,0.5,1.5,0.9,2.1s1,1.1,1.6,1.5 c0.6,0.4,1.3,0.7,2,0.8c0.8,0.1,1.5,0.1,2.3,0c0.8-0.2,1.5-0.5,2.1-0.9c0.6-0.4,1.1-1,1.5-1.6c0.4-0.6,0.7-1.3,0.8-2 c0.2-0.7,0.1-1.5,0-2.3C256.3,266.6,256,265.9,255.6,265.3z M255.6,269.5c-0.1,0.6-0.4,1.2-0.7,1.7s-0.8,1-1.3,1.3 c-0.5,0.4-1.1,0.6-1.8,0.8c-0.7,0.1-1.3,0.1-1.9,0c-0.6-0.1-1.2-0.4-1.7-0.7s-1-0.8-1.3-1.3c-0.4-0.5-0.6-1.1-0.8-1.8 c-0.1-0.7-0.1-1.3,0-1.9c0.1-0.6,0.4-1.2,0.7-1.7s0.8-1,1.3-1.3c0.5-0.4,1.1-0.6,1.8-0.8c0.7-0.1,1.3-0.1,1.9,0 c0.6,0.1,1.2,0.4,1.7,0.7s1,0.8,1.4,1.3c0.4,0.5,0.6,1.1,0.8,1.8S255.8,268.8,255.6,269.5z"></path> <polygon points="270.1,258.6 272.2,268.5 261.6,260.4 260.9,260.5 263.3,271.8 264.1,271.6 262,261.6 272.6,269.8 273.3,269.7 270.9,258.4 "></polygon> <path d="M288.1,258.4c-0.4-0.6-1-1.1-1.6-1.5c-0.6-0.4-1.3-0.7-2-0.8c-0.7-0.2-1.5-0.1-2.3,0c-0.8,0.2-1.5,0.5-2.1,0.9 c-0.6,0.4-1.1,1-1.5,1.6c-0.4,0.6-0.7,1.3-0.8,2c-0.2,0.8-0.1,1.5,0,2.3c0.2,0.8,0.5,1.5,0.9,2.1s1,1.1,1.6,1.5 c0.6,0.4,1.3,0.7,2,0.8c0.8,0.1,1.5,0.1,2.3,0c0.8-0.2,1.5-0.5,2.1-0.9c0.6-0.4,1.1-1,1.5-1.6c0.4-0.6,0.7-1.3,0.8-2 c0.2-0.7,0.1-1.5,0-2.3C288.9,259.7,288.6,259,288.1,258.4z M288.2,262.6c-0.1,0.6-0.4,1.2-0.7,1.7c-0.3,0.5-0.8,1-1.3,1.3 c-0.5,0.4-1.1,0.6-1.8,0.8c-0.7,0.1-1.3,0.1-1.9,0c-0.6-0.1-1.2-0.4-1.7-0.7s-1-0.8-1.3-1.3c-0.4-0.5-0.6-1.1-0.8-1.8 c-0.1-0.7-0.1-1.3,0-1.9c0.1-0.6,0.4-1.2,0.7-1.7c0.3-0.5,0.8-1,1.3-1.3c0.5-0.4,1.1-0.6,1.8-0.8c0.7-0.1,1.3-0.1,1.9,0 c0.6,0.1,1.2,0.4,1.7,0.7c0.5,0.3,1,0.8,1.4,1.3c0.4,0.5,0.6,1.1,0.8,1.8C288.3,261.3,288.3,262,288.2,262.6z"></path> <polygon points="302.6,251.7 304.7,261.6 294.2,253.5 293.4,253.6 295.8,264.9 296.7,264.8 294.6,254.7 305.1,263 305.9,262.8 303.5,251.5 "></polygon> <path d="M321.5,254.1l6.6-1.4l-0.2-0.9l-6.6,1.4c-0.1,0-0.2,0-0.3-0.1c-0.1-0.1-0.1-0.1-0.2-0.2l-0.8-3.7c0-0.1,0-0.2,0-0.3 c0.1-0.1,0.1-0.1,0.2-0.2l6.6-1.4l-0.2-0.8l-7.8,1.6l2.4,11.3l0.9-0.2l-1-4.9c0-0.1,0-0.2,0.1-0.3 C321.3,254.1,321.4,254.1,321.5,254.1z"></path> <path d="M343.4,246.7c-0.4-0.6-1-1.1-1.6-1.5c-0.6-0.4-1.3-0.7-2-0.8c-0.7-0.2-1.5-0.1-2.3,0c-0.8,0.2-1.5,0.5-2.1,0.9 c-0.6,0.4-1.1,1-1.5,1.6c-0.4,0.6-0.7,1.3-0.8,2c-0.2,0.8-0.1,1.5,0,2.3c0.2,0.8,0.5,1.5,0.9,2.1s1,1.1,1.6,1.5 c0.6,0.4,1.3,0.7,2,0.8c0.8,0.1,1.5,0.1,2.3,0c0.8-0.2,1.5-0.5,2.1-0.9c0.6-0.4,1.1-1,1.5-1.6c0.4-0.6,0.7-1.3,0.8-2 c0.2-0.7,0.1-1.5,0-2.3C344.1,248,343.8,247.3,343.4,246.7z M343.4,250.9c-0.1,0.6-0.4,1.2-0.7,1.7c-0.3,0.5-0.8,1-1.3,1.3 c-0.5,0.4-1.1,0.6-1.8,0.8c-0.7,0.1-1.3,0.1-1.9,0c-0.6-0.1-1.2-0.4-1.7-0.7s-1-0.8-1.3-1.3c-0.4-0.5-0.6-1.1-0.8-1.8 c-0.1-0.7-0.1-1.3,0-1.9c0.1-0.6,0.4-1.2,0.7-1.7c0.3-0.5,0.8-1,1.3-1.3c0.5-0.4,1.1-0.6,1.8-0.8c0.7-0.1,1.3-0.1,1.9,0 c0.6,0.1,1.2,0.4,1.7,0.7c0.5,0.3,1,0.8,1.4,1.3c0.4,0.5,0.6,1.1,0.8,1.8C343.5,249.6,343.6,250.3,343.4,250.9z"></path> <path d="M359.8,243.2c-0.4-0.6-1-1.1-1.6-1.5c-0.6-0.4-1.3-0.7-2-0.8c-0.7-0.2-1.5-0.1-2.3,0c-0.8,0.2-1.5,0.5-2.1,0.9 c-0.6,0.4-1.1,1-1.5,1.6c-0.4,0.6-0.7,1.3-0.8,2c-0.2,0.8-0.1,1.5,0,2.3c0.2,0.8,0.5,1.5,0.9,2.1c0.4,0.6,1,1.1,1.6,1.5 c0.6,0.4,1.3,0.7,2,0.8c0.8,0.1,1.5,0.1,2.3,0c0.8-0.2,1.5-0.5,2.1-0.9c0.6-0.4,1.1-1,1.5-1.6c0.4-0.6,0.7-1.3,0.8-2 c0.2-0.7,0.1-1.5,0-2.3C360.5,244.6,360.2,243.9,359.8,243.2z M359.9,247.5c-0.1,0.6-0.4,1.2-0.7,1.7c-0.3,0.5-0.8,1-1.3,1.3 c-0.5,0.4-1.1,0.6-1.8,0.8c-0.7,0.1-1.3,0.1-1.9,0c-0.6-0.1-1.2-0.4-1.7-0.7s-1-0.8-1.3-1.3c-0.4-0.5-0.6-1.1-0.8-1.8 c-0.1-0.7-0.1-1.3,0-1.9c0.1-0.6,0.4-1.2,0.7-1.7c0.3-0.5,0.8-1,1.3-1.3c0.5-0.4,1.1-0.6,1.8-0.8s1.3-0.1,1.9,0 c0.6,0.1,1.2,0.4,1.7,0.7s1,0.8,1.4,1.3c0.4,0.5,0.6,1.1,0.8,1.8C360,246.2,360,246.8,359.9,247.5z"></path> <path d="M374.6,240.1c-0.4-0.6-1-1.1-1.6-1.5c-0.6-0.4-1.3-0.7-2-0.8c-0.8-0.2-1.5-0.1-2.3,0l-3.6,0.8l2.4,11.3l3.6-0.8 c0.8-0.2,1.5-0.5,2.1-0.9s1.1-1,1.5-1.6c0.4-0.6,0.7-1.3,0.8-2c0.1-0.8,0.1-1.5,0-2.3S375,240.7,374.6,240.1z M374.7,244.3 c-0.1,0.6-0.4,1.2-0.7,1.7c-0.3,0.5-0.7,1-1.3,1.4c-0.5,0.4-1.1,0.6-1.7,0.8l-2.6,0.5c-0.1,0-0.2,0-0.3,0c-0.1,0-0.1-0.1-0.1-0.2 l-1.9-8.9c0-0.1,0-0.2,0-0.3c0-0.1,0.1-0.1,0.2-0.1l2.6-0.5c0.6-0.1,1.3-0.1,1.9,0s1.2,0.4,1.7,0.8c0.5,0.4,0.9,0.8,1.3,1.3 c0.4,0.5,0.6,1.1,0.7,1.7C374.8,243,374.8,243.6,374.7,244.3z"></path> <path d="M398.5,242c-0.5,0.4-1.1,0.6-1.8,0.8c-0.7,0.1-1.3,0.1-1.9,0c-0.6-0.1-1.2-0.4-1.7-0.7c-0.5-0.3-1-0.8-1.3-1.3 c-0.4-0.5-0.6-1.1-0.8-1.8c-0.1-0.7-0.1-1.3,0-1.9c0.1-0.6,0.4-1.2,0.7-1.7c0.3-0.5,0.8-1,1.3-1.3c0.5-0.4,1.1-0.6,1.8-0.8 c0.6-0.1,1.3-0.1,1.9,0c0.6,0.1,1.2,0.4,1.8,0.7l0.5-0.7c-0.6-0.4-1.3-0.7-2.1-0.8c-0.8-0.1-1.5-0.1-2.3,0 c-0.8,0.2-1.5,0.5-2.1,0.9c-0.6,0.4-1.1,1-1.5,1.6c-0.4,0.6-0.7,1.3-0.8,2c-0.2,0.8-0.1,1.5,0,2.3c0.2,0.8,0.5,1.5,0.9,2.1 s1,1.1,1.6,1.5c0.6,0.4,1.3,0.7,2,0.8c0.8,0.2,1.5,0.1,2.3,0c0.7-0.2,1.4-0.5,2.1-0.9c0.6-0.4,1.2-1,1.6-1.6l-0.7-0.5 C399.5,241.1,399,241.6,398.5,242z"></path> <path d="M415.1,231.5c-0.4-0.6-1-1.1-1.6-1.5c-0.6-0.4-1.3-0.7-2-0.8c-0.7-0.2-1.5-0.1-2.3,0c-0.8,0.2-1.5,0.5-2.1,0.9 c-0.6,0.4-1.1,1-1.5,1.6c-0.4,0.6-0.7,1.3-0.8,2c-0.2,0.8-0.1,1.5,0,2.3c0.2,0.8,0.5,1.5,0.9,2.1c0.4,0.6,1,1.1,1.6,1.5 c0.6,0.4,1.3,0.7,2,0.8c0.8,0.1,1.5,0.1,2.3,0c0.8-0.2,1.5-0.5,2.1-0.9c0.6-0.4,1.1-1,1.5-1.6c0.4-0.6,0.7-1.3,0.8-2 c0.2-0.7,0.1-1.5,0-2.3C415.9,232.9,415.6,232.2,415.1,231.5z M415.2,235.8c-0.1,0.6-0.4,1.2-0.7,1.7c-0.3,0.5-0.8,1-1.3,1.3 c-0.5,0.4-1.1,0.6-1.8,0.8c-0.7,0.1-1.3,0.1-1.9,0c-0.6-0.1-1.2-0.4-1.7-0.7s-1-0.8-1.3-1.3c-0.4-0.5-0.6-1.1-0.8-1.8 c-0.1-0.7-0.1-1.3,0-1.9c0.1-0.6,0.4-1.2,0.7-1.7s0.8-1,1.3-1.3c0.5-0.4,1.1-0.6,1.8-0.8s1.3-0.1,1.9,0c0.6,0.1,1.2,0.4,1.7,0.7 c0.5,0.3,1,0.8,1.4,1.3c0.4,0.5,0.6,1.1,0.8,1.8S415.3,235.1,415.2,235.8z"></path> <path d="M420.2,238.1c0-0.2-0.1-0.4-0.3-0.5c-0.2-0.1-0.4-0.1-0.6-0.1c-0.2,0-0.4,0.1-0.5,0.3c-0.1,0.2-0.1,0.4-0.1,0.6 c0,0.2,0.1,0.4,0.3,0.5c0.2,0.1,0.4,0.1,0.6,0.1c0.2,0,0.4-0.1,0.5-0.3C420.2,238.5,420.2,238.3,420.2,238.1z"></path> </g> </svg> 