<?xml version="1.0" encoding="UTF-8"?> <!-- Generator: Adobe Illustrator 23.0.3, SVG Export Plug-In . SVG Version: 6.00 Build 0) --> <svg xmlns="http://www.w3.org/2000/svg" xmlns:xlink="http://www.w3.org/1999/xlink" id="Layer_1" x="0px" y="0px" viewBox="0 0 288.8 97.9" style="enable-background:new 0 0 288.8 97.9;" xml:space="preserve"> <style type="text/css"> .st0{fill:#231F20;} </style> <g> <path class="st0" d="M13.5,52.7l13.4,0.9l0,24.5l-13.4-5.9L13.5,52.7L13.5,52.7z M26.9,19.7l0,25.5l-13.4,0.9l0-20.4L26.9,19.7 L26.9,19.7z M0,72.6l40.6,23.7V1.6L0,25.3V72.6L0,72.6z"></path> <polygon class="st0" points="47.6,4 47.5,94 60.9,86.1 60.9,11.7 47.6,4 "></polygon> <polygon class="st0" points="81.3,74.5 68,82.2 68,17 81.3,23.8 81.3,74.5 "></polygon> <polyline class="st0" points="145.3,40.3 141.9,42.3 141.9,46.4 145.4,48.4 148.9,46.3 148.9,42.3 145.3,40.3 "></polyline> <path class="st0" d="M125.7,44.1c2.1,0,4.7-1.2,5.6-1.2c1,0,1.7,0.3,1.7,1.9s-2.8,1.4-7.6,3.9c-4.7,2.5-12.9,9.8-12.9,15.8 c0,2.3,1.3,5.2,5.6,5.2c7.2,0,16.5-9,22.7-16.9c0.9-1,1.4-1.7,2.1-1.7c0.6,0,1,0.4,1,1c0,0.6-0.3,1-1,2 c-7.6,8.8-16.5,18.5-25.3,18.5c-5.3,0-8.3-3.4-8.3-7.6c0-7.5,7.7-14.1,13.6-18.3c-1.8,0-4.5-1.4-4.5-3.9c0-7.2,14.3-17,23.1-17 c2.3,0,3.9,1.1,3.9,3.9c0,2.6-5.3,9.2-8.3,9.2c-1.3,0-1.8-0.6-1.8-1.3c0-0.8,0.4-1.3,2.2-2.2c2.3-1.1,4.7-3.8,4.7-5.8 c0-0.6-0.5-1-1.2-1c-6.9,0-18.9,8.7-18.9,13.4C122.2,43.3,123.6,44.1,125.7,44.1L125.7,44.1z"></path> <path class="st0" d="M208.2,44.1c2.1,0,4.7-1.2,5.6-1.2c1,0,1.7,0.3,1.7,1.9s-2.8,1.4-7.6,3.9c-4.7,2.5-12.9,9.8-12.9,15.8 c0,2.3,1.3,5.2,5.6,5.2c7.2,0,16.5-9,22.7-16.9c0.9-1,1.4-1.7,2.1-1.7c0.6,0,1,0.4,1,1c0,0.6-0.3,1-1,2 c-7.6,8.8-16.5,18.5-25.3,18.5c-5.3,0-8.3-3.4-8.3-7.6c0-7.5,7.7-14.1,13.6-18.3c-1.8,0-4.5-1.4-4.5-3.9c0-7.2,14.3-17,23.1-17 c2.3,0,3.9,1.1,3.9,3.9c0,2.6-5.3,9.2-8.3,9.2c-1.3,0-1.8-0.6-1.8-1.3c0-0.8,0.4-1.3,2.2-2.2c2.3-1.1,4.7-3.8,4.7-5.8 c0-0.6-0.5-1-1.2-1c-6.9,0-18.9,8.7-18.9,13.4C204.7,43.3,206.1,44.1,208.2,44.1L208.2,44.1z"></path> <path class="st0" d="M148.7,55.4c0.7-0.8,1.1-1.4,1.7-1.4c0.5,0,0.8,0.3,0.8,0.8c0,0.5-0.2,0.8-0.8,1.6c-2.6,3.1-7.6,7.8-10.3,7.8 c-0.9,0-2.2-1-2.2-2.8c0-2.4,2.8-7.8,3.2-8.6c0.6-1,1.1-1.9,1.8-1.9c0.5,0,1.3,0.4,1.3,1c0,0.6-0.5,1.2-1,2 c-1.2,2.1-2.8,5.9-2.8,7.1c0,0.5,0.3,1.1,1,1.1C142.8,62,146.8,58,148.7,55.4L148.7,55.4z"></path> <path class="st0" d="M155.2,53.2c-3.4,0-7,5.8-7,7.6c0,0.7,0.5,1.2,1.1,1.2c1.8,0,7.9-5.9,7.9-7.1 C157.3,54.5,156.7,53.2,155.2,53.2L155.2,53.2z M155.7,70.1c-6,2-11.4,7.4-11.4,12.7c0,1.2,0.7,1.9,1.5,1.9 C149.1,84.7,153.3,79,155.7,70.1L155.7,70.1z M161.4,50.5c0.4,0,1.8,0.2,1.8,0.8c0,0.6-1.1,1.7-2,4.1c-0.7,2.1-1.2,6.6-2.4,11.7 c1.7-0.2,4.7-0.1,4.7,1.6c0,1.2-0.9,1.5-1.4,1.5c-1,0-1.2-1.2-2.5-1.2c-0.4,0-0.9,0.1-1.4,0.1c-3,10.9-6.9,17.6-12.5,17.6 c-1.9,0-3.8-1.5-3.8-4.2c0-5.4,6.4-12.8,14.3-14.8c0.9-4.2,1.9-9.4,1.9-10.7c-2.6,3.3-7.6,7.3-9.9,7.3c-0.9,0-2.2-1.2-2.2-3.1 c0-3.9,4.9-10.1,9.5-10.1c2.1,0,3.2,2.1,3.3,2C159.5,52.6,161,50.5,161.4,50.5L161.4,50.5z"></path> <path class="st0" d="M173.1,42.8c-2.7,4.5-3.8,7.6-3.8,7.6s3.6-1.8,7-6c3.8-4.7,4.5-7.1,4.5-8.1c0-0.6-0.4-0.8-0.8-0.8 C178.5,35.5,175.8,38.3,173.1,42.8L173.1,42.8z M184.8,55.4c0.6-0.8,1.1-1.4,1.6-1.4c0.5,0,0.8,0.3,0.8,0.8c0,0.5-0.2,0.8-0.8,1.6 c-2.6,3.1-6.9,7.9-9.6,7.9c-2.2,0-3.1-1.3-3.1-3.4c0-1.4,0.8-4.1,0.8-4.6c0-0.5-0.1-1-0.8-1c-2.4,0-7.7,5.4-8.5,8.3 c-0.3,1.2-0.9,1.5-1.6,1.5c-0.6,0-1.1-0.7-1.1-1.6c0-2.5,3.5-13.1,8.5-21.3c3.6-5.8,7.2-8.9,9.4-8.9c1,0,2.4,0.9,2.4,2.2 c0,1.6-0.6,5-4.7,9.7c-4.3,5-7.6,6.6-9.5,8.4c-1.1,1.1-2.2,4.4-2.3,4.8c2.6-3.2,6.2-5.5,8.6-5.5c1.6,0,2.2,0.9,2.2,2.2 c0,1.4-0.8,4.3-0.8,5.4c0,1,0.3,1.5,1.1,1.5C179.4,62,182.8,58,184.8,55.4L184.8,55.4z"></path> <path class="st0" d="M194.7,47c0.9,0,1.1,0.4,1.1,1.2c0,1.5-3.1,1.5-5.1,1.5c-3,5.3-5.6,11.1-5.6,13.9c0,0.7,0.3,1,0.3,1.5 c0,0.4-0.4,1.1-1.2,1.1c-0.8,0-1.4-0.8-1.4-2.2c0-3.2,2.6-9.1,5.3-14.4c-0.9,0-3.5,0-3.5-1.2c0-0.8,0.5-1.3,1.4-1.3 c0.8,0,1,0.4,1.6,0.4c0.5,0,1.1-0.1,1.7-0.2c1.6-2.8,2.6-4.8,3.9-6.6c0.9-1.3,1.5-1.9,2.2-1.9c0.7,0,1.1,0.3,1.1,1 c0,0.7-0.1,1.1-1.1,1.9c-0.9,0.8-2.1,3-3.6,5.7C193.1,47.4,193.9,47,194.7,47L194.7,47z"></path> <path class="st0" d="M230.2,42.5c-2.9,5.1-3.6,7.4-3.7,8.3c0.7-0.3,3.5-2.7,6.4-6.7c3.2-4.4,3.9-6.1,3.9-7.4c0-0.5-0.3-0.8-0.8-0.8 C235.2,35.9,233,37.4,230.2,42.5L230.2,42.5z M234.4,55.4c0.7-0.8,1.1-1.4,1.7-1.4c0.5,0,0.8,0.3,0.8,0.8c0,0.5-0.2,0.8-0.9,1.6 c-2.6,3.1-7.3,7.9-10.5,7.9c-1.8,0-3.9-1.5-3.9-4c0-4.7,3.6-13.1,6.7-18.5c3.3-5.6,5.8-8.4,8.8-8.4c1,0,2.1,1.1,2.1,2.2 c0,1.6-0.9,4.9-4.8,10c-3.6,4.5-6.1,6.3-8.5,8.2c-1,1.6-1.8,4.7-1.8,5.9c0,1.6,0.6,2.6,1.8,2.6C228.2,62.3,232.4,58,234.4,55.4 L234.4,55.4z"></path> <path class="st0" d="M235,57.9c1.9-0.1,6.2-3.1,6.2-4.3c0-0.4-0.2-0.5-0.7-0.5C238.9,53.1,235.8,56.6,235,57.9L235,57.9z M246.6,55.4c0.7-0.8,1.1-1.4,1.7-1.4c0.5,0,0.8,0.3,0.8,0.8c0,0.5-0.2,0.8-0.8,1.6c-2.6,3.1-7.1,8-13.2,8c-1.7,0-3.3-1.8-3.3-3.5 c0-0.5-0.2-0.7-0.2-1.3c0-0.5,0.4-1.1,0.9-1.3c2.2-5.2,5.9-7.3,8.7-7.3c1,0,2.2,0.9,2.2,1.9c0,2.8-4.8,6-8.2,6.7 c-1,0.2-1,0.5-1,1.1c0,0.5,0.3,1.6,1.6,1.6C240.7,62.4,244.6,58,246.6,55.4L246.6,55.4z"></path> <path class="st0" d="M249.5,53.9c0,2-1.4,6.6-1.4,7.2c0,0.2,0.1,0.4,0.3,0.4c1.4,0,6.7-6.8,6.7-12.1c0-1.2-0.8-1.9-0.8-2.5 c0-0.6,0.5-1.3,1.1-1.3c0.7,0,1.9,0.1,1.9,3.4c0,4.9-5.9,15-9.7,15c-1,0-2.1-1-2.1-2.2c0-1.2,1.5-4.9,1.5-7.2 c0-0.6-0.1-0.7-0.1-1.5c0-0.9,0.4-1.4,1.1-1.4C248.5,51.7,249.5,52.5,249.5,53.9L249.5,53.9z"></path> <path class="st0" d="M258.6,57.9c1.9-0.1,6.2-3.1,6.2-4.3c0-0.4-0.2-0.5-0.7-0.5C262.5,53.1,259.4,56.6,258.6,57.9L258.6,57.9z M270.2,55.4c0.7-0.8,1.1-1.4,1.7-1.4c0.5,0,0.8,0.3,0.8,0.8c0,0.5-0.2,0.8-0.8,1.6c-2.6,3.1-7.1,8-13.2,8c-1.7,0-3.3-1.8-3.3-3.5 c0-0.5-0.2-0.7-0.2-1.3c0-0.5,0.4-1.1,0.9-1.3c2.2-5.2,5.9-7.3,8.7-7.3c1,0,2.2,0.9,2.2,1.9c0,2.8-4.8,6-8.2,6.7 c-1,0.2-1,0.5-1,1.1c0,0.5,0.3,1.6,1.6,1.6C264.3,62.4,268.2,58,270.2,55.4L270.2,55.4z"></path> <path class="st0" d="M286.2,60.3c0.7-0.7,1.3-1.4,1.9-1.4c0.5,0,0.8,0.3,0.8,0.7c0,0.5-0.1,0.9-0.8,1.6c-1.1,1-2.7,2.5-5.1,2.5 c-2.8,0-3.2-3-3.2-5.3c0-1,0.2-2.8,0.2-3.6c0-0.5-0.1-0.9-0.7-0.9c-1.7,0-6,5.2-7.6,7.6c-1.1,1.5-1.6,3.1-2.4,3.1 c-0.8,0-1.6-0.5-1.6-1.1c0-0.8,2-6.4,3-9.7c0.8-3,1.1-4,2.7-4c0.3,0,0.9,0.3,0.9,0.9c0,1.5-1.8,5.7-1.8,6.4c0,0.2,0,0.3,0.1,0.3 c4-4.9,7-6.4,8.2-6.4c1.1,0,2,0.9,2,2c0,1.1-0.3,3.8-0.3,4.9c0,2.4,0.4,3.6,1.5,3.6C284.6,61.6,285.6,60.9,286.2,60.3L286.2,60.3z"></path> </g> </svg> 