<?xml version="1.0" encoding="UTF-8"?> <!-- Generator: Adobe Illustrator 23.0.3, SVG Export Plug-In . SVG Version: 6.00 Build 0) --> <svg xmlns="http://www.w3.org/2000/svg" xmlns:xlink="http://www.w3.org/1999/xlink" id="Layer_1" x="0px" y="0px" viewBox="0 0 500 200" style="enable-background:new 0 0 500 200;" xml:space="preserve"> <style type="text/css"> .st0{fill:#383838;} </style> <g> <path class="st0" d="M189.9,100c1.7,0.8,3,1.4,4.3,2.2c3.8,2.3,5.5,5.7,5.2,10.1c-0.3,4.3-2.3,7.6-6.4,9.4 c-1.1,0.5-2.2,0.8-3.3,1.1c-7.9,1.5-15.7,0.4-23.7,0.4c1.1-2,3.2-0.8,4.7-1.7c0-13.7,0-27.3,0-40.8c-1.4-1.5-3.4-0.1-4.7-1.2 c0.5-1.6,1.9-1,2.9-1c4.8-0.1,9.7-0.1,14.5,0c3.2,0.1,6.3,0.6,9.2,2.1c6.4,3.5,7.2,11.6,1.6,16.3C192.8,97.8,190.9,98.2,189.9,100z M177.2,101.1c0,7,0,13.7,0,20.4c12.1,1,15.4-1.1,15.5-9.8C192.8,102.6,189.1,100,177.2,101.1z M177.1,99.2 c4.8-0.6,10.1,1.6,12.9-3.7c2.1-3.9,2.3-8.7,0-12.4c-2.9-4.7-8.1-3-12.9-3.2C177.1,86.3,177.1,92.4,177.1,99.2z"></path> <path class="st0" d="M249,110.2c-4.8-5.2-5.4-9.1-2.3-13.1c3.8-4.9,9.8-5.5,17.2-1.6c1.1-0.9,2.1-2,3.4-2.7 c1.4-0.8,2.9-0.8,4.1,0.5c0.7,0.8,0.9,1.9,0.3,2.8c-1.1,1.6-2.4,1.4-3.9,0.4c-0.4-0.3-0.8-0.7-1.1-0.5c-1.7,1-1.1,2.1-0.8,3.2 c2,7.7-3.6,14-11.5,12.8c-2.2-0.3-4.2-0.9-6.2,0.4c-1.4,0.9-2.3,2-1.9,3.7c0.4,1.5,1.8,1.8,3.2,1.8c4.2-0.2,8.3-0.5,12.5-0.8 c6.3-0.4,9.7,3.3,8.5,9.6c-1,5.2-4.2,8.6-9.3,10.1c-5.2,1.6-10.3,1.6-14.7-2.1c-3.8-3.2-3.4-6.7,1.4-11.9c-2.9-1.6-4.8-4-4.2-7.5 C244.3,112.6,246.6,111.5,249,110.2z M256,136.1c5,0.1,10.1-3,11.6-7.1c1.4-4-0.1-7.8-5-6.9c-2.9,0.5-6,0.5-8.9,0.7 c-4,0.3-5.9,2.2-6.1,6.2C247.5,133.1,250.9,136,256,136.1z M261.3,102.9c-0.1-1.5-0.2-3-0.3-4.5c-0.2-2-1.3-3.4-3.4-3.7 c-2.3-0.3-4.7-0.6-6.4,1.5c-1.7,2.1-1.8,10.3-0.1,12.5c0.8,1.1,2,1.8,3.4,1.9C259.1,110.8,261.4,110.1,261.3,102.9z"></path> <path class="st0" d="M384.9,120c-1.8,1.4-2.9,2.8-4.6,3.6c-4.2,2-8.7,0.7-10.8-3.1c-2.2-3.9-1-8.2,2.9-10.8 c2.8-1.8,6.1-2.7,9.4-3.1c1-0.1,2-0.1,2.9-0.8c1-1.4,0.6-3.1,0.5-4.7c-0.1-2.2,0.9-5.1-1.9-6.1c-2.7-1-5.6-0.7-7.7,1.4 c-0.6,1.6,0.8,2.3,0.9,3.4c0.2,2.1-0.9,3.2-2.8,3.3c-1.7,0.1-2.8-0.9-3-2.7c-0.2-2.2,0.8-3.9,2.5-5.1c4.5-3.1,9.3-3.3,14.2-1.4 c2.7,1,2.9,3.5,2.9,5.8c0.1,5.3,0,10.6,0,16c0,1.8-0.3,3.7,0.6,5.2c1.4,1.4,2.6-0.3,3.8,0c0.5,1.8-1.1,2.2-2.1,2.8 C389.5,125.5,387.8,124.7,384.9,120z M384.7,108c-3,0.1-5.8,0.6-8.1,2.3c-2.6,1.8-3.6,4.8-2.6,7.9c0.7,2,1.8,3.5,4.2,3.6 c2.5,0.1,5.7-2.3,6.4-5.4C385.2,113.7,385.7,110.9,384.7,108z"></path> <path class="st0" d="M87.1,143.2c2.8-7,5.5-13.7,8.4-20.8c3.1,0.5,5.9,1,9,1.5c0,7.4,0,14.7,0,22.3 C98.4,146.8,92.9,145.4,87.1,143.2z"></path> <path class="st0" d="M286,99c-4.3,6.9-2.4,14.5-2.8,21.6c1.1,1.9,3.1,0.6,4.1,1.8c-0.2,1.5-7.6,1.8-13.5,0.5c0-1.3,0.9-1,1.7-1.1 c0.8-0.1,1.7,0.2,2.4-0.8c0-13.3,0-26.7,0-40c-1.3-1.8-3.3-0.4-5.5-2.2c3.8-0.3,6.9-0.6,10.4-0.8c0.9,7-0.2,13.9,0.6,20.7 c0.8,0.4,1.4,0.2,2-0.1C285.7,98.6,285.9,98.8,286,99z"></path> <path class="st0" d="M344.5,93.8c0,2.8,0,5.2,0,8.2c-2.1-1.3-2.1-3.4-3.2-4.7c-2.7-3.5-7.9-3.8-10.4-0.5c-2.2,2.9-1.4,5.8,2.1,7 c1.9,0.6,3.9,0.8,5.8,1.3c4.1,1,7.7,2.6,8.4,7.4c0.5,4.2-0.4,8.1-4.2,10.5c-3.9,2.5-7.9,2.1-11.6-0.6c-0.3-0.2-0.6-0.4-0.8-0.5 c-1.3-0.3-1.6,1.7-3.2,1c0-3.3,0-6.7,0-10.6c2,1.2,1.8,3.2,2.5,4.7c2,4.2,5,6.2,8.9,5.8c3.3-0.3,5.7-2.6,6-5.7 c0.2-2.8-1.1-4.6-4.5-5.7c-2.2-0.7-4.5-1-6.8-1.6c-5.2-1.5-7.5-5.7-5.9-10.8c1.5-4.9,6.8-7.6,11.5-5.5 C341,94.2,342.6,95.1,344.5,93.8z"></path> <path class="st0" d="M311.2,86.8c1.3-1,2.8-0.6,4.6-1.4c0.2,2.9,0.3,5.3,0.4,7.7c2.2,1.6,5-0.1,7.8,1.6c-2.6,1.7-5.4,0.2-7.9,1.5 c0,6.7,0,13.5,0,20.3c0,1.9-0.2,4.3,2.1,5.1c2.4,0.8,4.1-0.7,5.4-2.6c0.3-0.4,0.5-0.9,1.1-0.8c-0.4,4.1-3.5,6.5-7.9,6.4 c-4.1-0.1-5.7-1.7-5.8-6.4c-0.2-7.3,0-14.6,0-21.5c-1.5-1.6-3.3-0.4-4.6-1.8c0.9-1.8,2.8-0.5,4-1.3C311.6,91.5,310.4,89,311.2,86.8 z"></path> <path class="st0" d="M352.1,96.3c-1.7-1.2-3.4-0.1-4.5-1.5c1-1.9,3-0.4,4.3-1.8c0.6-0.8,0.2-2,0.2-3.1c0.1-1,0-2,0-3 c1.4-1.3,3.1-1.2,4.7-1.1c1.1,2.4-0.1,5,0.8,7.3c2.1,1.4,4.9-0.2,7.4,1.5c-2.6,1.5-5.2,0.1-7.8,1.5c0,6.9,0,14,0,21.1 c0,1.6,0,3.6,1.9,4.2c1.9,0.6,3.6-0.1,4.8-1.7c0.5-0.7,0.8-1.8,2.7-1.7c-1.5,3.5-3.6,5.6-7.1,6.2c-4.5,0.7-7.1-1.1-7.4-5.7 c-0.3-5.1-0.1-10.3-0.1-15.4C352.1,101,352.1,98.7,352.1,96.3z"></path> <path class="st0" d="M69.8,130.6c5.6-4.9,11.1-9.7,16.9-14.7c2,1.6,3.9,3.2,6.1,5c-3.8,6.3-7.6,12.7-11.3,19 C77,138.2,73.8,135.7,69.8,130.6z"></path> <path class="st0" d="M412.8,95.4c-8.3,7.2-5.2,16.9-5.9,25.4c1.5,1.5,3.3,0.3,4.5,1.3c-2.4,1.5-8.7,1.8-14.2,0.5 c1.3-1.5,2.9-0.6,4.4-1.3c0-8.3,0-16.7,0-25.2c-1.2-1.4-3.3,0.1-4.8-1.4c3-1.9,6.3-0.4,9.2-1.1c1.1,1.6,0.3,3.2,0.8,4.5 c0.5,0.3,0.8,0.2,1.1-0.3c1.4-2.1,3-4,5.5-4.8c3-0.9,5.9,0.5,6.3,3.1c0.3,1.8-0.3,3.4-2.1,4c-2,0.7-3.2-0.4-3.7-2.3 C413.8,97.2,414.2,96.3,412.8,95.4z"></path> <path class="st0" d="M211.5,121c1.9,1.2,3.6,0.1,4.7,1.4c-3,1.4-9.6,1.5-14.3,0.3c1.2-1.6,3.3-0.3,4.5-1.5c0-8.3,0-16.6,0-24.8 c-1.3-1.5-3.4,0-4.8-1.6c1.2-1.6,3-0.8,4.5-0.9c1.6-0.1,3.3,0,5.1,0c0.1,1.2,0.3,2.5,0.4,3.7c0.7,0.1,1.1,0,1.4-0.4 c1.2-1.6,2.5-3.1,4.5-3.9c2.4-0.9,4.6-0.7,6.3,1.4c1,1.3,1,2.8,0.1,4.2c-0.7,1-1.6,1.7-2.9,1.4c-1.4-0.4-2.3-1.3-2.3-2.9 c0-0.6,0.1-1.3-1.2-2.1C209.2,102.4,212.4,112.2,211.5,121z"></path> <path class="st0" d="M84.2,112.4c-6.8,3.8-13.1,7.3-19.7,11c-2.7-3.4-3.9-7.1-4.8-11.6c7.3-1.8,14.5-3.6,21.6-5.4 C82.9,108.1,83.1,110.2,84.2,112.4z"></path> <path class="st0" d="M236.6,93.7c0,9.6,0,18.5,0,27.2c1.5,1.4,3.3,0.2,4.5,1.3c-2.4,1.5-8.8,1.7-14.1,0.5c0.9-1.7,2.8-0.4,4.1-1.7 c0-8,0-16.2,0-24.7c-0.9-1.7-3.4,0.3-4.8-1.9C229.6,93.4,232.8,94,236.6,93.7z"></path> <path class="st0" d="M59,97.2c-0.4-4.1,0.2-7.2,1.8-10.5c7,2.2,13.9,4.4,20.7,6.5c0.8,1.9,0.1,3.5-0.2,5.5 C73.8,99,66.6,97.6,59,97.2z"></path> <path class="st0" d="M285.5,98.4c1.6-3.2,4.4-5,7.8-5.5c6.1-0.9,9.8,3,9.6,7.9c-0.3,6.8-0.1,13.6-0.1,20.2c1.5,1.4,3.3,0.3,4.5,1.2 c-2.3,1.5-8.1,1.8-14.1,0.6c1-2,3.2-0.4,4.5-2c0-7.1,0.1-14.6,0-22c-0.1-3.7-2.1-5-5.6-4c-2.5,0.7-4.1,2.8-6.1,4.2 C285.9,98.8,285.7,98.6,285.5,98.4z"></path> <path class="st0" d="M89.9,81.9c-0.7,1.6-1.8,2.5-3.5,3.6c-5.5-4.8-11-9.6-16.8-14.6c2.1-2.4,4-4.4,6.7-6 C80.9,70.6,85.5,76.3,89.9,81.9z"></path> <path class="st0" d="M106.6,77.4c-1.7,0.5-3,0.7-4.5-0.4c-0.6-6.7-1.2-13.6-1.9-20.6c2.5-0.9,4.8-0.4,7.6-0.4 C108.1,63.1,107.1,70.1,106.6,77.4z"></path> <path class="st0" d="M131.5,65.5c2.5,0.9,3.5,2.6,4.7,3.7c-5,5.3-9.7,10.3-14.2,15.1c-2,0.2-2.4-1.1-3.6-1.9 C122.9,76.5,127.2,71,131.5,65.5z"></path> <path class="st0" d="M149.2,102c-6.9,0-13.5,0-20,0c-1.8,0-2.2-1.1-1.6-3.2c3.4-0.3,6.9-0.7,10.5-1c3.4-0.3,6.9-0.5,10.3-0.8 C149.8,98.7,149.2,100.5,149.2,102z"></path> <path class="st0" d="M120,117.7c1.1-1.6,1.9-2.3,3.2-1.2c5.1,4.5,10.2,8.9,15.2,13.2c-0.7,1.9-1.9,2.8-3.3,4 C130,128.4,125,123.1,120,117.7z"></path> <path class="st0" d="M236.8,83.9c-0.4,1.8-1.5,2.9-3.5,2.6c-1.6-0.2-2.7-1.4-2.5-3.1c0.2-1.9,1.5-2.9,3.4-2.7 C235.9,80.9,236.8,82.1,236.8,83.9z"></path> </g> </svg> 