<?xml version="1.0" encoding="UTF-8"?> <!-- Generator: Adobe Illustrator 23.0.3, SVG Export Plug-In . SVG Version: 6.00 Build 0) --> <svg xmlns="http://www.w3.org/2000/svg" xmlns:xlink="http://www.w3.org/1999/xlink" id="Layer_1" x="0px" y="0px" viewBox="0 0 262.9 97.9" style="enable-background:new 0 0 262.9 97.9;" xml:space="preserve"> <style type="text/css"> .st0{fill:#383838;} </style> <g> <path class="st0" d="M17.3,75.8H5.7V37.7c5.1-0.2,8.7-0.4,10.8-0.4c4,0,7.1,0.8,9.3,2.5c2.2,1.7,3.3,4.1,3.3,7.2 c0,3-1.6,5.4-4.8,7.2c4.7,1.7,7.1,5.1,7.1,10.2c0,3.5-1.3,6.2-3.9,8.3C24.9,74.8,21.5,75.8,17.3,75.8 M12.4,43.1v9.1 c1,0.1,2.1,0.1,3.3,0.1c4.4,0,6.6-1.7,6.6-5c0-2.9-2-4.4-6-4.4C15.3,43,14,43,12.4,43.1 M12.4,57.5v12.6c1.4,0.1,2.5,0.2,3.3,0.2 c3,0,5.2-0.5,6.6-1.5c1.4-1,2-2.7,2-5.1c0-2.2-0.6-3.8-1.9-4.7c-1.3-1-3.5-1.5-6.6-1.5C15.2,57.5,14.1,57.5,12.4,57.5 M58.9,75.8 L48.7,60.1c-1,0-2.5-0.1-4.3-0.2v15.9h-7V37.7c0.4,0,1.8-0.1,4.4-0.2c2.6-0.1,4.6-0.2,6.2-0.2c9.7,0,14.5,3.7,14.5,11.3 c0,2.3-0.7,4.3-2,6.2c-1.3,1.9-3,3.2-5,3.9l11.3,17.2H58.9 M44.4,43.5v10.6c1.3,0.1,2.2,0.2,2.9,0.2c2.8,0,4.9-0.4,6.2-1.2 c1.3-0.8,2-2.3,2-4.7c0-1.9-0.7-3.2-2.1-3.9c-1.4-0.7-3.6-1.1-6.6-1.1C46,43.4,45.2,43.4,44.4,43.5 M70.1,75.8V45 c2.3,0,5.1-0.1,6.8-1.1v31.9H70.1 M84.8,75.8V37.7h6.8v32.1h17.2v6H84.8 M114.3,75.8V37.7h6.8v32.1h17.2v6H114.3 M143.9,75.8V37.7 h6.8v38.1H143.9 M180.9,75.8l-2.8-7.7H165l-2.7,7.7h-7.5L170,37.1h3l15.3,38.7H180.9 M171.5,48.8l-4.6,14.1h9.2L171.5,48.8 M217.4,76.3l-18.5-24.1v23.6h-6.5V37.7h3.3l18,23v-23h6.5v38.7H217.4 M243.5,43.7v32.1h-6.8V43.7h-12.1v-6h31.6v6H243.5"></path> <path class="st0" d="M7.1,91.4h4.1l-2.1-5.8L7.1,91.4L7.1,91.4z M11.7,92.8H6.6l-0.9,2.6c-0.2,0-0.3,0-0.5,0c-0.2,0-0.3,0-0.5,0 c-0.2,0-0.3,0-0.5,0c-0.2,0-0.3,0-0.5,0l4.4-11.4c0.2,0,0.3,0,0.5,0c0.2,0,0.4,0,0.6,0c0.2,0,0.4,0,0.5,0c0.2,0,0.4,0,0.5,0 l4.4,11.4c-0.1,0-0.3,0-0.5,0c-0.2,0-0.4,0-0.5,0c-0.2,0-0.3,0-0.5,0c-0.2,0-0.3,0-0.5,0L11.7,92.8L11.7,92.8z"></path> <path class="st0" d="M25.3,93.8c0.3,0.5,0.4,0.9,0.5,1.3c-0.5,0.2-1.1,0.3-1.6,0.4c-0.5,0.1-1.1,0.1-1.8,0.1c-1,0-1.9-0.1-2.6-0.4 c-0.8-0.3-1.4-0.7-2-1.2c-0.5-0.5-0.9-1.1-1.2-1.8c-0.3-0.7-0.4-1.5-0.4-2.4c0-0.9,0.1-1.7,0.4-2.5c0.3-0.7,0.7-1.4,1.2-1.9 c0.5-0.5,1.2-0.9,2-1.2c0.8-0.3,1.6-0.4,2.6-0.4c0.7,0,1.3,0,1.8,0.1c0.5,0.1,1,0.2,1.4,0.3c0,0.2-0.1,0.5-0.2,0.7 c-0.1,0.2-0.2,0.4-0.3,0.7c-0.2-0.1-0.4-0.1-0.5-0.1c-0.2,0-0.4-0.1-0.6-0.1c-0.2,0-0.4-0.1-0.7-0.1c-0.2,0-0.5,0-0.8,0 c-1.4,0-2.4,0.4-3.2,1.2c-0.8,0.8-1.1,1.9-1.1,3.4c0,0.7,0.1,1.4,0.3,1.9c0.2,0.5,0.5,1,0.9,1.4c0.4,0.4,0.9,0.6,1.4,0.8 c0.5,0.2,1.2,0.3,1.8,0.3c0.5,0,1,0,1.4-0.1C24.5,94.1,24.9,93.9,25.3,93.8L25.3,93.8z"></path> <path class="st0" d="M36.8,93.8c0.3,0.5,0.4,0.9,0.5,1.3c-0.5,0.2-1.1,0.3-1.6,0.4c-0.5,0.1-1.1,0.1-1.8,0.1c-1,0-1.9-0.1-2.6-0.4 c-0.8-0.3-1.4-0.7-2-1.2c-0.5-0.5-0.9-1.1-1.2-1.8c-0.3-0.7-0.4-1.5-0.4-2.4c0-0.9,0.1-1.7,0.4-2.5c0.3-0.7,0.7-1.4,1.2-1.9 c0.5-0.5,1.2-0.9,2-1.2c0.8-0.3,1.6-0.4,2.6-0.4c0.7,0,1.3,0,1.8,0.1c0.5,0.1,1,0.2,1.4,0.3c0,0.2-0.1,0.5-0.2,0.7 c-0.1,0.2-0.2,0.4-0.3,0.7c-0.2-0.1-0.4-0.1-0.5-0.1c-0.2,0-0.4-0.1-0.6-0.1c-0.2,0-0.4-0.1-0.7-0.1c-0.2,0-0.5,0-0.8,0 c-1.4,0-2.4,0.4-3.2,1.2c-0.8,0.8-1.1,1.9-1.1,3.4c0,0.7,0.1,1.4,0.3,1.9c0.2,0.5,0.5,1,0.9,1.4c0.4,0.4,0.9,0.6,1.4,0.8 c0.5,0.2,1.2,0.3,1.8,0.3c0.5,0,1,0,1.4-0.1C36.1,94.1,36.5,93.9,36.8,93.8L36.8,93.8z"></path> <path class="st0" d="M39.8,84.1h7.4c0,0.2,0.1,0.4,0.1,0.7c0,0.1,0,0.2,0,0.4c0,0.1,0,0.2,0,0.3h-5.5v3.3h4.4c0,0.1,0,0.2,0.1,0.3 c0,0.1,0,0.2,0,0.4c0,0.1,0,0.2,0,0.4c0,0.1,0,0.2-0.1,0.3h-4.4v3.9h5.6c0,0.2,0.1,0.4,0.1,0.7c0,0.1,0,0.2,0,0.4 c0,0.1,0,0.2,0,0.3h-7.5V84.1L39.8,84.1z"></path> <path class="st0" d="M49.8,84.1c0.1,0,0.3,0,0.4,0c0.2,0,0.3,0,0.5,0c0.2,0,0.3,0,0.5,0c0.2,0,0.3,0,0.5,0v10H57c0,0.1,0,0.2,0,0.4 c0,0.1,0,0.2,0,0.3c0,0.3,0,0.5-0.1,0.7h-7.2V84.1L49.8,84.1z"></path> <path class="st0" d="M59.1,84.1h7.4c0,0.2,0.1,0.4,0.1,0.7c0,0.1,0,0.2,0,0.4c0,0.1,0,0.2,0,0.3H61v3.3h4.4c0,0.1,0,0.2,0.1,0.3 c0,0.1,0,0.2,0,0.4c0,0.1,0,0.2,0,0.4c0,0.1,0,0.2-0.1,0.3H61v3.9h5.6c0,0.2,0.1,0.4,0.1,0.7c0,0.1,0,0.2,0,0.4c0,0.1,0,0.2,0,0.3 h-7.5V84.1L59.1,84.1z"></path> <path class="st0" d="M69.2,84.1c0.3,0,0.5,0,0.7-0.1c0.2,0,0.4,0,0.7-0.1c0.2,0,0.4,0,0.7,0c0.2,0,0.5,0,0.8,0 c0.6,0,1.3,0.1,1.9,0.2c0.6,0.1,1.2,0.3,1.7,0.6c0.5,0.3,0.9,0.6,1.2,1.1c0.3,0.4,0.5,1,0.5,1.7c0,0.4-0.1,0.8-0.2,1.1 c-0.2,0.3-0.4,0.6-0.6,0.9c-0.3,0.3-0.5,0.5-0.9,0.7c-0.3,0.2-0.6,0.4-0.9,0.5l-0.2,0.1l3.9,4.8c-0.3,0-0.7,0-1.1,0 c-0.3,0-0.7,0-1,0l-4.3-5.3v-0.1l0.1,0c0.3-0.1,0.7-0.2,1.1-0.3c0.4-0.1,0.7-0.3,1-0.5c0.3-0.2,0.6-0.5,0.8-0.7 c0.2-0.3,0.3-0.6,0.3-1.1c0-0.8-0.3-1.3-0.8-1.7c-0.5-0.4-1.2-0.6-2.1-0.6c-0.2,0-0.4,0-0.6,0c-0.2,0-0.4,0-0.6,0v10.2 c-0.1,0-0.3,0-0.5,0c-0.2,0-0.3,0-0.5,0c-0.1,0-0.3,0-0.5,0c-0.2,0-0.3,0-0.5,0V84.1L69.2,84.1z"></path> <path class="st0" d="M82.3,91.4h4.1l-2.1-5.8L82.3,91.4L82.3,91.4z M86.9,92.8h-5.1l-0.9,2.6c-0.2,0-0.3,0-0.5,0 c-0.2,0-0.3,0-0.5,0c-0.2,0-0.3,0-0.5,0c-0.2,0-0.3,0-0.5,0l4.4-11.4c0.2,0,0.3,0,0.5,0c0.2,0,0.4,0,0.6,0c0.2,0,0.4,0,0.5,0 c0.2,0,0.4,0,0.5,0l4.4,11.4c-0.1,0-0.3,0-0.5,0c-0.2,0-0.4,0-0.5,0c-0.2,0-0.3,0-0.5,0c-0.2,0-0.3,0-0.5,0L86.9,92.8L86.9,92.8z"></path> <path class="st0" d="M94.2,85.5h-3.5c0-0.1,0-0.2-0.1-0.3c0-0.1,0-0.2,0-0.4c0-0.1,0-0.2,0-0.4c0-0.1,0-0.2,0.1-0.3h8.9 c0,0.1,0,0.2,0.1,0.3c0,0.1,0,0.2,0,0.3c0,0.1,0,0.2,0,0.4c0,0.1,0,0.3-0.1,0.4h-3.5v10c-0.3,0-0.6,0-0.9,0c-0.3,0-0.7,0-1,0V85.5 L94.2,85.5z"></path> <path class="st0" d="M101.7,84.1c0.1,0,0.3,0,0.5,0c0.2,0,0.3,0,0.5,0c0.2,0,0.3,0,0.5,0c0.2,0,0.3,0,0.5,0v11.4 c-0.2,0-0.3,0-0.5,0c-0.2,0-0.3,0-0.5,0c-0.2,0-0.3,0-0.5,0c-0.2,0-0.3,0-0.5,0V84.1L101.7,84.1z"></path> <path class="st0" d="M106.9,84.1c0.1,0,0.3,0,0.4,0c0.2,0,0.3,0,0.4,0c0.1,0,0.3,0,0.4,0c0.2,0,0.3,0,0.4,0l5.9,8.6v-8.6 c0.1,0,0.3,0,0.5,0c0.2,0,0.3,0,0.5,0c0.1,0,0.3,0,0.4,0c0.2,0,0.3,0,0.4,0v11.4c-0.1,0-0.3,0-0.4,0c-0.2,0-0.3,0-0.4,0 c-0.1,0-0.3,0-0.4,0c-0.2,0-0.3,0-0.4,0l-5.9-8.5v8.5c-0.1,0-0.3,0-0.4,0c-0.2,0-0.3,0-0.5,0c-0.2,0-0.3,0-0.5,0 c-0.2,0-0.3,0-0.4,0V84.1L106.9,84.1z"></path> <path class="st0" d="M127.4,89.6c0.2,0,0.3,0,0.5,0c0.2,0,0.3,0,0.5,0c0.2,0,0.3,0,0.5,0c0.2,0,0.3,0,0.4,0v5.6 c-0.3,0.1-0.5,0.2-0.9,0.2c-0.3,0.1-0.6,0.1-1,0.2c-0.3,0-0.7,0.1-1,0.1c-0.3,0-0.7,0-1,0c-1,0-1.9-0.1-2.7-0.4 c-0.8-0.3-1.5-0.6-2-1.1c-0.5-0.5-1-1.1-1.3-1.8c-0.3-0.7-0.4-1.5-0.4-2.4c0-0.9,0.1-1.7,0.4-2.5c0.3-0.7,0.7-1.4,1.3-1.9 c0.6-0.5,1.2-0.9,2-1.2c0.8-0.3,1.6-0.4,2.6-0.4c0.7,0,1.3,0,1.9,0.1c0.5,0.1,1,0.2,1.4,0.3c0,0.2-0.1,0.5-0.2,0.7 c-0.1,0.2-0.2,0.4-0.3,0.7c-0.3-0.1-0.7-0.2-1.1-0.3c-0.4-0.1-0.9-0.1-1.5-0.1c-0.7,0-1.3,0.1-1.8,0.3c-0.5,0.2-1,0.5-1.4,0.9 c-0.4,0.4-0.7,0.9-0.9,1.4c-0.2,0.6-0.3,1.2-0.3,1.9c0,0.7,0.1,1.4,0.3,1.9c0.2,0.5,0.5,1,0.9,1.4c0.4,0.4,0.9,0.6,1.4,0.8 c0.5,0.2,1.1,0.3,1.8,0.3c0.4,0,0.7,0,1-0.1c0.3,0,0.6-0.1,0.8-0.1V89.6L127.4,89.6z"></path> <path class="st0" d="M136.8,84.1c0.1,0,0.3,0,0.5,0c0.2,0,0.3,0,0.5,0c0.2,0,0.3,0,0.5,0c0.2,0,0.3,0,0.5,0v11.4 c-0.1,0-0.3,0-0.5,0c-0.2,0-0.3,0-0.5,0c-0.2,0-0.3,0-0.5,0c-0.2,0-0.3,0-0.5,0V84.1L136.8,84.1z"></path> <path class="st0" d="M142,84.1c0.1,0,0.3,0,0.4,0c0.2,0,0.3,0,0.4,0c0.1,0,0.3,0,0.4,0c0.2,0,0.3,0,0.4,0l5.9,8.6v-8.6 c0.2,0,0.3,0,0.5,0c0.2,0,0.3,0,0.5,0c0.1,0,0.3,0,0.4,0c0.2,0,0.3,0,0.4,0v11.4c-0.1,0-0.3,0-0.4,0c-0.2,0-0.3,0-0.4,0 s-0.3,0-0.4,0c-0.2,0-0.3,0-0.4,0l-5.9-8.5v8.5c-0.1,0-0.3,0-0.4,0c-0.2,0-0.3,0-0.5,0c-0.2,0-0.3,0-0.5,0c-0.2,0-0.3,0-0.4,0V84.1 L142,84.1z"></path> <path class="st0" d="M154.8,84.1c0.1,0,0.3,0,0.4,0c0.2,0,0.3,0,0.4,0c0.1,0,0.3,0,0.4,0c0.2,0,0.3,0,0.4,0l5.9,8.6v-8.6 c0.2,0,0.3,0,0.5,0c0.2,0,0.3,0,0.5,0c0.1,0,0.3,0,0.4,0c0.1,0,0.3,0,0.4,0v11.4c-0.1,0-0.3,0-0.4,0c-0.2,0-0.3,0-0.4,0 s-0.3,0-0.4,0c-0.2,0-0.3,0-0.4,0l-5.9-8.5v8.5c-0.1,0-0.3,0-0.4,0c-0.2,0-0.3,0-0.5,0c-0.2,0-0.3,0-0.5,0c-0.2,0-0.3,0-0.4,0V84.1 L154.8,84.1z"></path> <path class="st0" d="M172.7,94.3c0.6,0,1.2-0.1,1.6-0.3c0.5-0.2,0.8-0.5,1.1-0.9c0.3-0.4,0.5-0.9,0.7-1.4c0.2-0.5,0.2-1.2,0.2-1.9 c0-0.7-0.1-1.3-0.2-1.9c-0.1-0.6-0.4-1-0.7-1.4c-0.3-0.4-0.7-0.7-1.1-0.9c-0.5-0.2-1-0.3-1.6-0.3c-0.6,0-1.2,0.1-1.6,0.3 c-0.5,0.2-0.8,0.5-1.1,0.9c-0.3,0.4-0.5,0.9-0.7,1.4c-0.2,0.6-0.2,1.2-0.2,1.9c0,0.7,0.1,1.3,0.2,1.9c0.1,0.5,0.4,1,0.7,1.4 c0.3,0.4,0.7,0.7,1.1,0.9C171.5,94.2,172,94.3,172.7,94.3L172.7,94.3z M172.7,95.7c-1,0-1.8-0.1-2.5-0.4c-0.7-0.3-1.3-0.7-1.8-1.2 c-0.5-0.5-0.8-1.1-1-1.9c-0.2-0.7-0.3-1.5-0.3-2.4c0-0.9,0.1-1.6,0.3-2.4c0.2-0.7,0.6-1.3,1-1.9c0.5-0.5,1.1-0.9,1.8-1.2 c0.7-0.3,1.6-0.4,2.5-0.4c1,0,1.8,0.1,2.5,0.4c0.7,0.3,1.3,0.7,1.8,1.2c0.5,0.5,0.8,1.1,1,1.9c0.2,0.7,0.3,1.5,0.3,2.4 c0,0.9-0.1,1.6-0.3,2.4c-0.2,0.7-0.6,1.3-1,1.9c-0.5,0.5-1.1,0.9-1.8,1.2C174.5,95.5,173.6,95.7,172.7,95.7L172.7,95.7z"></path> <path class="st0" d="M179.9,84.1c0.1,0,0.3,0,0.5,0c0.2,0,0.4,0,0.6,0c0.2,0,0.3,0,0.5,0c0.2,0,0.4,0,0.5,0l3.4,9.7l3.4-9.7 c0.3,0,0.7,0,1,0c0.2,0,0.3,0,0.5,0c0.2,0,0.3,0,0.5,0l-4.4,11.4c-0.2,0-0.3,0-0.5,0c-0.2,0-0.4,0-0.6,0s-0.4,0-0.6,0 c-0.2,0-0.4,0-0.6,0L179.9,84.1L179.9,84.1z"></path> <path class="st0" d="M194.9,91.4h4.1l-2.1-5.8L194.9,91.4L194.9,91.4z M199.5,92.8h-5.1l-0.9,2.6c-0.2,0-0.3,0-0.5,0 c-0.2,0-0.3,0-0.5,0c-0.2,0-0.3,0-0.5,0c-0.2,0-0.3,0-0.5,0l4.4-11.4c0.2,0,0.3,0,0.5,0c0.2,0,0.4,0,0.6,0c0.2,0,0.4,0,0.5,0 c0.2,0,0.4,0,0.5,0l4.4,11.4c-0.1,0-0.3,0-0.5,0c-0.2,0-0.4,0-0.5,0c-0.2,0-0.3,0-0.5,0c-0.2,0-0.3,0-0.5,0L199.5,92.8L199.5,92.8z "></path> <path class="st0" d="M206.8,85.5h-3.5c0-0.1,0-0.2-0.1-0.3c0-0.1,0-0.2,0-0.4c0-0.1,0-0.2,0-0.4c0-0.1,0-0.2,0.1-0.3h8.9 c0,0.1,0,0.2,0.1,0.3c0,0.1,0,0.2,0,0.3c0,0.1,0,0.2,0,0.4c0,0.1,0,0.3-0.1,0.4h-3.5v10c-0.3,0-0.6,0-0.9,0c-0.3,0-0.7,0-1,0V85.5 L206.8,85.5z"></path> <path class="st0" d="M214.3,84.1c0.1,0,0.3,0,0.5,0c0.2,0,0.3,0,0.5,0c0.2,0,0.3,0,0.5,0c0.2,0,0.3,0,0.5,0v11.4 c-0.1,0-0.3,0-0.5,0c-0.2,0-0.3,0-0.5,0c-0.2,0-0.3,0-0.5,0c-0.2,0-0.3,0-0.5,0V84.1L214.3,84.1z"></path> <path class="st0" d="M224.7,94.3c0.6,0,1.2-0.1,1.6-0.3c0.5-0.2,0.8-0.5,1.1-0.9c0.3-0.4,0.5-0.9,0.7-1.4c0.2-0.5,0.2-1.2,0.2-1.9 c0-0.7-0.1-1.3-0.2-1.9c-0.1-0.6-0.4-1-0.7-1.4c-0.3-0.4-0.7-0.7-1.1-0.9c-0.5-0.2-1-0.3-1.6-0.3c-0.6,0-1.2,0.1-1.6,0.3 c-0.5,0.2-0.8,0.5-1.1,0.9c-0.3,0.4-0.5,0.9-0.7,1.4c-0.2,0.6-0.2,1.2-0.2,1.9c0,0.7,0.1,1.3,0.2,1.9c0.1,0.5,0.4,1,0.7,1.4 c0.3,0.4,0.7,0.7,1.1,0.9C223.5,94.2,224.1,94.3,224.7,94.3L224.7,94.3z M224.7,95.7c-1,0-1.8-0.1-2.5-0.4 c-0.7-0.3-1.3-0.7-1.8-1.2c-0.5-0.5-0.8-1.1-1-1.9c-0.2-0.7-0.3-1.5-0.3-2.4c0-0.9,0.1-1.6,0.3-2.4c0.2-0.7,0.6-1.3,1-1.9 c0.5-0.5,1.1-0.9,1.8-1.2c0.7-0.3,1.6-0.4,2.5-0.4c1,0,1.8,0.1,2.5,0.4c0.7,0.3,1.3,0.7,1.8,1.2c0.5,0.5,0.8,1.1,1,1.9 c0.2,0.7,0.3,1.5,0.3,2.4c0,0.9-0.1,1.6-0.3,2.4c-0.2,0.7-0.6,1.3-1,1.9c-0.5,0.5-1.1,0.9-1.8,1.2 C226.5,95.5,225.7,95.7,224.7,95.7L224.7,95.7z"></path> <g> <path class="st0" d="M233.2,84.1c0.1,0,0.3,0,0.4,0c0.2,0,0.3,0,0.4,0c0.1,0,0.3,0,0.4,0c0.2,0,0.3,0,0.4,0l5.9,8.6v-8.6 c0.1,0,0.3,0,0.5,0c0.2,0,0.3,0,0.5,0c0.1,0,0.3,0,0.4,0c0.1,0,0.3,0,0.4,0v11.4c-0.1,0-0.3,0-0.4,0c-0.2,0-0.3,0-0.4,0 c-0.1,0-0.3,0-0.4,0c-0.2,0-0.3,0-0.4,0L235,87v8.5c-0.1,0-0.3,0-0.4,0c-0.2,0-0.3,0-0.5,0c-0.2,0-0.3,0-0.5,0c-0.2,0-0.3,0-0.4,0 V84.1L233.2,84.1z"></path> <path class="st0" d="M70.5,0.4c-3.6,0.4-9.7,6.2-8.3,7.5c0.7,0.6,9.3-5.6,11.1-5.9c-2.8,2.8-13.7,10.6-13.6,14.3 c0,1.8,0.6,3.2,2.4,1.8c4.9-3.7,14.6-10.6,16.5-11.7c-2.4,1.8-16.9,12.7-17,14.6c-0.1,3.4,3,1.8,4.6,0.8c4-2.5,8.9-5.6,13.6-8.2 c-4.6,3.2-8.8,6.1-13.2,9.9c-1.9,1.6-2.9,2-2.4,3.9c0.5,2.1,1.9,0.7,4.1-0.5c2.2-1.2,4.3-2.3,6.5-3.5c-1.1,0.8-4.4,3.4-6.3,5.6 c-1.6,1.9-1.1,3.3,1.7,2c5.7-2.6,11-5.5,11.4-5.3c-2.3,2.6-7.5,5.5-10.7,6.6c8.4-0.5,14.7-6.9,14.7-10.2c0-1.4-1.8-1-2.3-0.5 l-9.8,5.7c11.6-8.3,12.6-9.3,13.4-10c1.4-1.3,2.4-4.7-1.3-3C81,16.7,79,18.3,74,21.1c2.5-2,14-9.6,14.4-11.4 c-0.6-4.5-2.2-2.8-5.3-1.2c-3.4,1.8-6.7,4.1-10.8,6.7c1.8-1.4,5.5-5.1,10.2-8.3c3.1-2.1,3.2-3.7,2.6-4.5c-0.5-0.6-1.3-1.2-2.7-0.9 c-6.5,3-8.3,4-14.1,8.2c1.3-1.2,3.9-3.6,6.3-5.5c2.8-2.2,5.1-3.8,2.3-4.8C75.8-1,69.7,1.7,65.3,4.8C66.8,3.3,69,1.8,70.5,0.4"></path> </g> <path class="st0" d="M75.5,34.9c-2.5,1.8-4.1,2.5-5.6,3.5c-1.6,1.1-0.4,3.4,1.6,2.9c2.2-0.4,4.6-2.1,6.3-2.9c-1.3,1.1-3.4,2.3-5,3 c-3.3,1.3,2.9,1.9,4.6-0.8c-0.8,0.7-2.6,1.2-3.5,1.2c1-0.5,3.3-1.5,3.7-1.9c1.6-1.4,3.2-4.5,0.4-3.3c-2.2,0.9-3.5,1.7-4,1.9 c-1.3,0.4,0.5-0.7,2.9-2.3c4.8-3.2,0.7-4.1-0.6-3.4c-2.7,1.4-3.9,1.7-5.5,2.5c0.3-0.6,1.4-1.1,2.2-2.2c-1.6,0.6-3,1.5-3.9,1.9 c-1.2,0.5-1,2.2,0.4,2.2C71.3,37.1,72.8,36.1,75.5,34.9"></path> <polyline class="st0" points="70.8,32.5 70.8,32.5 70.8,32.5 70.8,32.5 "></polyline> <polyline class="st0" points="70.8,32.5 70.8,32.5 70.8,32.5 70.8,32.5 70.8,32.5 "></polyline> <path class="st0" d="M78.2,0.6h-5.4c1.8-0.8,3.2-1.3,3.9-1.3c0.1,0,0.2,0,0.3,0c0.9,0.3,1.2,0.7,1.2,1.1 C78.2,0.6,78.2,0.6,78.2,0.6"></path> <path class="st0" d="M70.3,0.6h-0.7c0.3-0.1,0.7-0.2,1-0.2C70.4,0.5,70.3,0.6,70.3,0.6"></path> <path class="st0" d="M70.8,32.5L70.8,32.5c3.2-1,8.3-3.9,10.7-6.6l0,0l0,0c0,0,0,0,0,0c-0.6,0-5.9,2.8-11.4,5.3 c-0.7,0.3-1.3,0.5-1.8,0.5c-0.6,0-0.9-0.3-0.9-0.7c0-0.5,0.3-1.1,0.9-1.8c1.9-2.2,5.2-4.9,6.3-5.6l0,0l0,0 c-2.2,1.2-4.4,2.3-6.5,3.5c-1.3,0.7-2.4,1.5-3.1,1.5c-0.4,0-0.7-0.3-0.9-1.1C64,27.3,64,27,64,26.8c0-1.2,1-1.8,2.5-3.1 c0.3-0.2,0.5-0.5,0.8-0.7h12.4c-1.7,1.2-3.8,2.7-6.4,4.6l0,0l0,0l7.9-4.6h4.2C84.8,26.4,78.7,32.1,70.8,32.5"></path> <path class="st0" d="M63.1,23.2c-0.3,0-0.5-0.1-0.7-0.2h1.8C63.7,23.1,63.4,23.2,63.1,23.2"></path> <g> <defs> <path id="SVGID_1_" d="M79.8,23H67.4c4.1-3.4,8.1-6.2,12.4-9.2l0,0l0,0c-4.6,2.6-9.5,5.6-13.6,8.2c-0.6,0.4-1.4,0.8-2.1,1.1h-1.8 c-0.4-0.3-0.7-0.8-0.7-1.7c0-0.1,0-0.1,0-0.2c0.1-1.9,14.6-12.9,17-14.6l0,0l0,0c-2,1.1-11.6,8-16.5,11.7 c-0.5,0.4-0.9,0.5-1.2,0.5c-0.8,0-1.1-1.1-1.1-2.4c0,0,0,0,0,0c0-3.8,10.8-11.5,13.6-14.3l0,0l0,0c-1.7,0.3-9.6,5.9-11,5.9 c-0.1,0-0.1,0-0.1,0C62.1,7.8,62,7.6,62,7.4c0-1.7,4.3-5.7,7.5-6.8h0.7c-1.5,1.4-3.5,2.8-4.9,4.2l0,0l0,0 c2.3-1.6,5.1-3.2,7.4-4.2h5.4c-0.1,0.9-1.8,2.1-3.6,3.5c-2.4,1.9-5,4.3-6.3,5.5l0,0l0,0c5.8-4.1,7.6-5.2,14.1-8.2 c0.2,0,0.5-0.1,0.7-0.1c1,0,1.6,0.5,2.1,1c0.2,0.2,0.3,0.5,0.3,0.8c0,0.9-0.7,2.2-2.9,3.7c-4.8,3.2-8.4,7-10.2,8.3l0,0l0,0 c4.2-2.6,7.4-4.8,10.8-6.7c1.6-0.9,2.8-1.8,3.7-1.8c0.8,0,1.3,0.7,1.6,2.9C88,11.5,76.5,19.1,74,21.1l0,0l0,0 c5-2.7,7-4.4,11.5-6.5c0.7-0.3,1.3-0.5,1.6-0.5c0.6,0,0.9,0.4,0.9,0.9c0,0.8-0.6,1.9-1.2,2.6C86.1,18.2,85.4,18.9,79.8,23"></path> </defs> <use xlink:href="#SVGID_1_" style="overflow:visible;fill:#383838;"></use> <clipPath id="SVGID_2_"> <use xlink:href="#SVGID_1_" style="overflow:visible;"></use> </clipPath> </g> <path class="st0" d="M73.1,42.5C73.1,42.5,73.1,42.5,73.1,42.5L73.1,42.5C73.1,42.5,73.1,42.5,73.1,42.5"></path> <path class="st0" d="M68.5,36.1C68.5,36.1,68.5,36.1,68.5,36.1C68.5,36.1,68.5,36.1,68.5,36.1L68.5,36.1"></path> <path class="st0" d="M78.5,34.9h-3.1c0,0,0.1-0.1,0.1-0.1l0,0l0,0c-0.1,0-0.1,0.1-0.2,0.1h-3.9c1.3-0.6,2.5-1,4.9-2.2 c0.3-0.1,0.6-0.2,1-0.2c0.9,0,1.8,0.3,1.8,1.1C79.2,34,79,34.4,78.5,34.9"></path> <path class="st0" d="M71.1,34.9h-1.8c0,0,0,0,0,0c0.8-0.4,2.3-1.3,3.9-1.9C72.5,34,71.5,34.5,71.1,34.9"></path> <path class="st0" d="M73.1,42.5L73.1,42.5c-0.7,0-1.2-0.1-1.3-0.4h3.4C74.5,42.4,73.8,42.5,73.1,42.5"></path> <g> <defs> <path id="SVGID_3_" d="M69.7,37.2c-0.8,0-1.2-0.5-1.2-1.1v0c0-0.4,0.3-0.9,0.8-1.1h1.8c-0.1,0.1-0.2,0.2-0.2,0.3l0,0l0,0 c0.2-0.1,0.4-0.2,0.6-0.3h3.9C72.8,36.1,71.2,37.1,69.7,37.2C69.7,37.2,69.7,37.2,69.7,37.2"></path> </defs> <use xlink:href="#SVGID_3_" style="overflow:visible;fill:#383838;"></use> <clipPath id="SVGID_4_"> <use xlink:href="#SVGID_3_" style="overflow:visible;"></use> </clipPath> <g style="clip-path:url(#SVGID_4_);"> <image style="overflow:visible;" width="81" height="28" xlink:href="17067175.jpg" transform="matrix(0 2.997592e-02 -0.2725 0 75.8223 34.8129)"> </image> </g> </g> <polyline class="st0" points="256.2,39.6 256.2,39.6 256.2,37.7 224.6,37.7 224.6,39.6 224.5,39.6 224.5,37.6 256.2,37.6 256.2,39.6 "></polyline> <polyline class="st0" points="256.2,39.6 256.1,39.6 256.1,37.7 224.6,37.7 224.6,39.6 224.6,39.6 224.6,37.7 256.2,37.7 256.2,39.6 "></polyline> <path class="st0" d="M256.1,39.6h-31.5v-1.9h31.5V39.6 M220.1,39.6h-6.4v-1.9h6.4V39.6 M197.1,39.6h-4.7v-1.9h3.2L197.1,39.6 M173.9,39.6h-4.8l0.9-2.4h2.9L173.9,39.6 M150.6,39.6H144v-1.9h6.7V39.6 M121,39.6h-6.7v-1.9h6.7V39.6 M91.5,39.6h-6.7v-1.9h6.7 V39.6 M58.1,39.6H37.5v-1.9c0.5,0,1.9-0.1,4.4-0.2c2.5-0.1,4.6-0.2,6.2-0.2C52.3,37.3,55.7,38.1,58.1,39.6 M25.3,39.6H5.7v-1.9 c5.1-0.2,8.7-0.4,10.7-0.4C20.2,37.4,23.1,38.1,25.3,39.6"></path> <polyline class="st0" points="220.2,39.6 220.2,39.6 220.2,37.7 213.6,37.7 213.6,39.6 213.6,39.6 213.6,37.6 220.2,37.6 220.2,39.6 "></polyline> <polyline class="st0" points="220.2,39.6 220.1,39.6 220.1,37.7 213.7,37.7 213.7,39.6 213.6,39.6 213.6,37.7 220.2,37.7 220.2,39.6 "></polyline> <polyline class="st0" points="197.2,39.6 197.2,39.6 195.6,37.7 192.4,37.7 192.4,39.6 192.3,39.6 192.3,37.6 195.7,37.6 197.2,39.6 "></polyline> <polyline class="st0" points="197.2,39.6 197.1,39.6 195.6,37.7 192.4,37.7 192.4,39.6 192.4,39.6 192.4,37.7 195.6,37.7 197.2,39.6 "></polyline> <polyline class="st0" points="174.1,39.6 174,39.6 173,37.1 170,37.1 169.1,39.6 169,39.6 170,37.1 173,37.1 174.1,39.6 "></polyline> <polyline class="st0" points="174,39.6 173.9,39.6 173,37.2 170.1,37.2 169.1,39.6 169.1,39.6 170,37.1 173,37.1 174,39.6 "></polyline> <polyline class="st0" points="150.7,39.6 150.7,39.6 150.7,37.7 143.9,37.7 143.9,39.6 143.8,39.6 143.8,37.6 150.7,37.6 150.7,39.6 "></polyline> <polyline class="st0" points="150.7,39.6 150.6,39.6 150.6,37.7 144,37.7 144,39.6 143.9,39.6 143.9,37.7 150.7,37.7 150.7,39.6 "></polyline> <polyline class="st0" points="121.1,39.6 121.1,39.6 121.1,37.7 114.3,37.7 114.3,39.6 114.2,39.6 114.2,37.6 121.1,37.6 121.1,39.6 "></polyline> <polyline class="st0" points="121.1,39.6 121,39.6 121,37.7 114.3,37.7 114.3,39.6 114.3,39.6 114.3,37.7 121.1,37.7 121.1,39.6 "></polyline> <polyline class="st0" points="91.7,39.6 91.6,39.6 91.6,37.7 84.8,37.7 84.8,39.6 84.8,39.6 84.8,37.6 91.7,37.6 91.7,39.6 "></polyline> <polyline class="st0" points="91.6,39.6 91.5,39.6 91.5,37.7 84.9,37.7 84.9,39.6 84.8,39.6 84.8,37.7 91.6,37.7 91.6,39.6 "></polyline> <path class="st0" d="M58.3,39.6h-0.1c-2.4-1.6-5.8-2.3-10.2-2.3c-1.6,0-3.6,0.1-6.2,0.2c-2.6,0.1-4,0.2-4.4,0.2v1.9h-0.1v-2h0.1 c0,0,0,0,0,0c0.4,0,1.8-0.1,4.4-0.2c2.6-0.1,4.6-0.2,6.2-0.2C52.5,37.2,55.9,38,58.3,39.6"></path> <path class="st0" d="M58.2,39.6h-0.1c-2.4-1.5-5.8-2.3-10.1-2.3c-1.6,0-3.6,0.1-6.2,0.2c-2.4,0.1-3.9,0.2-4.4,0.2v1.9h-0.1v-1.9 c0.4,0,1.8-0.1,4.4-0.2c2.6-0.1,4.6-0.2,6.2-0.2C52.4,37.3,55.8,38.1,58.2,39.6"></path> <path class="st0" d="M25.5,39.6h-0.1c-2.2-1.5-5.2-2.3-8.9-2.3c-2.1,0-5.7,0.1-10.8,0.4v1.9H5.6v-2l0.1,0c5.1-0.2,8.7-0.4,10.8-0.4 C20.3,37.3,23.3,38,25.5,39.6"></path> <path class="st0" d="M25.4,39.6h-0.1c-2.2-1.5-5.1-2.2-8.8-2.2c-2.1,0-5.6,0.1-10.7,0.4v1.9H5.7v-1.9c5.1-0.2,8.7-0.4,10.8-0.4 C20.2,37.3,23.2,38.1,25.4,39.6"></path> <polyline class="st0" points="220.1,76.3 217.4,76.3 211.3,68.3 220.1,68.3 220.1,76.3 "></polyline> <path class="st0" d="M17.3,75.8L17.3,75.8L5.7,75.7v-7.4h6.7v1.8l0.1,0c1.4,0.1,2.5,0.2,3.3,0.2c3,0,5.2-0.5,6.6-1.6 c0.2-0.1,0.4-0.3,0.6-0.5h7.8c-0.6,1.7-1.7,3.2-3.3,4.4l0,0C24.9,74.7,21.5,75.7,17.3,75.8L17.3,75.8L17.3,75.8 M198.8,75.8h-6.4 v-7.4h6.4V75.8 M243.4,75.7h-6.7v-7.4h6.7V75.7 M188.2,75.7h-7.3l-2.7-7.4h7.1L188.2,75.7 M162.3,75.7h-7.4l2.9-7.4h7L162.3,75.7 M150.6,75.7H144v-7.4h6.7V75.7 M138.2,75.7h-23.9v-7.4h6.7v1.5h17.2V75.7 M108.8,75.7H84.9v-7.4h6.7v1.5h17.2V75.7 M76.8,75.7 h-6.7v-7.4h6.7V75.7 M66.6,75.7h-7.7l-4.8-7.4h7.6L66.6,75.7 M44.4,75.7h-6.9v-7.4h6.9V75.7"></path> <path class="st0" d="M220.2,76.4h-2.8v-0.1L220.2,76.4l-0.1-8.1h0.1V76.4 M217.4,76.4L217.4,76.4l-6.2-8.1h0.1L217.4,76.4 L217.4,76.4"></path> <polyline class="st0" points="220.2,76.3 217.4,76.3 217.4,76.3 217.4,76.3 211.3,68.3 211.3,68.3 217.4,76.3 220.1,76.3 220.1,68.3 220.2,68.3 220.2,76.3 "></polyline> <polyline class="st0" points="198.9,75.9 192.3,75.9 192.3,68.3 192.4,68.3 192.4,75.8 198.9,75.8 198.9,68.3 198.9,68.3 198.9,75.9 "></polyline> <polyline class="st0" points="198.9,75.8 192.4,75.8 192.4,68.3 192.4,68.3 192.4,75.8 198.8,75.8 198.8,68.3 198.9,68.3 198.9,75.8 "></polyline> <polyline class="st0" points="243.5,75.9 236.7,75.9 236.7,68.3 236.7,68.3 236.7,75.8 243.5,75.8 243.5,68.3 243.5,68.3 243.5,75.9 "></polyline> <polyline class="st0" points="243.5,75.8 236.7,75.8 236.7,68.3 236.8,68.3 236.8,75.7 243.4,75.7 243.4,68.3 243.5,68.3 243.5,75.8 "></polyline> <path class="st0" d="M188.4,75.9h-7.6v-0.1L188.4,75.9l-3.1-7.5h0.1L188.4,75.9 M180.9,75.9L180.9,75.9l-2.8-7.5h0.1L180.9,75.9 L180.9,75.9"></path> <polyline class="st0" points="188.3,75.8 180.9,75.8 180.9,75.8 180.9,75.8 178.2,68.3 178.2,68.3 180.9,75.7 188.2,75.7 185.3,68.3 185.4,68.3 188.3,75.8 "></polyline> <polyline class="st0" points="162.4,75.9 154.7,75.9 157.7,68.3 157.8,68.3 154.8,75.8 162.4,75.8 164.9,68.3 165,68.3 162.4,75.9 "></polyline> <polyline class="st0" points="162.4,75.8 154.8,75.8 157.8,68.3 157.8,68.3 154.9,75.7 162.3,75.7 164.9,68.3 164.9,68.3 162.4,75.8 "></polyline> <polyline class="st0" points="150.7,75.9 143.9,75.9 143.9,75.8 144,75.8 143.9,75.8 143.9,75.9 143.8,75.9 143.8,68.3 143.9,68.3 143.9,75.8 150.7,75.8 150.7,68.3 150.7,68.3 150.7,75.9 "></polyline> <polyline class="st0" points="150.7,75.8 143.9,75.8 143.9,68.3 144,68.3 144,75.7 150.6,75.7 150.6,68.3 150.7,68.3 150.7,75.8 "></polyline> <polyline class="st0" points="138.4,75.9 114.3,75.9 114.3,75.8 114.3,75.8 114.3,75.8 114.3,75.9 114.2,75.9 114.2,68.3 114.3,68.3 114.3,75.8 138.3,75.8 138.3,69.8 121.1,69.8 121.1,68.3 121.1,68.3 121.1,69.7 138.4,69.7 138.4,75.9 "></polyline> <polyline class="st0" points="138.3,75.8 114.3,75.8 114.3,68.3 114.3,68.3 114.3,75.7 138.2,75.7 138.2,69.9 121,69.9 121,68.3 121.1,68.3 121.1,69.8 138.3,69.8 138.3,75.8 "></polyline> <polyline class="st0" points="108.9,75.9 84.8,75.9 84.8,75.8 84.9,75.8 84.8,75.8 84.8,75.9 84.8,75.9 84.8,68.3 84.8,68.3 84.8,75.8 108.8,75.8 108.8,69.8 91.6,69.8 91.6,68.3 91.7,68.3 91.7,69.7 108.9,69.7 108.9,75.9 "></polyline> <polyline class="st0" points="108.8,75.8 84.8,75.8 84.8,68.3 84.9,68.3 84.9,75.7 108.8,75.7 108.8,69.9 91.5,69.9 91.5,68.3 91.6,68.3 91.6,69.8 108.8,69.8 108.8,75.8 "></polyline> <polyline class="st0" points="76.9,75.9 70.1,75.9 70.1,75.8 70.2,75.8 70.1,75.8 70.1,75.9 70.1,75.9 70.1,68.3 70.1,68.3 70.1,75.8 76.9,75.8 76.9,68.3 76.9,68.3 76.9,75.9 "></polyline> <polyline class="st0" points="76.9,75.8 70.1,75.8 70.1,68.3 70.2,68.3 70.2,75.7 76.8,75.7 76.8,68.3 76.9,68.3 76.9,75.8 "></polyline> <path class="st0" d="M66.8,75.9h-7.9v-0.1h7.8l-4.9-7.5h0.1L66.8,75.9 M58.9,75.9L58.9,75.9L54,68.3h0.1L58.9,75.9L58.9,75.9"></path> <polyline class="st0" points="66.7,75.8 58.9,75.8 59,75.8 58.9,75.8 54.1,68.3 54.2,68.3 58.9,75.7 66.6,75.7 61.8,68.3 61.8,68.3 66.7,75.8 "></polyline> <polyline class="st0" points="44.5,75.9 37.3,75.9 37.3,68.3 37.4,68.3 37.4,75.8 44.4,75.8 44.4,68.3 44.5,68.3 44.5,75.9 "></polyline> <polyline class="st0" points="44.4,75.8 37.4,75.8 37.4,68.3 37.5,68.3 37.5,75.7 44.4,75.7 44.4,68.3 44.4,68.3 44.4,75.8 "></polyline> <path class="st0" d="M17.3,75.9C17.3,75.9,17.3,75.9,17.3,75.9L17.3,75.9c4.1-0.1,7.5-1.1,10.2-3.1c1.6-1.2,2.7-2.7,3.3-4.4h0.1 c-0.6,1.7-1.7,3.2-3.3,4.5h0C24.9,74.8,21.5,75.9,17.3,75.9"></path> <path class="st0" d="M17.3,75.8L17.3,75.8c4.1-0.1,7.5-1.1,10.1-3.1l0,0c1.5-1.2,2.6-2.7,3.3-4.4h0.1c-0.6,1.7-1.7,3.2-3.3,4.4 C24.9,74.8,21.5,75.8,17.3,75.8"></path> <polyline class="st0" points="17.3,75.9 5.6,75.9 5.6,68.3 5.7,68.3 5.7,75.8 17.3,75.8 17.3,75.8 17.3,75.9 "></polyline> <polyline class="st0" points="17.3,75.8 5.7,75.8 5.7,68.3 5.7,68.3 5.7,75.7 17.3,75.7 17.3,75.8 17.3,75.8 "></polyline> <path class="st0" d="M15.8,70.3c-0.9,0-2-0.1-3.3-0.2v-1.8h0.1v1.7C13.8,70.2,14.9,70.3,15.8,70.3C15.8,70.3,15.8,70.3,15.8,70.3 c3-0.1,5.2-0.6,6.5-1.6c0.2-0.1,0.3-0.3,0.5-0.4h0.1c-0.2,0.2-0.3,0.3-0.5,0.4C21,69.8,18.8,70.3,15.8,70.3"></path> <path class="st0" d="M15.8,70.4c-0.9,0-2-0.1-3.3-0.2l-0.1,0v-1.8h0.1v1.8C13.8,70.3,14.9,70.3,15.8,70.4c3-0.1,5.2-0.6,6.6-1.6 c0.2-0.1,0.3-0.3,0.5-0.4h0.1c-0.2,0.2-0.4,0.3-0.6,0.5C21,69.9,18.8,70.4,15.8,70.4"></path> <g> <defs> <polyline id="SVGID_5_" points="178.2,68.3 178.1,68.3 178,68.1 165.1,68.1 165,68.3 164.9,68.3 165,68.1 178.1,68.1 178.2,68.3 "></polyline> </defs> <use xlink:href="#SVGID_5_" style="overflow:visible;fill:#383838;"></use> <clipPath id="SVGID_6_"> <use xlink:href="#SVGID_5_" style="overflow:visible;"></use> </clipPath> <g style="clip-path:url(#SVGID_6_);"> <image style="overflow:visible;" width="4" height="51" xlink:href="17067177.jpg" transform="matrix(0 0.1734 -0.27 0 178.4144 67.8985)"> </image> </g> </g> <path class="st0" d="M5.9,2.6h9.7c0.6,0,1,0,1.4,0c0.4,0,0.9,0,1.6,0.1c0.7,0,1.2,0.1,1.7,0.2c0.5,0.1,1,0.2,1.6,0.4 c0.6,0.2,1.1,0.4,1.6,0.6c0.4,0.2,0.9,0.6,1.3,1c0.5,0.4,0.8,0.8,1.1,1.3c0.3,0.5,0.5,1.1,0.7,1.7c0.2,0.7,0.3,1.4,0.3,2.2 c0,1.1-0.1,2.2-0.4,3.1c-0.3,0.9-0.7,1.7-1.2,2.3c-0.5,0.6-1.1,1.2-1.8,1.6c-0.7,0.5-1.5,0.8-2.2,1.1c-0.7,0.3-1.6,0.5-2.6,0.6 c-1,0.1-1.9,0.2-2.7,0.3c-0.8,0-1.8,0.1-2.8,0.1c-0.5,0-1.3,0-2.3-0.1v10.4H5.9V2.6 M10.7,7v7.7c1,0.1,1.9,0.1,2.7,0.1 c0.9,0,1.6,0,2.2-0.1c0.6,0,1.3-0.1,2-0.2c0.7-0.1,1.3-0.2,1.8-0.4c0.5-0.2,0.9-0.4,1.4-0.7c0.4-0.3,0.7-0.7,0.9-1.1 c0.2-0.5,0.3-1,0.3-1.6c0-0.5-0.1-1-0.3-1.4c-0.2-0.4-0.4-0.7-0.8-1c-0.4-0.3-0.7-0.5-1.2-0.7c-0.4-0.2-0.9-0.3-1.5-0.4 C17.6,7.1,17,7,16.5,7c-0.5,0-1.2,0-1.9,0H10.7 M55.2,10.3c0,0.9-0.1,1.7-0.3,2.5c-0.2,0.8-0.5,1.5-1,2.2c-0.5,0.7-1.1,1.4-1.8,1.9 c-0.8,0.6-1.7,1-2.8,1.3l8.1,11.2h-6.2L43.7,19h-4.6v10.4h-4.8V2.6h11.4c0.6,0,1.1,0,1.6,0c0.5,0,1,0.1,1.7,0.2 c0.7,0.1,1.3,0.3,1.8,0.5c0.5,0.2,1.1,0.5,1.6,0.9c0.6,0.4,1,0.8,1.4,1.4c0.4,0.5,0.7,1.2,0.9,2C55.1,8.4,55.2,9.3,55.2,10.3 M39.1,6.9v7.7h4.4c0.8,0,1.4,0,2-0.1c0.6,0,1.2-0.2,1.8-0.3c0.6-0.2,1.1-0.4,1.5-0.7c0.4-0.3,0.7-0.7,1-1.2 c0.3-0.5,0.4-1.1,0.4-1.7c0-2.5-1.9-3.8-5.8-3.8H39.1 M98.8,1.8h4.8V19c0,0.7,0,1.3-0.1,1.9c-0.1,0.6-0.2,1.2-0.4,1.9 c-0.2,0.7-0.4,1.3-0.7,1.9c-0.3,0.6-0.7,1.1-1.3,1.7c-0.5,0.6-1.2,1-1.9,1.4c-0.7,0.4-1.6,0.7-2.7,0.9C95.5,28.9,94.3,29,93,29 c-1.4,0-2.7-0.1-3.9-0.5l-0.7-0.2l0.8-4.2l0.8,0.2c0.8,0.2,1.6,0.3,2.5,0.3c0.8,0,1.6-0.1,2.3-0.2c0.7-0.2,1.2-0.3,1.7-0.6 c0.4-0.2,0.8-0.5,1.1-0.9c0.3-0.3,0.6-0.7,0.7-1c0.2-0.3,0.3-0.7,0.4-1.1c0.1-0.4,0.1-0.7,0.2-1c0-0.3,0-0.5,0-0.9V1.8 M112.9,28.7 V1.8h18.9v4.4h-14.1v6.5h13v4.4h-13v7.3h14.1v4.4H112.9 M155.4,1.6c2.8,0,5.5,0.5,8,1.5l0.7,0.3l-1.5,4.1l-0.7-0.2 c-2.4-0.8-4.7-1.2-6.6-1.2c-1.6,0-3,0.3-4.3,0.8c-1.3,0.5-2.4,1.2-3.3,2.1c-0.9,0.9-1.6,1.8-2,3c-0.5,1.1-0.7,2.3-0.7,3.5 c0,1.2,0.3,2.4,0.8,3.6c0.5,1.1,1.3,2.1,2.2,3c0.9,0.9,2.1,1.5,3.6,2c1.4,0.5,3,0.7,4.7,0.7c2.1,0,4.1-0.4,6.2-1.1l0.7-0.2l1.6,3.8 l-0.7,0.3c-2.7,1.2-5.6,1.8-8.7,1.8c-2.4,0-4.5-0.4-6.4-1.1c-1.9-0.7-3.5-1.7-4.8-3c-1.2-1.3-2.2-2.7-2.9-4.4c-0.7-1.7-1-3.5-1-5.4 c0-1.9,0.3-3.7,1-5.4c0.7-1.7,1.7-3.1,3-4.3c1.3-1.2,2.9-2.2,4.8-2.9C150.9,2,153,1.6,155.4,1.6 M167,1.8h24.3v4.4h-9.8v22.5h-4.8 V6.2H167V1.8"></path> <polyline class="st0" points="57.4,29.5 51.2,29.5 48.5,25.7 54.7,25.7 57.4,29.5 "></polyline> <polyline class="st0" points="39.1,29.5 34.4,29.5 34.4,25.7 39.1,25.7 39.1,29.5 "></polyline> <polyline class="st0" points="10.7,29.5 5.9,29.5 5.9,25.7 10.7,25.7 10.7,29.5 "></polyline> <path class="st0" d="M155.1,29.1c-2.4,0-4.5-0.4-6.4-1.1c-1.6-0.6-3-1.4-4.1-2.4h19.3l0.6,1.4l-0.7,0.3 C161.1,28.5,158.2,29.1,155.1,29.1"></path> <path class="st0" d="M93,29c-1.4,0-2.7-0.1-3.9-0.5l-0.7-0.2l0.5-2.7h12.9c-0.2,0.3-0.4,0.5-0.7,0.8c-0.5,0.6-1.2,1-1.9,1.4 c-0.7,0.4-1.6,0.7-2.7,0.9C95.5,28.9,94.3,29,93,29"></path> <polyline class="st0" points="181.6,28.7 176.8,28.7 176.8,25.7 181.6,25.7 181.6,28.7 "></polyline> <polyline class="st0" points="131.8,28.7 112.9,28.7 112.9,25.7 131.8,25.7 131.8,28.7 "></polyline> </g> </svg> 